<svg id="Layer_1" data-name="Layer 1" xmlns="http://www.w3.org/2000/svg" viewBox="0 0 81.88 81.39"><defs><style>.cls-1{fill:#fff;}</style></defs><title>book appointment</title><g id="Web-App"><g id="Patient-home-"><g id="_2J" data-name="2J"><path class="cls-1" d="M9.91,17.17c-.07,1,0,3.93,2.56,10.42l.08.23c3.39,12,27.9,38.38,41.63,44.86,10.27,4.83,16.24,5.76,17.39,5.46,1.32-.52,5.18-5.07,6.83-7,.8-.95,1.51-1.8,2.08-2.42s.46-.84.46-.95a2.67,2.67,0,0,0-.82-1.42l-13.8-9.21a6.29,6.29,0,0,0-3.67,0l-9.83,5.26-1.37-1A101,101,0,0,1,26.76,36.12L26,34.85l.67-1.35c.14-.27,3.45-6.9,5.06-9.59.41-.69-.24-2.81-1.07-4.16-2.54-3.88-7.25-10.62-8.89-12a1.67,1.67,0,0,0-2,.09C15.61,11.33,10.88,15.76,9.91,17.17ZM71.08,83.49c-4.74,0-12.71-2.93-19.24-6-14.93-7-40.6-34.82-44.47-48.09C5.08,23.5,4.12,18.88,4.6,16c.15-.89.46-2.74,11.67-12.31l.15-.11C18,2.4,21.93.89,25.25,3.7,28,6,34,15.1,35.2,16.9c.4.64,3.48,5.84,1.15,9.73-1.08,1.8-3.11,5.75-4.17,7.85a98.31,98.31,0,0,0,21,21.6l7.14-3.81a11.38,11.38,0,0,1,8.08-.07l.61.3,14.5,9.7a8,8,0,0,1,2.79,5.17,6.48,6.48,0,0,1-1.82,4.9c-.54.58-1.21,1.38-2,2.27-3.9,4.59-6.86,7.92-9.39,8.68A7.21,7.21,0,0,1,71.08,83.49Z" transform="translate(-4.48 -2.1)"/></g></g></g></svg>