<?xml version="1.0" encoding="UTF-8"?>
<svg width="19px" height="23px" viewBox="0 0 19 23" version="1.1" xmlns="http://www.w3.org/2000/svg" xmlns:xlink="http://www.w3.org/1999/xlink">
    <!-- Generator: Sketch 52.3 (67297) - http://www.bohemiancoding.com/sketch -->
    <title>Download</title>
    <desc>Created with Sketch.</desc>
    <g id="Web-App" stroke="none" stroke-width="1" fill="none" fill-rule="evenodd">
        <g id="Patient-home-" transform="translate(-749.000000, -30.000000)" fill="#4A4A4A" stroke="#4A4A4A" stroke-width="0.8536">
            <g id="Download" transform="translate(750.000000, 31.000000)">
                <path d="M11.5453874,0.1623001 C11.447328,0.0608825684 11.3128839,0 11.173545,0 L2.83099471,0 C1.29157709,0 0.0208845209,1.24280547 0.0208845209,2.75429536 L0.0208845209,18.2455444 C0.0208845209,19.7571945 1.29157709,21 2.83099471,21 L14.1539945,21 C15.6934122,21 16.9641047,19.7571945 16.9641047,18.2455444 L16.9641047,5.94486236 C16.9641047,5.81300352 16.9021038,5.68627168 16.8143236,5.58982085 L11.5453874,0.1623001 Z M11.6951685,1.79058838 L15.2233473,5.42752075 L12.9298027,5.42752075 C12.2479557,5.42752075 11.6951685,4.88983154 11.6951685,4.2202835 L11.6951685,1.79058838 Z M14.1539945,19.9855042 L2.83099471,19.9855042 C1.86508562,19.9855042 1.05401566,19.1993179 1.05401566,18.2455444 L1.05401566,2.75429536 C1.05401566,1.80580903 1.85986449,1.01449585 2.83099471,1.01449585 L10.6620374,1.01449585 L10.6620374,4.2202835 C10.6620374,5.45283506 11.6746103,6.4420166 12.9298027,6.4420166 L15.9309736,6.4420166 L15.9309736,18.2455444 C15.9309736,19.1993179 15.1251248,19.9855042 14.1539945,19.9855042 Z" id="Shape" fill-rule="nonzero"></path>
                <path d="M12.7437999,16.4855576 L4.24118932,16.4855576 C3.95712722,16.4855576 3.72462377,16.713707 3.72462377,16.9928055 C3.72462377,17.2717438 3.95712722,17.5000534 4.24118932,17.5000534 L12.749021,17.5000534 C13.0330832,17.5000534 13.2655866,17.2717438 13.2655866,16.9928055 C13.2655866,16.713707 13.0330832,16.4855576 12.7437999,16.4855576 Z" id="Path"></path>
                <path d="M8.11543114,14.6645279 C8.21365363,14.7659454 8.34793458,14.826828 8.4924946,14.826828 C8.63721782,14.826828 8.77149877,14.7659454 8.86955811,14.6645279 L11.8966715,11.4739609 C12.0929534,11.2709656 12.0774532,10.9463653 11.8708922,10.7587509 C11.6641681,10.5660095 11.3336053,10.5810699 11.1425445,10.7840652 L9.0090602,13.0311127 L9.0090602,7.49208067 C9.0090602,7.21298218 8.77655675,6.98483276 8.4924946,6.98483276 C8.2084325,6.98483276 7.97592905,7.21298218 7.97592905,7.49208067 L7.97592905,13.0311127 L5.84766585,10.7840652 C5.65138397,10.5812302 5.32587913,10.5660095 5.11931818,10.7587509 C4.91275724,10.9514923 4.897257,11.2711258 5.09353883,11.4739609 L8.11543114,14.6645279 Z" id="Path"></path>
            </g>
        </g>
    </g>
</svg>