<?xml version="1.0" encoding="UTF-8"?>
<svg xmlns="http://www.w3.org/2000/svg" xmlns:xlink="http://www.w3.org/1999/xlink" width="135px" height="41px" viewBox="0 0 135 41">
  <!-- Generator: Sketch 46.2 (44496) - http://www.bohemiancoding.com/sketch -->
  <title>logo google play</title>
  <desc>Created with Sketch.</desc>
  <defs>
    <linearGradient x1="90.9092308%" y1="4.7296%" x2="-38.1907692%" y2="71.8596%" id="linearGradient-1">
      <stop stop-color="#00A0FF" offset="0%"></stop>
      <stop stop-color="#00A1FF" offset="0.657445%"></stop>
      <stop stop-color="#00BEFF" offset="26.01%"></stop>
      <stop stop-color="#00D2FF" offset="51.22%"></stop>
      <stop stop-color="#00DFFF" offset="76.04%"></stop>
      <stop stop-color="#00E3FF" offset="100%"></stop>
    </linearGradient>
    <linearGradient x1="107.782906%" y1="49.9928571%" x2="-130.607094%" y2="49.9928571%" id="linearGradient-2">
      <stop stop-color="#FFE000" offset="0%"></stop>
      <stop stop-color="#FFBD00" offset="40.87%"></stop>
      <stop stop-color="#FFA500" offset="77.54%"></stop>
      <stop stop-color="#FF9C00" offset="100%"></stop>
    </linearGradient>
    <linearGradient x1="86.3978443%" y1="17.465641%" x2="-49.8821557%" y2="195.425031%" id="linearGradient-3">
      <stop stop-color="#FF3A44" offset="0%"></stop>
      <stop stop-color="#C31162" offset="100%"></stop>
    </linearGradient>
    <linearGradient x1="-18.7221557%" y1="-53.6859255%" x2="42.1278443%" y2="24.9139203%" id="linearGradient-4">
      <stop stop-color="#32A071" offset="0%"></stop>
      <stop stop-color="#2DA771" offset="6.85%"></stop>
      <stop stop-color="#15CF74" offset="47.62%"></stop>
      <stop stop-color="#06E775" offset="80.09%"></stop>
      <stop stop-color="#00F076" offset="100%"></stop>
    </linearGradient>
  </defs>
  <g id="Page-1" stroke="none" stroke-width="1" fill="none" fill-rule="evenodd">
    <g id="logo-google-play" fill-rule="nonzero">
      <path d="M130,40.7 L5,40.7 C2.2,40.7 0,38.5 0,35.7 L0,5.7 C0,3 2.2,0.7 5,0.7 L130,0.7 C132.8,0.7 135,2.9 135,5.7 L135,35.7 C135,38.5 132.8,40.7 130,40.7 Z" id="Shape" fill="#000000"></path>
      <path d="M130,1.5 C132.3,1.5 134.2,3.4 134.2,5.7 L134.2,35.7 C134.2,38 132.3,39.9 130,39.9 L5,39.9 C2.7,39.9 0.8,38 0.8,35.7 L0.8,5.7 C0.8,3.4 2.7,1.5 5,1.5 L130,1.5 L130,1.5 Z M130,0.7 L5,0.7 C2.2,0.7 0,2.9 0,5.7 L0,35.7 C0,38.5 2.2,40.7 5,40.7 L130,40.7 C132.8,40.7 135,38.5 135,35.7 L135,5.7 C135,3 132.8,0.7 130,0.7 L130,0.7 Z" id="Shape_1_" fill="#A6A6A6"></path>
      <g id="Group" transform="translate(41.000000, 7.000000)" stroke="#FFFFFF" stroke-width="0.2" fill="#FFFFFF">
        <path d="M6.4,4 C6.4,4.8 6.2,5.5 5.7,6 C5.1,6.6 4.4,6.9 3.5,6.9 C2.6,6.9 1.9,6.6 1.3,6 C0.7,5.4 0.4,4.7 0.4,3.8 C0.4,2.9 0.7,2.2 1.3,1.6 C1.9,1 2.6,0.7 3.5,0.7 C3.9,0.7 4.3,0.8 4.7,1 C5.1,1.2 5.4,1.4 5.6,1.7 L5.1,2 C4.7,1.5 4.2,1.3 3.5,1.3 C2.9,1.3 2.3,1.5 1.9,2 C1.4,2.4 1.2,3 1.2,3.7 C1.2,4.4 1.4,5 1.9,5.4 C2.4,5.8 2.9,6.1 3.5,6.1 C4.2,6.1 4.7,5.9 5.2,5.4 C5.5,5.1 5.7,4.7 5.7,4.2 L3.5,4.2 L3.5,3.5 L6.4,3.5 C6.4,3.7 6.4,3.8 6.4,4 Z" id="Shape_2_"></path>
        <polygon id="Shape_3_" points="11 1.5 8.3 1.5 8.3 3.4 10.8 3.4 10.8 4.1 8.3 4.1 8.3 6 11 6 11 6.7 7.5 6.7 7.5 0.7 11 0.7"></polygon>
        <polygon id="Shape_4_" points="14.3 6.7 13.5 6.7 13.5 1.5 11.8 1.5 11.8 0.7 16 0.7 16 1.4 14.3 1.4"></polygon>
        <polygon id="Shape_5_" points="18.9 6.7 18.9 0.7 19.7 0.7 19.7 6.7"></polygon>
        <polygon id="Shape_6_" points="23.1 6.7 22.3 6.7 22.3 1.5 20.6 1.5 20.6 0.7 24.7 0.7 24.7 1.4 23 1.4 23 6.7"></polygon>
        <path d="M32.6,6 C32,6.6 31.3,6.9 30.4,6.9 C29.5,6.9 28.8,6.6 28.2,6 C27.6,5.4 27.3,4.7 27.3,3.8 C27.3,2.9 27.6,2.2 28.2,1.6 C28.8,1 29.5,0.7 30.4,0.7 C31.3,0.7 32,1 32.6,1.6 C33.2,2.2 33.5,2.9 33.5,3.8 C33.5,4.6 33.2,5.3 32.6,6 Z M28.8,5.5 C29.2,5.9 29.8,6.2 30.4,6.2 C31,6.2 31.6,6 32,5.5 C32.4,5.1 32.7,4.5 32.7,3.8 C32.7,3.1 32.5,2.5 32,2 C31.6,1.6 31,1.3 30.4,1.3 C29.8,1.3 29.2,1.5 28.8,2 C28.4,2.4 28.1,3 28.1,3.7 C28.1,4.4 28.3,5 28.8,5.5 Z" id="Shape_7_"></path>
        <polygon id="Shape_8_" points="34.6 6.7 34.6 0.7 35.5 0.7 38.4 5.4 38.4 5.4 38.4 4.2 38.4 0.7 39.2 0.7 39.2 6.7 38.4 6.7 35.3 1.8 35.3 1.8 35.3 3 35.3 6.7"></polygon>
      </g>
      <path d="M68.1,22.5 C65.7,22.5 63.8,24.3 63.8,26.8 C63.8,29.2 65.7,31.1 68.1,31.1 C70.5,31.1 72.4,29.3 72.4,26.8 C72.4,24.3 70.5,22.5 68.1,22.5 Z M68.1,29.3 C66.8,29.3 65.7,28.2 65.7,26.7 C65.7,25.2 66.8,24.1 68.1,24.1 C69.4,24.1 70.5,25.1 70.5,26.7 C70.5,28.2 69.4,29.3 68.1,29.3 Z M58.8,22.5 C56.4,22.5 54.5,24.3 54.5,26.8 C54.5,29.2 56.4,31.1 58.8,31.1 C61.2,31.1 63.1,29.3 63.1,26.8 C63.1,24.3 61.2,22.5 58.8,22.5 Z M58.8,29.3 C57.5,29.3 56.4,28.2 56.4,26.7 C56.4,25.2 57.5,24.1 58.8,24.1 C60.1,24.1 61.2,25.1 61.2,26.7 C61.2,28.2 60.1,29.3 58.8,29.3 Z M47.8,23.8 L47.8,25.6 L52.1,25.6 C52,26.6 51.6,27.4 51.1,27.9 C50.5,28.5 49.5,29.2 47.8,29.2 C45.1,29.2 43.1,27.1 43.1,24.4 C43.1,21.7 45.2,19.6 47.8,19.6 C49.2,19.6 50.3,20.2 51.1,20.9 L52.4,19.6 C51.3,18.6 49.9,17.8 47.9,17.8 C44.3,17.8 41.2,20.8 41.2,24.4 C41.2,28 44.3,31 47.9,31 C49.9,31 51.3,30.4 52.5,29.1 C53.7,27.9 54.1,26.2 54.1,24.9 C54.1,24.5 54.1,24.1 54,23.8 L47.8,23.8 Z M93.1,25.2 C92.7,24.2 91.7,22.5 89.5,22.5 C87.3,22.5 85.5,24.2 85.5,26.8 C85.5,29.2 87.3,31.1 89.7,31.1 C91.6,31.1 92.8,29.9 93.2,29.2 L91.8,28.2 C91.3,28.9 90.7,29.4 89.7,29.4 C88.7,29.4 88.1,29 87.6,28.1 L93.3,25.7 L93.1,25.2 Z M87.3,26.6 C87.3,25 88.6,24.1 89.5,24.1 C90.2,24.1 90.9,24.5 91.1,25 L87.3,26.6 Z M82.6,30.7 L84.5,30.7 L84.5,18.2 L82.6,18.2 L82.6,30.7 Z M79.6,23.4 L79.6,23.4 C79.1,22.9 78.3,22.4 77.3,22.4 C75.2,22.4 73.2,24.3 73.2,26.7 C73.2,29.1 75.1,30.9 77.3,30.9 C78.3,30.9 79.1,30.4 79.5,29.9 L79.6,29.9 L79.6,30.5 C79.6,32.1 78.7,33 77.3,33 C76.2,33 75.4,32.2 75.2,31.5 L73.6,32.2 C74.1,33.3 75.3,34.7 77.4,34.7 C79.6,34.7 81.4,33.4 81.4,30.3 L81.4,22.7 L79.6,22.7 L79.6,23.4 L79.6,23.4 Z M77.4,29.3 C76.1,29.3 75,28.2 75,26.7 C75,25.2 76.1,24.1 77.4,24.1 C78.7,24.1 79.7,25.2 79.7,26.7 C79.7,28.2 78.7,29.3 77.4,29.3 Z M101.8,18.2 L97.3,18.2 L97.3,30.7 L99.2,30.7 L99.2,26 L101.8,26 C103.9,26 105.9,24.5 105.9,22.1 C105.9,19.7 103.9,18.2 101.8,18.2 Z M101.9,24.3 L99.2,24.3 L99.2,20 L101.9,20 C103.3,20 104.1,21.2 104.1,22.1 C104,23.1 103.3,24.3 101.9,24.3 Z M113.4,22.5 C112,22.5 110.6,23.1 110.1,24.4 L111.8,25.1 C112.2,24.4 112.8,24.2 113.5,24.2 C114.5,24.2 115.4,24.8 115.5,25.8 L115.5,25.9 C115.2,25.7 114.4,25.4 113.6,25.4 C111.8,25.4 110,26.4 110,28.2 C110,29.9 111.5,31 113.1,31 C114.4,31 115,30.4 115.5,29.8 L115.6,29.8 L115.6,30.8 L117.4,30.8 L117.4,26 C117.2,23.7 115.5,22.5 113.4,22.5 Z M113.2,29.3 C112.6,29.3 111.7,29 111.7,28.2 C111.7,27.2 112.8,26.9 113.7,26.9 C114.5,26.9 114.9,27.1 115.4,27.3 C115.2,28.5 114.2,29.3 113.2,29.3 Z M123.7,22.7 L121.6,28.1 L121.5,28.1 L119.3,22.7 L117.3,22.7 L120.6,30.3 L118.7,34.5 L120.6,34.5 L125.7,22.7 L123.7,22.7 L123.7,22.7 Z M106.9,30.7 L108.8,30.7 L108.8,18.2 L106.9,18.2 L106.9,30.7 Z" id="Shape_9_" fill="#FFFFFF"></path>
      <g id="Group_1_" transform="translate(9.000000, 7.000000)">
        <path d="M1.4,1.3 C1.2,1.6 1,2.1 1,2.7 L1,24.8 C1,25.4 1.2,25.9 1.5,26.2 L1.6,26.3 L14,13.9 L14,13.8 L14,13.7 L1.4,1.3 L1.4,1.3 Z" id="Shape_10_" fill="url(#linearGradient-1)"></path>
        <path d="M18,18 L13.9,13.9 L13.9,13.8 L13.9,13.7 L18,9.6 L18.1,9.7 L23,12.5 C24.4,13.3 24.4,14.6 23,15.4 L18,18 L18,18 Z" id="Shape_11_" fill="url(#linearGradient-2)"></path>
        <path d="M18.1,18 L13.9,13.8 L1.4,26.2 C1.9,26.7 2.6,26.7 3.5,26.3 L18.1,18" id="Shape_12_" fill="url(#linearGradient-3)"></path>
        <path d="M18.1,9.5 L3.5,1.2 C2.6,0.7 1.9,0.8 1.4,1.3 L13.9,13.8 L18.1,9.5 Z" id="Shape_13_" fill="url(#linearGradient-4)"></path>
        <g id="Shape_14_" transform="translate(0.000000, 17.000000)" fill="#000000">
          <path d="M18,0.9 L3.5,9.1 C2.7,9.6 2,9.5 1.5,9.1 L1.5,9.1 L1.4,9.2 L1.4,9.2 L1.5,9.3 L1.5,9.3 C2,9.7 2.7,9.8 3.5,9.3 L18,0.9 L18,0.9 Z" id="Shape" opacity="0.2"></path>
          <path d="M1.4,9 C1.1,8.7 0.9,8.2 0.9,7.6 L0.9,7.7 C0.9,8.3 1.1,8.8 1.4,9.1 L1.4,9 L1.4,9 Z" id="Shape" opacity="0.12"></path>
        </g>
        <path d="M23,15 L18,17.8 L18.1,17.9 L23,15.1 C23.7,14.7 24,14.2 24,13.7 L24,13.7 C24,14.2 23.7,14.7 23,15 Z" id="Shape_15_" fill="#000000" opacity="0.12"></path>
        <path d="M3.5,1.4 L23,12.4 C23.6,12.8 24,13.2 24,13.7 L24,13.7 C24,13.2 23.7,12.7 23,12.3 L3.5,1.2 C2.1,0.4 1,1.1 1,2.7 L1,2.8 C1,1.2 2.1,0.6 3.5,1.4 Z" id="Shape_16_" fill="#FFFFFF" opacity="0.25"></path>
      </g>
    </g>
  </g>
</svg>
