<svg id="Layer_1" data-name="Layer 1" xmlns="http://www.w3.org/2000/svg" viewBox="0 0 122.26 48.3"><defs><style>.cls-1{fill:#36c;}</style></defs><title>Dr.-iQ-logo-Horizontal@3x</title><path class="cls-1" d="M10.09,43a24.3,24.3,0,0,0,31,2.82L33,37.67A13.19,13.19,0,0,1,18,16.45a13,13,0,0,1,3.83-2.66V2.1A24.3,24.3,0,0,0,10.09,43ZM36.6,16.45a13.16,13.16,0,0,1,2.85,14.4L47.65,39A24.32,24.32,0,0,0,31.17,1.78V13.17A13.21,13.21,0,0,1,36.6,16.45Z" transform="translate(-2.97 -1.78)"/><circle class="cls-1" cx="24.31" cy="24.15" r="6.69"/><path class="cls-1" d="M62.11,36.52V19.14H69a9.36,9.36,0,0,1,6.67,2.4,8.17,8.17,0,0,1,2.57,6.28,8.23,8.23,0,0,1-2.55,6.31A9.39,9.39,0,0,1,69,36.52Zm3.71-3.26H69a5.21,5.21,0,0,0,4-1.56,5.47,5.47,0,0,0,1.47-3.88A5.54,5.54,0,0,0,73,23.92a5.22,5.22,0,0,0-4-1.52H65.82Z" transform="translate(-2.97 -1.78)"/><path class="cls-1" d="M80.74,36.52V23.94h3.31v1.75a6,6,0,0,1,1.8-1.48,4.64,4.64,0,0,1,2.22-.59V27a4.78,4.78,0,0,0-.92-.07,4.28,4.28,0,0,0-1.77.41,2.94,2.94,0,0,0-1.33,1v8.22Z" transform="translate(-2.97 -1.78)"/><path class="cls-1" d="M88.06,36.18a2.07,2.07,0,0,1,0-3,2.07,2.07,0,0,1,1.49-.62A2.09,2.09,0,0,1,91,36.18a2,2,0,0,1-1.48.63A2,2,0,0,1,88.06,36.18Z" transform="translate(-2.97 -1.78)"/><path class="cls-1" d="M101.46,22a2,2,0,0,1-.54-1.39,1.93,1.93,0,0,1,.54-1.38,1.72,1.72,0,0,1,1.29-.57,1.91,1.91,0,0,1,1.4.57,1.88,1.88,0,0,1,.57,1.38,1.92,1.92,0,0,1-.57,1.39,1.89,1.89,0,0,1-1.4.59A1.7,1.7,0,0,1,101.46,22Zm-.35,14.53V23.94h3.3V36.52Z" transform="translate(-2.97 -1.78)"/><path class="cls-1" d="M109.64,34.31a8.72,8.72,0,0,1-2.57-6.47,8.69,8.69,0,0,1,2.57-6.46,9.61,9.61,0,0,1,13,0,8.73,8.73,0,0,1,2.57,6.46A8.87,8.87,0,0,1,123,34l1.28,1.48-2.57,2.1L120.25,36a9.77,9.77,0,0,1-4.09.86A8.92,8.92,0,0,1,109.64,34.31Zm2.68-10.59a6,6,0,0,0-1.44,4.12A6,6,0,0,0,112.33,32a4.92,4.92,0,0,0,3.83,1.62,5.66,5.66,0,0,0,1.8-.29L116.06,31l2.58-2.13,1.89,2.25a6,6,0,0,0,.89-3.32A6,6,0,0,0,120,23.72a5.36,5.36,0,0,0-7.66,0Z" transform="translate(-2.97 -1.78)"/></svg>