<?xml version="1.0" encoding="UTF-8"?>
<svg width="65px" height="62px" viewBox="0 0 65 62" version="1.1" xmlns="http://www.w3.org/2000/svg" xmlns:xlink="http://www.w3.org/1999/xlink">
    <!-- Generator: Sketch 51.2 (57519) - http://www.bohemiancoding.com/sketch -->
    <title>5E</title>
    <desc>Created with Sketch.</desc>
    <defs></defs>
    <g id="Web-App" stroke="none" stroke-width="1" fill="none" fill-rule="evenodd">
        <g id="Patient-home" transform="translate(-450.000000, -515.000000)" fill="#FFFFFF">
            <g id="5E" transform="translate(450.000000, 515.000000)">
                <path d="M39.4363189,22.2189204 L25.1075606,36.252084 C24.1741161,37.1647314 24.1262867,38.6949477 25.0011016,39.6704807 C25.4562522,40.1784029 26.0734056,40.4347826 26.6905589,40.4347826 C27.2567972,40.4347826 27.8261211,40.2187141 28.2720145,39.7817398 L42.6007728,25.7485763 C43.5342172,24.8359288 43.5820466,23.3041001 42.7072317,22.3301795 C41.8339597,21.3546465 40.3697634,21.306273 39.4363189,22.2189204" id="Fill-186" transform="translate(33.854167, 31.000000) rotate(88.000000) translate(-33.854167, -31.000000) "></path>
                <path d="M60.2290286,4.82160485 C53.6417927,-1.69545731 42.6405397,-1.59925136 35.6691669,5.06924608 L26.5156834,14.1749609 C25.4717559,15.2154104 25.4664206,16.9061408 26.5032345,17.9537167 C27.5436052,19.0030742 29.2295392,19.0066373 30.2770235,17.9679694 L39.391382,8.89966807 C44.2588941,4.24258757 51.9238473,4.11965775 56.4801373,8.62352137 C58.5715492,10.6919492 59.7026188,13.5710013 59.6652722,16.7297633 C59.6261471,19.9259386 58.363475,22.9314837 56.1991483,24.9696245 L46.117334,34.4672894 C45.0449519,35.4792335 44.993378,37.1699639 46.0017373,38.2442637 C46.5263686,38.805465 47.2359548,39.0869565 47.9455409,39.0869565 C48.5999963,39.0869565 49.2562302,38.8464417 49.7737479,38.3618487 L59.8537838,28.8641838 C63.0691516,25.8336964 64.9435973,21.4331651 64.998728,16.792119 C65.0538588,12.2365892 63.3145724,7.8734713 60.2290286,4.82160485" id="Fill-187"></path>
                <path d="M34.7241535,44.0343153 L25.6081539,53.1026746 C20.7389367,57.75444 13.0705422,57.8809339 8.51787754,53.3770415 C6.4282756,51.310382 5.29722297,48.4313115 5.33634743,45.2725294 C5.37369351,42.074552 6.6363466,39.0725509 8.8006407,37.0308339 L18.8823032,27.5331083 C19.9546691,26.5229394 20.0062423,24.8304165 18.9978982,23.7561099 C17.9877757,22.6782401 16.3018671,22.6283552 15.2259444,23.6385241 L5.14428189,33.1380313 C1.93074086,36.168538 0.0563234564,40.5673158 0.00119353279,45.2083917 C-0.0521580062,49.7657322 1.68532378,54.1306595 4.77082112,57.1807639 C8.02170823,60.3947757 12.3449613,62 16.7322362,62 C21.2315493,62 25.798441,60.3074771 29.3303129,56.9313394 L38.4836586,47.8273481 C39.5275704,46.7868919 39.5346839,45.0943691 38.4961073,44.0467865 C37.4575307,42.9992039 35.7698437,42.9956407 34.7241535,44.0343153" id="Fill-188"></path>
            </g>
        </g>
    </g>
</svg>