<?xml version="1.0" encoding="UTF-8"?>
<svg width="52px" height="62px" viewBox="0 0 52 62" version="1.1" xmlns="http://www.w3.org/2000/svg" xmlns:xlink="http://www.w3.org/1999/xlink">
    <!-- Generator: Sketch 51.2 (57519) - http://www.bohemiancoding.com/sketch -->
    <title>5H</title>
    <desc>Created with Sketch.</desc>
    <defs></defs>
    <g id="Web-App" stroke="none" stroke-width="1" fill="none" fill-rule="evenodd">
        <g id="Patient-home" transform="translate(-695.000000, -318.000000)" fill="#FFFFFF">
            <g id="5H" transform="translate(695.000000, 318.000000)">
                <path d="M28.294303,18.6 L14.1786667,18.6 C12.8723636,18.6 11.8150303,17.5615 11.8150303,16.275 C11.8150303,14.9885 12.8723636,13.95 14.1786667,13.95 L28.294303,13.95 C29.6006061,13.95 30.6579394,14.9885 30.6579394,16.275 C30.6579394,17.5615 29.6006061,18.6 28.294303,18.6 Z M37.6290909,28.3495 L14.1786667,28.3495 C12.8723636,28.3495 11.8150303,27.2955 11.8150303,26.0245 C11.8150303,24.738 12.8723636,23.6995 14.1786667,23.6995 L37.6290909,23.6995 C38.9338182,23.6995 39.9927273,24.738 39.9927273,26.0245 C39.9927273,27.2955 38.9338182,28.3495 37.6290909,28.3495 Z M37.7425455,38.0835 L14.2921212,38.0835 C12.9873939,38.0835 11.9284848,37.045 11.9284848,35.7585 C11.9284848,34.472 12.9873939,33.4335 14.2921212,33.4335 L37.7425455,33.4335 C39.0488485,33.4335 40.1061818,34.472 40.1061818,35.7585 C40.1061818,37.045 39.0488485,38.0835 37.7425455,38.0835 Z M37.6290909,47.833 L14.1786667,47.833 C12.8723636,47.833 11.8150303,46.779 11.8150303,45.508 C11.8150303,44.2215 12.8723636,43.183 14.1786667,43.183 L37.6290909,43.183 C38.9338182,43.183 39.9927273,44.2215 39.9927273,45.508 C39.9927273,46.779 38.9338182,47.833 37.6290909,47.833 Z M6.40230303,4.712 C5.97527273,4.712 5.61442424,5.0685 5.61442424,5.487 L5.61442424,55.955 C5.61442424,56.3735 5.97527273,56.73 6.40230303,56.73 L45.6339394,56.73 C46.0609697,56.73 46.4218182,56.3735 46.4218182,55.955 L46.4218182,5.487 C46.4218182,5.0685 46.0609697,4.712 45.6339394,4.712 L6.40230303,4.712 Z M45.6339394,61.38 L6.40230303,61.38 C3.36109091,61.38 0.887151515,58.9465 0.887151515,55.955 L0.887151515,5.487 C0.887151515,2.4955 3.36109091,0.062 6.40230303,0.062 L45.6339394,0.062 C48.6751515,0.062 51.1490909,2.4955 51.1490909,5.487 L51.1490909,55.955 C51.1490909,58.9465 48.6751515,61.38 45.6339394,61.38 Z"></path>
            </g>
        </g>
    </g>
</svg>