<?xml version="1.0" encoding="UTF-8"?>
<svg width="70px" height="65px" viewBox="0 0 70 65" version="1.1" xmlns="http://www.w3.org/2000/svg" xmlns:xlink="http://www.w3.org/1999/xlink">
    <!-- Generator: Sketch 51.2 (57519) - http://www.bohemiancoding.com/sketch -->
    <title>Group</title>
    <desc>Created with Sketch.</desc>
    <defs>
        <polygon id="path-1" points="0 70 73 70 73 0 9.90151491e-18 0"></polygon>
    </defs>
    <g id="Web-App" stroke="none" stroke-width="1" fill="none" fill-rule="evenodd">
        <g id="Patient-home" transform="translate(-685.000000, -514.000000)">
            <g id="Group" transform="translate(684.000000, 510.000000)">
                <g id="Page-1">
                    <g id="Group-3">
                        <mask id="mask-2" fill="white">
                            <use xlink:href="#path-1"></use>
                        </mask>
                        <g id="Clip-2"></g>
                        <path d="M70.1256627,28.1092957 C69.7478158,28.8345511 69.8025452,29.6550321 69.6265235,30.4255238 C68.7469077,34.2755238 66.8821617,37.5725268 64.0985197,40.3535741 C55.0272356,49.4167265 45.942639,58.4670947 36.8677392,67.5263135 C36.608555,67.784947 36.4585009,67.9313093 36.1049782,67.577778 C27.3632214,58.8352131 18.6060154,50.1077269 9.85193208,41.3772905 C9.78076735,41.3063221 9.71371144,41.2312561 9.56645141,41.074732 C11.1572214,41.074732 12.6168379,41.081288 14.0764544,41.0696511 C14.3969422,41.0671926 14.5287531,41.3022246 14.7064184,41.4790722 C21.790185,48.5378972 28.8752664,55.5952471 35.9427621,62.6699704 C36.3603824,63.0880781 36.5659876,63.094798 36.9880454,62.6724289 C45.1552251,54.5000705 53.3334165,46.3383655 61.5245917,38.1897725 C64.468642,35.2612156 66.2957512,31.7778589 66.6571629,27.6441488 C67.1229385,22.3167584 65.4756311,17.6662731 61.5880319,13.9488678 C57.4956492,10.0356026 52.5576717,8.58050255 46.9700079,9.51177969 C43.8104912,10.0385528 41.0659651,11.4946362 38.6897535,13.6335251 C38.055352,14.2045511 37.4188139,14.7754132 36.8231996,15.3852833 C36.5276934,15.6878418 36.3707366,15.6303131 36.0939666,15.36791 C34.7934435,14.1348938 33.5192169,12.8694255 31.9884356,11.9048768 C28.4433475,9.67125394 24.5925632,8.72112835 20.4523538,9.46572393 C13.2550195,10.7602024 8.63506454,14.9756984 6.71838311,22.0278035 C5.93376323,24.9148938 6.11734522,27.8254217 6.92727542,30.6979249 C6.9502848,30.7798746 6.96770619,30.8632995 6.99942627,30.9939274 C5.92110807,30.9939274 4.87204465,30.9770458 3.82396735,31.0031058 C3.45203715,31.0124481 3.47126642,30.779219 3.41949531,30.5517265 C2.45129343,26.2949278 2.71129944,22.1153259 4.46444991,18.1120798 C7.28211295,11.6783676 12.2261715,7.67839953 19.0872402,6.28263112 C25.1936011,5.04043657 30.7557902,6.52979161 35.6373947,10.428142 C36.4759223,11.0976716 36.4588296,11.100294 37.300973,10.4225694 C41.5716784,6.98576011 46.4578848,5.47739272 51.9111081,5.9745 C60.475364,6.75531737 67.5865775,13.0318499 69.5979261,21.4553025 C69.8132281,22.3567499 69.8115846,23.2960581 70.1256627,24.1757069 L70.1256627,28.1092957 Z" id="Fill-1" stroke="#FFFFFF" stroke-width="1.7496" fill="#FFFFFF" mask="url(#mask-2)"></path>
                    </g>
                    <path d="M23.9870654,27.5204683 C23.1554158,29.5244945 22.3568173,31.4500853 21.5570791,33.3753623 C20.8661001,35.0386649 20.1759352,36.7022812 19.4812115,38.3641719 C19.0660379,39.357165 18.6155339,39.6563179 17.5124748,39.6572591 C13.2588184,39.6603965 9.00532486,39.6602396 4.75166847,39.657416 C3.58788006,39.6566316 2.81989043,39.0271085 2.80784226,38.0802355 C2.79530564,37.1098319 3.5698078,36.4654061 4.77999796,36.4638374 C8.53430642,36.4592881 12.2889405,36.4523858 16.043249,36.4741909 C16.5357587,36.4770145 16.7439968,36.3325364 16.9256962,35.8892191 C18.8561718,31.1813654 20.8172562,26.4851201 22.7656412,21.7841687 C23.0425863,21.1158985 23.4054968,20.5450451 24.2275404,20.4364904 C25.1915571,20.309425 25.8921421,20.7958818 26.135385,21.8186803 C26.7498418,24.4006191 27.3437842,26.9871071 27.9398431,29.5729677 C29.0332962,34.3173723 30.1220278,39.0625614 31.2153181,43.8068092 C31.2423451,43.9235211 31.3009578,44.0334877 31.387086,44.25546 C32.172171,41.6095179 32.9237165,39.075111 33.6762389,36.5411748 C34.4974684,33.775697 35.3252105,31.0122585 36.1371597,28.2442708 C36.3263485,27.6001587 36.6610924,27.0983286 37.349792,26.8918864 C38.2768501,26.6139111 39.0567251,27.0176969 39.41931,28.0133568 C39.9990876,29.6057537 40.5409298,31.2111709 41.0959598,32.8118819 C41.4520322,33.8397003 41.823409,34.8631263 42.1462674,35.9005138 C42.279123,36.3279872 42.4772666,36.4774852 42.9587051,36.4746615 C46.7130135,36.4522289 50.4674848,36.4599156 54.2221189,36.4639943 C55.1705055,36.4650924 55.8243631,36.8635445 56.0690713,37.5605221 C56.4205849,38.5616725 55.6368024,39.633101 54.496459,39.6491018 C52.7388911,39.6738874 50.9808347,39.6580434 49.2231039,39.6583572 C46.6403989,39.6588278 44.0578567,39.6608671 41.4754773,39.6572591 C40.321132,39.6556904 39.8309016,39.3174766 39.4583851,38.2592253 C39.0137424,36.9962574 38.5829388,35.7287402 38.1425292,34.4643604 C38.0899406,34.3128231 38.1042682,34.120813 37.8870754,34.0401814 C36.2192175,39.6698088 34.5520108,45.2978674 32.8848041,50.926083 C32.5432222,52.0789275 31.8989705,52.6013077 30.9624693,52.4838114 C30.1625683,52.383414 29.6985508,51.9600193 29.4836374,51.0449911 C28.7431632,47.8917284 28.0173422,44.7353282 27.2900558,41.5793987 C26.2390969,37.0182193 25.1917199,32.4564124 24.1402726,27.8955467 C24.1174788,27.796718 24.0634248,27.7046348 23.9870654,27.5204683" id="Fill-4" stroke="#FFFFFF" stroke-width="1.7496" fill="#FFFFFF"></path>
                </g>
            </g>
        </g>
    </g>
</svg>