<?xml version="1.0" encoding="UTF-8"?>
<svg width="139px" height="41px" viewBox="0 0 139 41" version="1.1" xmlns="http://www.w3.org/2000/svg" xmlns:xlink="http://www.w3.org/1999/xlink">
    <!-- Generator: Sketch 53 (72520) - https://sketchapp.com -->
    <title>Dr.iq logo-06</title>
    <desc>Created with Sketch.</desc>
    <g id="Web-App-v2-Practice-side" stroke="none" stroke-width="1" fill="none" fill-rule="evenodd">
        <g id="Practice-Home-Dashboard" transform="translate(-261.000000, -15.000000)" fill="#3366CC">
            <g id="Dr.iq-logo-06" transform="translate(261.000000, 15.000000)">
                <path d="M6.06356423,34.9505831 C13.2346081,42.1059626 24.3650049,42.9020572 32.4170602,37.3411221 L25.5244683,30.4613311 C21.3544683,32.4576568 16.2026537,31.7314741 12.745961,28.2827833 C8.36802602,23.9139604 8.36802602,16.8311991 12.745961,12.4623762 C13.6862575,11.5220062 14.7871871,10.756613 15.9969789,10.2021892 L15.9969789,0.288217822 C12.2333638,1.1563247 8.79082832,3.06445829 6.06356423,5.79412541 C-2.00521626,13.8470847 -2.00521626,26.8994279 6.06356423,34.9505831 Z M28.6010016,12.4623762 C31.9103317,15.7644774 32.7181138,20.6168207 31.025252,24.6757756 L37.9906211,31.6259296 C43.2197333,23.6325083 42.3174764,12.8128383 35.2838504,5.79412541 C32.2222902,2.72937328 28.2682105,0.708660086 23.9866537,0.0207480748 L23.9866537,9.68348735 C25.7292191,10.2196646 27.3135443,11.1737894 28.6010016,12.4623762 Z" id="Shape" fill-rule="nonzero"></path>
                <ellipse id="Oval" cx="20.6737073" cy="20.5054125" rx="5.68340488" ry="5.6709901"></ellipse>
                <path d="M55.238374,32.6759626 L55.238374,9.66409241 L64.3527057,9.66409241 C67.9825268,9.66409241 70.9330938,10.7225449 73.2044065,12.8394499 C75.4757192,14.956355 76.6115263,17.7278768 76.6118276,21.1540154 C76.6118276,24.6243564 75.4817463,27.4124166 73.2215837,29.5181958 C70.9614211,31.6239751 68.0164293,32.6764136 64.3866081,32.6755116 L55.238374,32.6759626 Z M60.1510634,28.3635204 L64.3382407,28.3635204 C66.5556108,28.3635204 68.314168,27.6728199 69.6139122,26.2914191 C70.9136564,24.9100183 71.5635285,23.1975504 71.5635285,21.1540154 C71.5635285,19.0650752 70.9361073,17.3467437 69.681265,15.9990209 C68.4264228,14.6512981 66.6558114,13.9772864 64.3694309,13.9769857 L60.1488033,13.9769857 L60.1510634,28.3635204 Z" id="Shape" fill-rule="nonzero"></path>
                <path d="M79.9546081,32.6759626 L79.9546081,16.0152585 L84.3442959,16.0152585 L84.3442959,18.3358856 C84.9855794,17.5492629 85.7841702,16.8956986 86.7400683,16.3751925 C87.6959664,15.8546865 88.6753702,15.5942831 89.6782797,15.5939824 L89.6782797,20.0079098 C89.2775129,19.9337232 88.8703138,19.8997256 88.4627642,19.9064246 C87.7196228,19.9064246 86.9344423,20.0898497 86.1072228,20.4566997 C85.2800033,20.8235497 84.692361,21.2681298 84.3442959,21.79044 L84.3442959,32.6759626 L79.9546081,32.6759626 Z" id="Path"></path>
                <path d="M89.6705951,32.2294279 C89.1136911,31.6737404 88.8350883,31.016718 88.834787,30.2583608 C88.8344856,29.5000037 89.1130883,28.8458379 89.6705951,28.2958636 C90.2281019,27.7458893 90.8865626,27.4707517 91.6459772,27.470451 C92.4053919,27.4701503 93.0609897,27.7452879 93.6127707,28.2958636 C94.1642504,28.8464393 94.4399902,29.5006051 94.4399902,30.2583608 C94.4399902,31.0161166 94.1642504,31.673139 93.6127707,32.2294279 C93.0612911,32.7857169 92.4056932,33.063711 91.6459772,33.0634103 C90.8862612,33.0631096 90.2278005,32.7851155 89.6705951,32.2294279 Z" id="Path"></path>
                <path d="M107.44813,13.4375358 C106.976651,12.9393786 106.719179,12.2769502 106.730754,11.5918592 C106.730754,10.8789072 106.970181,10.2695453 107.449034,9.76377338 C107.927887,9.25800147 108.498955,9.00541621 109.162237,9.0060176 C109.900256,9.0060176 110.520896,9.25860286 111.024159,9.76377338 C111.516793,10.2437813 111.789794,10.904894 111.779054,11.5918592 C111.779054,12.3051118 111.527422,12.9198863 111.024159,13.4361826 C110.520896,13.9524789 109.900256,14.2107774 109.162237,14.2110781 C108.499256,14.2119802 107.927887,13.9541327 107.44813,13.4375358 Z M106.983441,32.6759626 L106.983441,16.0152585 L111.372676,16.0152585 L111.372676,32.6759626 L106.983441,32.6759626 Z" id="Shape" fill-rule="nonzero"></path>
                <path d="M118.304143,29.7446205 C116.036145,27.510143 114.902146,24.6575834 114.902146,21.1869417 C114.902146,17.7163 116.036145,14.8637404 118.304143,12.6292629 C120.572141,10.3944848 123.45641,9.27694536 126.95695,9.27664466 C130.434888,9.27664466 133.310568,10.4014008 135.58399,12.6509131 C137.857412,14.9004254 138.994274,17.7514815 138.994576,21.2040814 C138.994576,24.4095086 137.992721,27.1257022 135.989011,29.3526623 L137.677353,31.3083938 L134.26722,34.0990099 L132.393093,31.959703 C130.727202,32.717158 128.915154,33.0960359 126.95695,33.0963366 C123.45641,33.096938 120.572141,31.9796993 118.304143,29.7446205 Z M121.867967,15.7320022 C120.590524,17.1609131 119.951802,18.9763696 119.951802,21.1783718 C119.951802,23.380374 120.596099,25.1986872 121.884693,26.6333113 C123.173287,28.0676348 124.864491,28.7846461 126.958306,28.7843454 C127.772938,28.7872209 128.582442,28.655697 129.354078,28.3950935 L126.822696,25.4132343 L130.250007,22.6014191 L132.765567,25.5828273 C133.553008,24.3292226 133.946879,22.8610708 133.94718,21.1783718 C133.94718,18.9763696 133.308459,17.1609131 132.031015,15.7320022 C130.753571,14.3030913 129.062517,13.5887862 126.957854,13.5890869 C124.840835,13.5890869 123.144206,14.303392 121.867967,15.7320022 Z" id="Shape" fill-rule="nonzero"></path>
            </g>
        </g>
    </g>
</svg>