<?xml version="1.0" encoding="UTF-8"?>
<svg width="265px" height="33px" viewBox="0 0 265 33" version="1.1" xmlns="http://www.w3.org/2000/svg" xmlns:xlink="http://www.w3.org/1999/xlink">
    <!-- Generator: Sketch 53.2 (72643) - https://sketchapp.com -->
    <title>Group 28</title>
    <desc>Created with Sketch.</desc>
    <defs>
        <polygon id="path-1" points="0 32.9747 264.693 32.9747 264.693 -0.0003 0 -0.0003"></polygon>
    </defs>
    <g id="Privacy-officer" stroke="none" stroke-width="1" fill="none" fill-rule="evenodd">
        <g id="Sign-in-Copy-2" transform="translate(-585.000000, -26.000000)">
            <g id="Group-28" transform="translate(585.000000, 26.000000)">
                <path d="M23.1436,10.0138 C25.8226,12.6718 26.4766,16.5768 25.1056,19.8438 L30.7446,25.4388 C34.9776,19.0048 34.2476,10.2958 28.5536,4.6468 C26.0746,2.1808 22.8736,0.5538 19.4086,-0.0002 L19.4086,7.7778 C20.8186,8.2088 22.1016,8.9768 23.1436,10.0138 M4.8986,28.1148 C10.7046,33.8728 19.7146,34.5138 26.2326,30.0378 L20.6526,24.5008 C17.2776,26.1078 13.1066,25.5238 10.3086,22.7468 C6.7646,19.2318 6.7646,13.5308 10.3086,10.0138 C11.0696,9.2568 11.9606,8.6408 12.9396,8.1948 L12.9396,0.2158 C9.8936,0.9138 7.1066,2.4498 4.8986,4.6468 C-1.6324,11.1288 -1.6324,21.6338 4.8986,28.1148" id="Fill-1" fill="#3366CC"></path>
                <path d="M16.7262,11.923 C19.2672,11.923 21.3272,13.967 21.3272,16.487 C21.3272,19.009 19.2672,21.052 16.7262,21.052 C14.1852,21.052 12.1252,19.009 12.1252,16.487 C12.1252,13.967 14.1852,11.923 16.7262,11.923" id="Fill-3" fill="#3366CC"></path>
                <path d="M49.1905,16.9132 L52.9385,16.9132 C53.6535,16.9132 54.2465,16.7082 54.7135,16.2972 C55.1825,15.8872 55.4165,15.3472 55.4165,14.6802 C55.4165,13.9962 55.1825,13.4512 54.7135,13.0442 C54.2465,12.6372 53.6535,12.4342 52.9385,12.4342 L49.1905,12.4342 L49.1905,16.9132 Z M45.6385,25.9832 L45.6385,9.3092 L53.4525,9.3092 C55.2055,9.3092 56.5795,9.8212 57.5745,10.8472 C58.5685,11.8722 59.0655,13.1492 59.0655,14.6802 C59.0655,16.1932 58.5645,17.4652 57.5605,18.4942 C56.5575,19.5242 55.1865,20.0382 53.4485,20.0382 L49.1905,20.0382 L49.1905,25.9832 L45.6385,25.9832 Z" id="Fill-5" fill="#3C6CDE"></path>
                <path d="M61.19,25.9835 L61.19,13.9115 L64.364,13.9115 L64.364,15.5925 C64.828,15.0225 65.405,14.5485 66.097,14.1705 C66.789,13.7945 67.497,13.6055 68.221,13.6055 L68.221,16.8035 C67.985,16.7545 67.692,16.7305 67.342,16.7305 C66.805,16.7305 66.237,16.8635 65.64,17.1285 C65.041,17.3945 64.616,17.7165 64.364,18.0955 L64.364,25.9835 L61.19,25.9835 Z" id="Fill-7" fill="#3C6CDE"></path>
                <path d="M73.2628,21.0284 C72.8308,21.3794 72.6158,21.8444 72.6158,22.4254 C72.6158,23.0074 72.8308,23.4664 73.2628,23.8044 C73.6938,24.1424 74.2348,24.3114 74.8868,24.3114 C76.0658,24.3114 76.9168,23.9434 77.4378,23.2084 L77.4378,21.6434 C76.9008,20.8914 76.0498,20.5104 74.8868,20.5034 C74.2348,20.5034 73.6938,20.6774 73.2628,21.0284 M69.4418,22.3754 C69.4418,21.0754 69.8568,20.1094 70.6868,19.4754 C71.5168,18.8414 72.4938,18.5244 73.6168,18.5244 C75.3338,18.5244 76.6078,18.9834 77.4378,19.9004 L77.4378,18.4134 C77.4378,17.8094 77.1958,17.3304 76.7118,16.9724 C76.2268,16.6164 75.5858,16.4374 74.7888,16.4374 C73.5028,16.4374 72.3428,16.9164 71.3098,17.8744 L70.0648,15.6044 C71.4808,14.2714 73.2388,13.6054 75.3378,13.6054 C76.8768,13.6054 78.1408,13.9644 79.1288,14.6794 C80.1168,15.3954 80.6118,16.5634 80.6118,18.1824 L80.6118,25.9834 L77.4378,25.9834 L77.4378,24.8394 C76.5748,25.8054 75.3018,26.2884 73.6168,26.2884 C72.5508,26.2884 71.5888,25.9404 70.7298,25.2444 C69.8708,24.5494 69.4418,23.5914 69.4418,22.3754" id="Fill-9" fill="#3C6CDE"></path>
                <path d="M84.817,24.5001 C83.6,23.3091 82.992,21.7861 82.992,19.9351 C82.992,18.0841 83.598,16.5651 84.811,15.3821 C86.023,14.1971 87.557,13.6051 89.413,13.6051 C91.545,13.6051 93.136,14.3301 94.186,15.7781 L92.11,17.7311 C91.525,16.8691 90.674,16.4371 89.559,16.4371 C88.59,16.4371 87.803,16.7571 87.197,17.3961 C86.591,18.0351 86.288,18.8791 86.288,19.9291 C86.288,20.9791 86.591,21.8291 87.197,22.4791 C87.803,23.1311 88.59,23.4561 89.559,23.4561 C90.641,23.4561 91.492,23.0171 92.11,22.1381 L94.186,24.0791 C93.119,25.5521 91.528,26.2881 89.413,26.2881 C87.565,26.2881 86.033,25.6921 84.817,24.5001" id="Fill-11" fill="#3C6CDE"></path>
                <path d="M94.8692,16.7433 L94.8692,13.9113 L96.8712,13.9113 L96.8712,10.6633 L100.0452,10.6633 L100.0452,13.9113 L102.4982,13.9113 L102.4982,16.7433 L100.0452,16.7433 L100.0452,22.1263 C100.0452,22.5203 100.1402,22.8423 100.3322,23.0883 C100.5232,23.3343 100.7932,23.4563 101.1432,23.4563 C101.6562,23.4563 102.0262,23.3323 102.2542,23.0823 L102.9262,25.5073 C102.3402,26.0283 101.4562,26.2883 100.2772,26.2883 C98.0062,26.2883 96.8712,25.1843 96.8712,22.9773 L96.8712,16.7433 L94.8692,16.7433 Z" id="Fill-13" fill="#3C6CDE"></path>
                <mask id="mask-2" fill="white">
                    <use xlink:href="#path-1"></use>
                </mask>
                <g id="Clip-16"></g>
                <path d="M104.549,25.9837 L107.723,25.9837 L107.723,13.9117 L104.549,13.9117 L104.549,25.9837 Z M104.886,12.0427 C104.539,11.6687 104.366,11.2237 104.366,10.7057 C104.366,10.1897 104.539,9.7477 104.886,9.3817 C105.232,9.0157 105.645,8.8327 106.124,8.8327 C106.658,8.8327 107.107,9.0157 107.47,9.3817 C107.834,9.7477 108.016,10.1897 108.016,10.7057 C108.016,11.2237 107.834,11.6687 107.47,12.0427 C107.107,12.4167 106.658,12.6047 106.124,12.6047 C105.645,12.6047 105.232,12.4167 104.886,12.0427 L104.886,12.0427 Z" id="Fill-15" fill="#3C6CDE" mask="url(#mask-2)"></path>
                <path d="M112.0509,24.5001 C110.8339,23.3091 110.2259,21.7861 110.2259,19.9351 C110.2259,18.0841 110.8319,16.5651 112.0449,15.3821 C113.2569,14.1971 114.7909,13.6051 116.6469,13.6051 C118.7789,13.6051 120.3699,14.3301 121.4199,15.7781 L119.3439,17.7311 C118.7589,16.8691 117.9079,16.4371 116.7929,16.4371 C115.8239,16.4371 115.0369,16.7571 114.4309,17.3961 C113.8249,18.0351 113.5219,18.8791 113.5219,19.9291 C113.5219,20.9791 113.8249,21.8291 114.4309,22.4791 C115.0369,23.1311 115.8239,23.4561 116.7929,23.4561 C117.8749,23.4561 118.7259,23.0171 119.3439,22.1381 L121.4199,24.0791 C120.3529,25.5521 118.7619,26.2881 116.6469,26.2881 C114.7989,26.2881 113.2669,25.6921 112.0509,24.5001" id="Fill-17" fill="#3C6CDE" mask="url(#mask-2)"></path>
                <path d="M125.9849,18.7814 L131.9299,18.7814 C131.8639,18.1594 131.5859,17.6134 131.0929,17.1424 C130.6009,16.6734 129.8829,16.4374 128.9389,16.4374 C128.0189,16.4374 127.3139,16.6694 126.8209,17.1324 C126.3289,17.5944 126.0499,18.1444 125.9849,18.7814 M122.6889,19.9284 C122.6889,18.1634 123.2789,16.6684 124.4589,15.4424 C125.6389,14.2184 127.1309,13.6054 128.9329,13.6054 C130.7349,13.6054 132.1939,14.2184 133.3089,15.4424 C134.4239,16.6684 134.9819,18.2644 134.9819,20.2334 L134.9819,20.9784 L126.0089,20.9784 C126.1229,21.6934 126.4849,22.2844 127.0959,22.7534 C127.7059,23.2214 128.5039,23.4564 129.4879,23.4564 C130.0419,23.4564 130.6219,23.3594 131.2279,23.1664 C131.8339,22.9724 132.3199,22.7094 132.6869,22.3744 L134.1029,24.4544 C132.8899,25.6774 131.2339,26.2884 129.1339,26.2884 C127.2709,26.2884 125.7309,25.7054 124.5139,24.5374 C123.2969,23.3694 122.6889,21.8334 122.6889,19.9284" id="Fill-18" fill="#3C6CDE" mask="url(#mask-2)"></path>
                <path d="M147.3223,22.8585 L150.3493,22.8585 C151.9533,22.8585 153.2243,22.3585 154.1643,21.3565 C155.1053,20.3565 155.5743,19.1155 155.5743,17.6335 C155.5743,16.1205 155.1213,14.8755 154.2133,13.8985 C153.3063,12.9215 152.0263,12.4335 150.3753,12.4335 L147.3223,12.4335 L147.3223,22.8585 Z M143.7703,25.9835 L143.7703,9.3085 L150.3603,9.3085 C152.9843,9.3085 155.1193,10.0765 156.7603,11.6095 C158.4033,13.1435 159.2243,15.1515 159.2243,17.6335 C159.2243,20.1485 158.4073,22.1695 156.7733,23.6945 C155.1383,25.2205 153.0093,25.9835 150.3853,25.9835 L143.7703,25.9835 Z" id="Fill-19" fill="#3C6CDE" mask="url(#mask-2)"></path>
                <path d="M164.7178,21.0284 C164.2858,21.3794 164.0708,21.8444 164.0708,22.4254 C164.0708,23.0074 164.2858,23.4664 164.7178,23.8044 C165.1488,24.1424 165.6898,24.3114 166.3418,24.3114 C167.5218,24.3114 168.3708,23.9434 168.8928,23.2084 L168.8928,21.6434 C168.3558,20.8914 167.5048,20.5104 166.3418,20.5034 C165.6898,20.5034 165.1488,20.6774 164.7178,21.0284 M160.8968,22.3754 C160.8968,21.0754 161.3128,20.1094 162.1428,19.4754 C162.9728,18.8414 163.9488,18.5244 165.0718,18.5244 C166.7888,18.5244 168.0628,18.9834 168.8928,19.9004 L168.8928,18.4134 C168.8928,17.8094 168.6508,17.3304 168.1658,16.9724 C167.6818,16.6164 167.0408,16.4374 166.2438,16.4374 C164.9568,16.4374 163.7978,16.9164 162.7648,17.8744 L161.5198,15.6044 C162.9358,14.2714 164.6938,13.6054 166.7928,13.6054 C168.3318,13.6054 169.5958,13.9644 170.5838,14.6794 C171.5718,15.3954 172.0668,16.5634 172.0668,18.1824 L172.0668,25.9834 L168.8928,25.9834 L168.8928,24.8394 C168.0298,25.8054 166.7558,26.2884 165.0718,26.2884 C164.0058,26.2884 163.0428,25.9404 162.1858,25.2444 C161.3258,24.5494 160.8968,23.5914 160.8968,22.3754" id="Fill-20" fill="#3C6CDE" mask="url(#mask-2)"></path>
                <path d="M174.2042,24.4093 L175.5842,22.1143 C176.0722,22.5613 176.7212,22.9523 177.5292,23.2863 C178.3382,23.6193 179.1062,23.7863 179.8362,23.7863 C181.1832,23.7863 181.8562,23.3583 181.8562,22.5053 C181.8562,22.2033 181.6822,21.9573 181.3332,21.7653 C180.9842,21.5753 180.5422,21.4423 180.0062,21.3693 C179.4712,21.2963 178.8892,21.1723 178.2582,20.9973 C177.6272,20.8223 177.0382,20.6233 176.4912,20.3983 C175.9432,20.1753 175.4902,19.8083 175.1322,19.3003 C174.7732,18.7923 174.5942,18.1633 174.5942,17.4143 C174.5942,16.3473 175.0452,15.4473 175.9492,14.7103 C176.8522,13.9733 178.0882,13.6053 179.6532,13.6053 C181.5352,13.6053 183.1832,14.1553 184.6002,15.2533 L183.2722,17.5123 C182.8852,17.1133 182.3632,16.7793 181.7032,16.5113 C181.0452,16.2423 180.3612,16.1083 179.6532,16.1083 C179.0862,16.1083 178.6292,16.2163 178.2842,16.4313 C177.9392,16.6473 177.7672,16.9303 177.7672,17.2803 C177.7672,17.5973 178.0122,17.8443 178.5042,18.0183 C178.9942,18.1933 179.5932,18.3473 180.2992,18.4823 C181.0042,18.6163 181.7182,18.7963 182.4392,19.0193 C183.1602,19.2433 183.7722,19.6433 184.2752,20.2223 C184.7792,20.8003 185.0302,21.5363 185.0302,22.4303 C185.0302,23.5623 184.5552,24.4883 183.6052,25.2083 C182.6542,25.9293 181.3462,26.2883 179.6782,26.2883 C178.6072,26.2883 177.5862,26.1223 176.6142,25.7883 C175.6422,25.4543 174.8392,24.9953 174.2042,24.4093" id="Fill-21" fill="#3C6CDE" mask="url(#mask-2)"></path>
                <path d="M187.1299,25.9835 L187.1299,9.3085 L190.3039,9.3085 L190.3039,15.4615 C191.3719,14.2235 192.7829,13.6055 194.5369,13.6055 C195.8399,13.6055 196.8209,13.9395 197.4809,14.6065 C198.1409,15.2735 198.4709,16.2105 198.4709,17.4145 L198.4709,25.9835 L195.2969,25.9835 L195.2969,18.6345 C195.2969,17.1705 194.5499,16.4375 193.0569,16.4375 C191.9229,16.4375 191.0059,16.9015 190.3039,17.8295 L190.3039,25.9835 L187.1299,25.9835 Z" id="Fill-22" fill="#3C6CDE" mask="url(#mask-2)"></path>
                <path d="M204.793,22.1144 C205.078,22.4964 205.479,22.8154 205.996,23.0724 C206.513,23.3284 207.027,23.4564 207.54,23.4564 C208.459,23.4564 209.198,23.1314 209.756,22.4794 C210.313,21.8294 210.592,20.9784 210.592,19.9284 C210.592,18.8954 210.313,18.0544 209.756,17.4084 C209.198,16.7604 208.459,16.4374 207.54,16.4374 C207.027,16.4374 206.513,16.5704 205.996,16.8344 C205.479,17.0984 205.078,17.4304 204.793,17.8294 L204.793,22.1144 Z M201.619,25.9834 L201.619,9.3084 L204.793,9.3084 L204.793,15.4614 C205.729,14.2234 206.971,13.6054 208.517,13.6054 C210.091,13.6054 211.379,14.1774 212.383,15.3204 C213.387,16.4644 213.888,18.0004 213.888,19.9284 C213.888,21.8984 213.387,23.4504 212.383,24.5864 C211.379,25.7204 210.091,26.2884 208.517,26.2884 C207.02,26.2884 205.777,25.6704 204.793,24.4324 L204.793,25.9834 L201.619,25.9834 Z" id="Fill-23" fill="#3C6CDE" mask="url(#mask-2)"></path>
                <path d="M218.795,19.9288 C218.795,20.9298 219.069,21.7678 219.619,22.4438 C220.168,23.1188 220.919,23.4558 221.871,23.4558 C222.84,23.4558 223.599,23.1188 224.148,22.4438 C224.697,21.7678 224.972,20.9298 224.972,19.9288 C224.972,18.9448 224.697,18.1168 224.148,17.4448 C223.599,16.7738 222.84,16.4378 221.871,16.4378 C220.919,16.4378 220.168,16.7758 219.619,17.4498 C219.069,18.1258 218.795,18.9518 218.795,19.9288 M217.233,24.4508 C216.076,23.2268 215.499,21.7218 215.499,19.9348 C215.499,18.1488 216.076,16.6478 217.233,15.4308 C218.388,14.2138 219.932,13.6058 221.865,13.6058 C223.798,13.6058 225.348,14.2138 226.516,15.4308 C227.684,16.6478 228.268,18.1488 228.268,19.9348 C228.268,21.7218 227.684,23.2268 226.516,24.4508 C225.348,25.6768 223.798,26.2878 221.865,26.2878 C219.932,26.2878 218.388,25.6768 217.233,24.4508" id="Fill-24" fill="#3C6CDE" mask="url(#mask-2)"></path>
                <path d="M233.712,21.0284 C233.28,21.3794 233.065,21.8444 233.065,22.4254 C233.065,23.0074 233.28,23.4664 233.712,23.8044 C234.143,24.1424 234.684,24.3114 235.336,24.3114 C236.516,24.3114 237.365,23.9434 237.887,23.2084 L237.887,21.6434 C237.35,20.8914 236.499,20.5104 235.336,20.5034 C234.684,20.5034 234.143,20.6774 233.712,21.0284 M229.891,22.3754 C229.891,21.0754 230.307,20.1094 231.137,19.4754 C231.967,18.8414 232.943,18.5244 234.066,18.5244 C235.783,18.5244 237.057,18.9834 237.887,19.9004 L237.887,18.4134 C237.887,17.8094 237.645,17.3304 237.16,16.9724 C236.676,16.6164 236.035,16.4374 235.238,16.4374 C233.951,16.4374 232.792,16.9164 231.759,17.8744 L230.514,15.6044 C231.93,14.2714 233.688,13.6054 235.787,13.6054 C237.326,13.6054 238.59,13.9644 239.578,14.6794 C240.566,15.3954 241.061,16.5634 241.061,18.1824 L241.061,25.9834 L237.887,25.9834 L237.887,24.8394 C237.024,25.8054 235.75,26.2884 234.066,26.2884 C233,26.2884 232.037,25.9404 231.18,25.2444 C230.32,24.5494 229.891,23.5914 229.891,22.3754" id="Fill-25" fill="#3C6CDE" mask="url(#mask-2)"></path>
                <path d="M244.21,25.9835 L244.21,13.9115 L247.384,13.9115 L247.384,15.5925 C247.848,15.0225 248.426,14.5485 249.117,14.1705 C249.809,13.7945 250.517,13.6055 251.241,13.6055 L251.241,16.8035 C251.005,16.7545 250.712,16.7305 250.362,16.7305 C249.825,16.7305 249.258,16.8635 248.66,17.1285 C248.061,17.3945 247.636,17.7165 247.384,18.0955 L247.384,25.9835 L244.21,25.9835 Z" id="Fill-26" fill="#3C6CDE" mask="url(#mask-2)"></path>
                <path d="M255.7335,19.9288 C255.7335,20.9788 256.0155,21.8288 256.5805,22.4798 C257.1445,23.1308 257.8845,23.4558 258.8025,23.4558 C259.3385,23.4558 259.8585,23.3278 260.3625,23.0728 C260.8655,22.8158 261.2525,22.4888 261.5195,22.0888 L261.5195,17.8048 C261.2525,17.4068 260.8635,17.0778 260.3555,16.8228 C259.8485,16.5658 259.3315,16.4378 258.8025,16.4378 C257.8845,16.4378 257.1445,16.7608 256.5805,17.4078 C256.0155,18.0548 255.7335,18.8958 255.7335,19.9288 M252.4375,19.9288 C252.4375,17.9918 252.9375,16.4538 253.9385,15.3148 C254.9395,14.1748 256.2275,13.6058 257.8045,13.6058 C259.3475,13.6058 260.5865,14.2238 261.5195,15.4608 L261.5195,9.3088 L264.6935,9.3088 L264.6935,25.9838 L261.5195,25.9838 L261.5195,24.4328 C260.5375,25.6698 259.2985,26.2878 257.8045,26.2878 C256.2275,26.2878 254.9395,25.7208 253.9385,24.5858 C252.9375,23.4498 252.4375,21.8988 252.4375,19.9288" id="Fill-27" fill="#3C6CDE" mask="url(#mask-2)"></path>
            </g>
        </g>
    </g>
</svg>