<?xml version="1.0" encoding="UTF-8"?>
<svg width="42px" height="41px" viewBox="0 0 42 41" version="1.1" xmlns="http://www.w3.org/2000/svg" xmlns:xlink="http://www.w3.org/1999/xlink">
    <!-- Generator: Sketch 53 (72520) - https://sketchapp.com -->
    <title>Group</title>
    <desc>Created with Sketch.</desc>
    <g id="Patient-Side-v1" stroke="none" stroke-width="1" fill="none" fill-rule="evenodd">
        <g id="Appointments-1" transform="translate(-261.000000, -15.000000)" fill="#3366CC">
            <g id="Group" transform="translate(261.011979, 15.020748)">
                <path d="M6.05158537,34.929835 C13.2226293,42.0852145 24.353026,42.8813091 32.4050813,37.320374 L25.5124894,30.4405831 C21.3424894,32.4369087 16.1906748,31.7107261 12.7339821,28.2620352 C8.35604715,23.8932123 8.35604715,16.810451 12.7339821,12.4416282 C13.6742786,11.5012581 14.7752082,10.735865 15.985,10.1814411 L15.985,0.267469747 C12.2213849,1.13557662 8.77884946,3.04371022 6.05158537,5.77337734 C-2.01719512,13.8263366 -2.01719512,26.8786799 6.05158537,34.929835 Z M28.5890228,12.4416282 C31.8983528,15.7437294 32.706135,20.5960726 31.0132732,24.6550275 L37.9786423,31.6051815 C43.2077545,23.6117602 42.3054976,12.7920902 35.2718715,5.77337734 C32.2103114,2.70862521 28.2562316,0.687912011 23.9746748,5.15143483e-13 L23.9746748,9.66273927 C25.7172402,10.1989165 27.3015655,11.1530413 28.5890228,12.4416282 Z" id="Shape" fill-rule="nonzero"></path>
                <ellipse id="Oval" cx="20.6617285" cy="20.4846645" rx="5.68340488" ry="5.6709901"></ellipse>
            </g>
        </g>
    </g>
</svg>