<?xml version="1.0" encoding="UTF-8"?>
<svg width="11px" height="12px" viewBox="0 0 11 12" version="1.1" xmlns="http://www.w3.org/2000/svg" xmlns:xlink="http://www.w3.org/1999/xlink">
    <!-- Generator: Sketch 55.2 (78181) - https://sketchapp.com -->
    <title>icon/attachment</title>
    <desc>Created with Sketch.</desc>
    <g id="Bi-Directional-Message-Module" stroke="none" stroke-width="1" fill="none" fill-rule="evenodd">
        <g id="BDM-1" transform="translate(-793.000000, -800.000000)" fill="#9B9B9B">
            <g id="icon/attachment" transform="translate(793.000000, 800.000000)">
                <g id="attachment">
                    <path d="M2.8861359,12 C2.11228196,12 1.38680757,11.6880453 0.843249052,11.1216013 C0.299690538,10.5551573 0,9.79967055 0,8.9935596 C0,8.18767668 0.299471626,7.43196191 0.843249052,6.86574593 L6.81823338,0.641702822 C7.67308477,-0.248325765 9.00144283,-0.208419282 9.90795745,0.735882121 C10.8144721,1.68018353 10.8534384,3.06368428 9.99858702,3.95439698 L4.38546424,9.80149485 C3.85854304,10.35038 3.00040797,10.3512922 2.47261112,9.80149485 C1.9452521,9.25192557 1.94547101,8.35802035 2.47261112,7.80890715 L6.27489378,3.84813171 C6.40317621,3.714502 6.61092371,3.714502 6.73920615,3.84813171 C6.86748858,3.98176142 6.86748858,4.19816858 6.73920615,4.33179829 L2.93692349,8.29257372 C2.66569151,8.57511162 2.66569151,9.03506234 2.93692349,9.31782828 C3.20859329,9.60036617 3.6499199,9.5999101 3.92115188,9.31782828 L9.53427465,3.4707304 C10.1242425,2.85594253 10.0854951,1.88815331 9.44364508,1.21954869 C8.80179508,0.550944078 7.87273252,0.510581521 7.28254575,1.12536939 L1.30756142,7.3494125 C0.887907102,7.78655952 0.656736022,8.37056239 0.656736022,8.9935596 C0.656736022,9.61678484 0.887907102,10.2007877 1.30756142,10.6379347 C1.72721574,11.0750817 2.28784939,11.3158889 2.8861359,11.3158889 C3.48420351,11.3158889 4.04483716,11.0750817 4.46449148,10.6379347 L10.4394758,4.41389162 C10.5677582,4.28026191 10.7755057,4.28026191 10.9037882,4.41389162 C11.0320706,4.54752133 11.0320706,4.76392849 10.9037882,4.89755819 L4.92880384,11.1216013 C4.38524533,11.6878173 3.65977094,12 2.8861359,12 Z" id="Path" fill-rule="nonzero"></path>
                </g>
            </g>
        </g>
    </g>
</svg>