<svg xmlns="http://www.w3.org/2000/svg" width="15" height="16.5" viewBox="0 0 15 16.5">
  <path id="Path" d="M6.909,7.359a.583.583,0,0,0-.826-.823L2.991,9.616a2.734,2.734,0,0,0,0,3.889,2.758,2.758,0,0,0,3.9,0l6.98-6.955a3.828,3.828,0,0,0,0-5.422,3.862,3.862,0,0,0-5.456,0L1.453,8.069a4.922,4.922,0,0,0,0,6.983,4.965,4.965,0,0,0,7.009,0l3.091-3.08a.583.583,0,0,0-.826-.823l-3.091,3.08A3.781,3.781,0,1,1,2.279,8.892L9.245,1.952a2.655,2.655,0,0,1,1.895-.781,2.69,2.69,0,0,1,1.895.781,2.636,2.636,0,0,1,.783,1.888,2.67,2.67,0,0,1-.783,1.888l-6.98,6.955a1.612,1.612,0,0,1-2.251,0,1.572,1.572,0,0,1,0-2.243Z" fill="#3c6cde"/>
</svg>
