<?xml version="1.0" encoding="UTF-8"?>
<svg width="24px" height="24px" viewBox="0 0 24 24" version="1.1" xmlns="http://www.w3.org/2000/svg" xmlns:xlink="http://www.w3.org/1999/xlink">
    <!-- Generator: Sketch 55.2 (78181) - https://sketchapp.com -->
    <title>ic_unread</title>
    <desc>Created with Sketch.</desc>
    <g id="Bi-Directional-Message-Module" stroke="none" stroke-width="1" fill="none" fill-rule="evenodd">
        <g id="BDM-1" transform="translate(-678.000000, -181.000000)" fill="#3C6CDE" fill-rule="nonzero" stroke="#3C6CDE" stroke-width="1.04">
            <g id="ic_unread" transform="translate(679.000000, 182.000000)">
                <path d="M10.9941085,0 C4.93195254,0 0,4.93195254 0,10.9941085 C0,14.0493492 1.28711186,16.9919051 3.53126102,19.0673627 C3.71270508,19.2351593 3.99579661,19.2240475 4.16359322,19.042678 C4.33138983,18.8611593 4.32035254,18.5781424 4.1388339,18.4103458 C2.07724746,16.5037288 0.894915254,13.8006373 0.894915254,10.9941085 C0.894915254,5.42542373 5.42542373,0.894915254 10.9941085,0.894915254 C16.5627932,0.894915254 21.0933017,5.42542373 21.0933017,10.9941085 C21.0933017,16.5627932 16.5627932,21.0933017 10.9941085,21.0933017 C10.7470373,21.0933017 10.5466508,21.2936881 10.5466508,21.5407593 C10.5466508,21.7878305 10.7470373,21.9882169 10.9941085,21.9882169 C17.056339,21.9882169 21.9882169,17.0562644 21.9882169,10.9941085 C21.9882169,4.93195254 17.056339,0 10.9941085,0 Z" id="Path"></path>
                <path d="M6.27820339,6.72566102 L15.7100881,6.72566102 C15.9571593,6.72566102 16.1575458,6.52527458 16.1575458,6.27820339 C16.1575458,6.0311322 15.9571593,5.83074576 15.7100881,5.83074576 L6.27820339,5.83074576 C6.0311322,5.83074576 5.83074576,6.0311322 5.83074576,6.27820339 C5.83074576,6.52527458 6.0311322,6.72566102 6.27820339,6.72566102 Z" id="Path"></path>
                <path d="M6.27820339,11.4415661 L15.7100881,11.4415661 C15.9571593,11.4415661 16.1575458,11.2411797 16.1575458,10.9941085 C16.1575458,10.7470373 15.9571593,10.5466508 15.7100881,10.5466508 L6.27820339,10.5466508 C6.0311322,10.5466508 5.83074576,10.7470373 5.83074576,10.9941085 C5.83074576,11.2411797 6.0311322,11.4415661 6.27820339,11.4415661 Z" id="Path"></path>
                <path d="M16.1575458,15.7100881 C16.1575458,15.4630169 15.9571593,15.2626305 15.7100881,15.2626305 L6.27820339,15.2626305 C6.0311322,15.2626305 5.83074576,15.4630169 5.83074576,15.7100881 C5.83074576,15.9571593 6.0311322,16.1575458 6.27820339,16.1575458 L15.7100881,16.1575458 C15.9571593,16.1575458 16.1575458,15.9571593 16.1575458,15.7100881 Z" id="Path"></path>
            </g>
        </g>
    </g>
</svg>