<?xml version="1.0" encoding="UTF-8"?>
<svg width="158px" height="134px" viewBox="0 0 158 134" version="1.1" xmlns="http://www.w3.org/2000/svg" xmlns:xlink="http://www.w3.org/1999/xlink">
    <!-- Generator: Sketch 55.2 (78181) - https://sketchapp.com -->
    <title>Group 8</title>
    <desc>Created with Sketch.</desc>
    <defs>
        <polygon id="path-1" points="0.322944321 0.357162815 125.932397 0.357162815 125.932397 126.65974 0.322944321 126.65974"></polygon>
        <polygon id="path-3" points="0 0.304819459 157.495897 0.304819459 157.495897 129.722504 0 129.722504"></polygon>
    </defs>
    <g id="Bi-Directional-Message-Module" stroke="none" stroke-width="1" fill="none" fill-rule="evenodd">
        <g id="BDM-1" transform="translate(-349.000000, -427.000000)">
            <g id="Group-8" transform="translate(349.000000, 427.000000)">
                <g id="Group">
                    <g id="Group-4">
                        <g id="Group-7">
                            <g id="Group-3" transform="translate(16.105109, 6.940260)">
                                <mask id="mask-2" fill="white">
                                    <use xlink:href="#path-1"></use>
                                </mask>
                                <g id="Clip-2"></g>
                                <path d="M125.932397,63.5082971 C125.932397,98.3856233 97.8141203,126.659873 63.1272317,126.659873 C28.4412209,126.659873 0.322944321,98.3856233 0.322944321,63.5082971 C0.322944321,28.6309709 28.4412209,0.357162815 63.1272317,0.357162815 C97.8141203,0.357162815 125.932397,28.6309709 125.932397,63.5082971" id="Fill-1" fill="#3C6CDE" opacity="0.0981910342" mask="url(#mask-2)"></path>
                            </g>
                            <g id="Group-6">
                                <mask id="mask-4" fill="white">
                                    <use xlink:href="#path-3"></use>
                                </mask>
                                <g id="Clip-5"></g>
                                <path d="M155.176516,76.6508312 C150.596897,67.9693098 149.800995,57.7315415 152.995139,48.2975685 C155.064572,42.1858908 155.388552,32.7443933 153.680413,26.4786843 C148.192948,6.35016061 122.812324,-5.64214789 98.3404245,3.31822316 C75.9028379,11.5336671 70.4092267,45.4285147 53.1807811,41.7441574 C12.6595822,33.0776851 -1.93531922,62.1988911 0.202158217,85.905101 C1.58324345,101.217934 14.3207476,120.157584 41.528917,118.168899 C49.5397382,117.583315 57.4074462,119.568902 64.1864412,123.521928 C75.7641148,130.272747 94.166439,131.855552 113.283012,126.557407 C142.037768,118.588059 161.516075,98.0713586 156.788953,80.7322173 C156.399562,79.3043297 155.858718,77.9428349 155.176516,76.6508312" id="Fill-4" fill="#7C99D6" opacity="0.142243304" mask="url(#mask-4)"></path>
                            </g>
                        </g>
                    </g>
                </g>
                <g id="Group-5" transform="translate(40.000000, 20.800000)">
                    <g id="email-2" transform="translate(0.000000, -0.000000)" fill-rule="nonzero">
                        <path d="M82.0287,83.5351263 C80.2733916,84.3107815 78.3164122,84.7420907 76.2723,84.7420907 C74.2288904,84.7420907 72.2719112,84.3107815 70.5159,83.5351263 C65.4361862,81.3231764 61.8813,76.2659882 61.8813,70.3791434 L61.8813,76.1243223 C61.8813,77.1152817 61.9824867,78.0774868 62.169401,78.9969118 C63.1194318,83.6213882 66.2836249,87.4421566 70.5159,89.2803053 C72.2719112,90.0559604 74.2288904,90.4872697 76.2723,90.4872697 C78.3164122,90.4872697 80.2733916,90.0559604 82.0287,89.2803053 C87.1091166,87.0683554 90.6633,82.0111672 90.6633,76.1243223 L90.6633,70.3791434 C90.6633,76.2673907 87.1091166,81.3231764 82.0287,83.5351263 Z" id="Path" fill="#94C1FF"></path>
                        <path d="M90.6633,70.3791434 C90.6633,76.2673907 87.1091166,81.3231764 82.0287,83.5351263 C80.2733916,84.3107815 78.3164122,84.7420907 76.2723,84.7420907 C74.2288904,84.7420907 72.2719112,84.3107815 70.5159,83.5351263 C65.4361862,81.3231764 61.8813,76.2659882 61.8813,70.3791434 C61.8813,69.6034882 61.9389201,68.8418592 62.0689171,68.0949579 C63.1622958,61.243804 69.1056101,56.016196 76.2723,56.016196 C84.2161601,56.016196 90.6633,62.4507684 90.6633,70.3791434 L90.6633,70.3791434 Z" id="Path" fill="#D7E9FF"></path>
                        <path d="M61.8813,76.1243223 C61.8813,77.1152817 61.9824867,78.0774868 62.169401,78.9969118 L1.4391,78.9969118 L33.2433505,54.5799013 L38.8557,58.8887855 L44.4687521,54.5799013 L62.0675116,68.0949579 C61.9389201,68.8418592 61.8813,69.6034882 61.8813,70.3791434 L61.8813,76.1243223 Z" id="Path" fill="#D7E9FF"></path>
                        <polygon id="Path" fill="#D7E9FF" points="33.2433505 54.5799013 1.4391 78.9969118 1.4391 30.1628907 7.13858252 34.5433093"></polygon>
                        <polygon id="Path" fill="#D7E9FF" points="7.1955 25.7389907 7.1955 34.471775 7.13858252 34.5433093 1.4391 30.1628907"></polygon>
                        <polygon id="Path" fill="#D7E9FF" points="76.2723 30.1628907 70.5159 34.5860895 70.5159 25.7389907"></polygon>
                        <path d="M76.2723,30.1628907 L76.2723,56.016196 C69.1056101,56.016196 63.1622958,61.243804 62.0689171,68.0949579 L44.4687521,54.5799013 L70.5159,34.5860895 L76.2723,30.1628907 Z" id="Path" fill="#D7E9FF"></path>
                        <polygon id="Path" fill="#D7E9FF" points="70.5159 10.0547644 61.8813 10.0547644 61.8813 1.43699601"></polygon>
                        <polygon id="Path" fill="#94C1FF" points="18.7083 17.2362381 59.0031 17.2362381 59.0031 22.9814171 18.7083 22.9814171"></polygon>
                        <path d="M70.5159,25.7389907 L70.5159,34.5860895 L44.4687521,54.5799013 L38.8557,58.8887855 L33.2433505,54.5799013 L7.13858252,34.5433093 L7.1955,34.471775 L7.1955,1.43699601 L61.8813,1.43699601 L61.8813,10.0547644 L70.5159,10.0547644 L70.5159,25.7389907 Z M59.0031,22.9814171 L59.0031,17.2362381 L18.7083,17.2362381 L18.7083,22.9814171 L59.0031,22.9814171 Z" id="Shape" fill="#D7E9FF"></path>
                        <g id="Group" fill="#116FFF">
                            <path d="M1.4391,80.4332065 C0.643659961,80.4332065 0,79.7908013 0,78.9969118 L0,30.1628907 C0,29.3697027 0.643659961,28.726596 1.4391,28.726596 C2.23524268,28.726596 2.8782,29.3697027 2.8782,30.1628907 L2.8782,78.9969118 C2.8782,79.7908013 2.23524268,80.4332065 1.4391,80.4332065 Z" id="Path"></path>
                            <path d="M76.2723,86.1783855 C67.5442429,86.1783855 60.4422,79.0901869 60.4422,70.3791434 C60.4422,61.6673987 67.5442429,54.5799013 76.2723,54.5799013 C85.00106,54.5799013 92.1024,61.6673987 92.1024,70.3791434 C92.1024,79.0901869 85.00106,86.1783855 76.2723,86.1783855 Z M76.2723,57.4524907 C69.1302041,57.4524907 63.3204,63.2502684 63.3204,70.3791434 C63.3204,77.5073171 69.1302041,83.305796 76.2723,83.305796 C83.4150985,83.305796 89.2242,77.5073171 89.2242,70.3791434 C89.2242,63.2502684 83.4150985,57.4524907 76.2723,57.4524907 Z" id="Shape"></path>
                            <path d="M76.2723,91.9235644 C67.5442429,91.9235644 60.4422,84.8353659 60.4422,76.1243223 C60.4422,75.3297316 61.08586,74.6880276 61.8813,74.6880276 C62.6774427,74.6880276 63.3204,75.3297316 63.3204,76.1243223 C63.3204,83.252496 69.1302041,89.050975 76.2723,89.050975 C83.4150985,89.050975 89.2242,83.252496 89.2242,76.1243223 C89.2242,75.3297316 89.86786,74.6880276 90.6633,74.6880276 C91.4594427,74.6880276 92.1024,75.3297316 92.1024,76.1243223 C92.1024,84.8353659 85.00106,91.9235644 76.2723,91.9235644 Z" id="Path"></path>
                            <path d="M61.8813,77.5606171 C61.08586,77.5606171 60.4422,76.9182118 60.4422,76.1243223 L60.4422,70.3791434 C60.4422,69.5845526 61.08586,68.9428486 61.8813,68.9428486 C62.6774427,68.9428486 63.3204,69.5845526 63.3204,70.3791434 L63.3204,76.1243223 C63.3204,76.9182118 62.6774427,77.5606171 61.8813,77.5606171 Z" id="Path"></path>
                            <path d="M90.6633,77.5606171 C89.86786,77.5606171 89.2242,76.9182118 89.2242,76.1243223 L89.2242,70.3791434 C89.2242,69.5845526 89.86786,68.9428486 90.6633,68.9428486 C91.4594427,68.9428486 92.1024,69.5845526 92.1024,70.3791434 L92.1024,76.1243223 C92.1024,76.9182118 91.4594427,77.5606171 90.6633,77.5606171 Z" id="Path"></path>
                            <path d="M62.1708064,80.4332065 L1.4391,80.4332065 C0.643659961,80.4332065 0,79.7908013 0,78.9969118 C0,78.2023211 0.643659961,77.5606171 1.4391,77.5606171 L62.1708064,77.5606171 C62.9669491,77.5606171 63.6099064,78.2023211 63.6099064,78.9969118 C63.6099064,79.7908013 62.9669491,80.4332065 62.1708064,80.4332065 Z" id="Path"></path>
                            <path d="M76.2723,57.4524907 C75.47686,57.4524907 74.8332,56.8100855 74.8332,56.016196 L74.8332,30.1628907 C74.8332,29.3697027 75.47686,28.726596 76.2723,28.726596 C77.0684427,28.726596 77.7114,29.3697027 77.7114,30.1628907 L77.7114,56.016196 C77.7114,56.8100855 77.0684427,57.4524907 76.2723,57.4524907 Z" id="Path"></path>
                            <path d="M38.8542947,60.3250802 C38.5479236,60.3250802 38.2401475,60.2282987 37.9794511,60.0277223 L0.562851078,31.3018276 C-0.0674578125,30.8186211 -0.185508984,29.9167289 0.297938672,29.2876486 C0.78349443,28.6585684 1.68714795,28.5393448 2.31605156,29.0246552 L39.7326516,57.7505499 C40.3629605,58.2351592 40.4810116,59.1370514 39.9968613,59.7647289 C39.713679,60.1322185 39.2864462,60.3250802 38.8542947,60.3250802 Z" id="Path"></path>
                            <path d="M38.8571053,60.3250802 C38.4256564,60.3250802 37.9984236,60.1322185 37.7145387,59.7633263 C37.231091,59.1342461 37.3477369,58.2337566 37.9794511,57.7491474 L75.3960511,29.0232526 C76.0249547,28.5379421 76.9272029,28.6585684 77.4134613,29.2862461 C77.8976116,29.9153263 77.7809659,30.8172185 77.1492516,31.300425 L39.7326516,60.0263198 C39.4719552,60.2282987 39.164179,60.3250802 38.8571053,60.3250802 Z" id="Path"></path>
                            <path d="M76.2708947,31.5991855 C75.9645236,31.5991855 75.6567475,31.502404 75.3960511,31.300425 L69.6424618,26.8835381 C69.0121529,26.4010328 68.8941018,25.4991408 69.3775494,24.8700606 C69.8631052,24.2409802 70.7667587,24.1217566 71.3956623,24.6070672 L77.1492516,29.0232526 C77.7795605,29.5064592 77.8976116,30.4083514 77.4134613,31.0374316 C77.130279,31.4063238 76.7030462,31.5991855 76.2708947,31.5991855 Z" id="Path"></path>
                            <path d="M1.44050528,31.5991855 C1.00905645,31.5991855 0.581823633,31.4063238 0.297938672,31.0388341 C-0.185508984,30.4097539 -0.0688630937,29.5078619 0.562851078,29.0246552 L6.31925108,24.6056644 C6.94955997,24.1203539 7.85180839,24.2395777 8.33666133,24.8686579 C8.82081162,25.4977381 8.70416591,26.3996303 8.07245156,26.8821356 L2.31605156,31.3018276 C2.05535518,31.502404 1.747579,31.5991855 1.44050528,31.5991855 Z" id="Path"></path>
                            <path d="M62.0647009,69.5242396 C61.7576273,69.5242396 61.449851,69.4281592 61.1891548,69.2268817 L43.5903951,55.7174356 C42.9600862,55.2328263 42.8420351,54.3309343 43.3261854,53.7032566 C43.8110385,53.0727737 44.7132867,52.9549526 45.3435956,53.4388606 L62.9423553,66.949008 C63.5726642,67.4329158 63.6907153,68.334808 63.2072677,68.9624855 C62.9233827,69.3320789 62.4961499,69.5242396 62.0647009,69.5242396 L62.0647009,69.5242396 Z" id="Path"></path>
                            <path d="M1.44050528,80.4332065 C1.00905645,80.4332065 0.581823633,80.2403448 0.297938672,79.8714526 C-0.185508984,79.2423724 -0.0688630937,78.3418829 0.562851078,77.8572737 L32.3671018,53.4402632 C32.9974106,52.9577579 33.8996589,53.0727737 34.3845118,53.7046592 C34.8679595,54.3337394 34.7520164,55.234229 34.1195994,55.7188381 L2.31605156,80.1358486 C2.05535518,80.336425 1.747579,80.4332065 1.44050528,80.4332065 Z" id="Path"></path>
                            <path d="M7.1955,35.9080697 C6.40005996,35.9080697 5.7564,35.2642619 5.7564,34.471775 L5.7564,1.43699601 C5.7564,0.643807985 6.40005996,0.000701315789 7.1955,0.000701315789 C7.99164268,0.000701315789 8.6346,0.643807985 8.6346,1.43699601 L8.6346,34.471775 C8.6346,35.2642619 7.99164268,35.9080697 7.1955,35.9080697 Z" id="Path"></path>
                            <path d="M70.5159,36.0181764 C69.72046,36.0181764 69.0768,35.3750697 69.0768,34.5818817 L69.0768,10.0547644 C69.0768,9.26157641 69.72046,8.61846969 70.5159,8.61846969 C71.3120427,8.61846969 71.955,9.26157641 71.955,10.0547644 L71.955,34.5818817 C71.955,35.3750697 71.3120427,36.0181764 70.5159,36.0181764 Z" id="Path"></path>
                            <path d="M70.5159,11.4910592 C70.1476928,11.4910592 69.7794855,11.3500947 69.4984113,11.0695684 L60.8638113,2.4518 C60.3016629,1.89074737 60.3016629,0.982543376 60.8638113,0.421490745 C61.4266624,-0.140263158 62.3366402,-0.140263158 62.8987887,0.421490745 L71.5333887,9.03925917 C72.0962397,9.6003118 72.0962397,10.5085158 71.5333887,11.0695684 C71.2530171,11.3500947 70.8848099,11.4910592 70.5159,11.4910592 Z" id="Path"></path>
                            <path d="M61.8813,2.87329074 L7.1955,2.87329074 C6.40005996,2.87329074 5.7564,2.22948294 5.7564,1.43699601 C5.7564,0.643807985 6.40005996,0.000701315789 7.1955,0.000701315789 L61.8813,0.000701315789 C62.6774427,0.000701315789 63.3204,0.643807985 63.3204,1.43699601 C63.3204,2.22948294 62.6774427,2.87329074 61.8813,2.87329074 Z" id="Path"></path>
                            <path d="M61.8813,11.4910592 C61.08586,11.4910592 60.4422,10.8472514 60.4422,10.0547644 L60.4422,1.43699601 C60.4422,0.643807985 61.08586,0.000701315789 61.8813,0.000701315789 C62.6774427,0.000701315789 63.3204,0.643807985 63.3204,1.43699601 L63.3204,10.0547644 C63.3204,10.8472514 62.6774427,11.4910592 61.8813,11.4910592 Z" id="Path"></path>
                            <path d="M70.5159,11.4910592 L61.8813,11.4910592 C61.08586,11.4910592 60.4422,10.8472514 60.4422,10.0547644 C60.4422,9.26157641 61.08586,8.61846969 61.8813,8.61846969 L70.5159,8.61846969 C71.3120427,8.61846969 71.955,9.26157641 71.955,10.0547644 C71.955,10.8472514 71.3120427,11.4910592 70.5159,11.4910592 Z" id="Path"></path>
                            <path d="M59.0031,24.4177118 L18.7083,24.4177118 C17.91286,24.4177118 17.2692,23.773904 17.2692,22.9814171 L17.2692,17.2362381 C17.2692,16.4430501 17.91286,15.7999434 18.7083,15.7999434 L59.0031,15.7999434 C59.7992427,15.7999434 60.4422,16.4430501 60.4422,17.2362381 L60.4422,22.9814171 C60.4422,23.773904 59.7992427,24.4177118 59.0031,24.4177118 Z M20.1474,21.5451223 L57.564,21.5451223 L57.564,18.6725328 L20.1474,18.6725328 L20.1474,21.5451223 Z" id="Shape"></path>
                            <path d="M59.0031,30.1628907 L18.7083,30.1628907 C17.91286,30.1628907 17.2692,29.5190829 17.2692,28.726596 C17.2692,27.933408 17.91286,27.2903013 18.7083,27.2903013 L59.0031,27.2903013 C59.7992427,27.2903013 60.4422,27.933408 60.4422,28.726596 C60.4422,29.5190829 59.7992427,30.1628907 59.0031,30.1628907 Z" id="Path"></path>
                            <path d="M59.0031,35.9080697 L18.7083,35.9080697 C17.91286,35.9080697 17.2692,35.2642619 17.2692,34.471775 C17.2692,33.6785869 17.91286,33.0354802 18.7083,33.0354802 L59.0031,33.0354802 C59.7992427,33.0354802 60.4422,33.6785869 60.4422,34.471775 C60.4422,35.2642619 59.7992427,35.9080697 59.0031,35.9080697 Z" id="Path"></path>
                            <path d="M48.9294,41.6532486 L28.782,41.6532486 C27.98656,41.6532486 27.3429,41.0094408 27.3429,40.2169539 C27.3429,39.4237659 27.98656,38.7806592 28.782,38.7806592 L48.9294,38.7806592 C49.7255427,38.7806592 50.3685,39.4237659 50.3685,40.2169539 C50.3685,41.0094408 49.7255427,41.6532486 48.9294,41.6532486 Z" id="Path"></path>
                            <path d="M70.5159,90.7271198 C69.72046,90.7271198 69.0768,90.0847145 69.0768,89.290825 L69.0768,83.5456461 C69.0768,82.7510552 69.72046,82.1093514 70.5159,82.1093514 C71.3120427,82.1093514 71.955,82.7510552 71.955,83.5456461 L71.955,89.290825 C71.955,90.0847145 71.3120427,90.7271198 70.5159,90.7271198 Z" id="Path"></path>
                            <path d="M82.0287,90.7271198 C81.23326,90.7271198 80.5896,90.0847145 80.5896,89.290825 L80.5896,83.5456461 C80.5896,82.7510552 81.23326,82.1093514 82.0287,82.1093514 C82.8248427,82.1093514 83.4678,82.7510552 83.4678,83.5456461 L83.4678,89.290825 C83.4678,90.0847145 82.8248427,90.7271198 82.0287,90.7271198 Z" id="Path"></path>
                        </g>
                    </g>
                    <text id="0" font-family="Lato-Black, Lato" font-size="14.976" font-weight="700" fill="#3C6CDE">
                        <tspan x="72.6336" y="74.904">0</tspan>
                    </text>
                </g>
            </g>
        </g>
    </g>
</svg>