<?xml version="1.0" encoding="UTF-8"?>
<svg width="59px" height="59px" viewBox="0 0 59 59" version="1.1" xmlns="http://www.w3.org/2000/svg" xmlns:xlink="http://www.w3.org/1999/xlink">
    <!-- Generator: Sketch 51.3 (57544) - http://www.bohemiancoding.com/sketch -->
    <title>Group 6</title>
    <desc>Created with Sketch.</desc>
    <defs>
        <polygon id="path-1" points="0 0.00725409836 58.9606895 0.00725409836 58.9606895 58.9999815 0 58.9999815"></polygon>
    </defs>
    <g id="Web-App" stroke="none" stroke-width="1" fill="none" fill-rule="evenodd">
        <g id="Patient-medication-" transform="translate(-496.000000, -224.000000)">
            <g id="Group-6" transform="translate(496.000000, 224.000000)">
                <g>
                    <g id="Group-3">
                        <mask id="mask-2" fill="white">
                            <use xlink:href="#path-1"></use>
                        </mask>
                        <g id="Clip-2"></g>
                        <path d="M40.7911799,17.9222518 C45.512552,22.6768642 46.6655903,29.6643571 44.249952,35.5090878 L54.1884334,45.5175328 C61.649395,34.0070059 60.3620973,18.4267916 50.3261287,8.32038173 C45.7760624,3.7382096 40.1089066,0.967144028 34.2070543,0.00725409836 L34.2070543,13.9204075 C36.6164497,14.6682705 38.8845194,16.0021956 40.7911799,17.9222518 M8.63460198,50.3047541 C18.8662997,60.6083372 34.7474531,61.7548302 46.2368113,53.7443021 L36.4016485,43.8400398 C30.4515671,46.7150808 23.1007845,45.6691089 18.169345,40.7030222 C11.9225485,34.4123372 11.9223427,24.2129368 18.169345,17.9220445 C19.5531008,16.5285667 21.1273717,15.44363 22.8078427,14.667856 L22.8078427,0.391514052 C17.6136473,1.60142857 12.682002,4.24454567 8.63460198,8.32038173 C-2.87821895,19.9140199 -2.87821895,38.7110468 8.63460198,50.3047541" id="Fill-1" fill="#3366CC" mask="url(#mask-2)"></path>
                    </g>
                    <path d="M38,29.500036 C38,34.1943755 34.1944474,38 29.499964,38 C24.8055526,38 21,34.1943755 21,29.500036 C21,24.8056245 24.8055526,21 29.499964,21 C34.1944474,21 38,24.8056245 38,29.500036" id="Fill-4" fill="#3366CC"></path>
                </g>
            </g>
        </g>
    </g>
</svg>