<?xml version="1.0" encoding="UTF-8"?>
<svg xmlns="http://www.w3.org/2000/svg" xmlns:xlink="http://www.w3.org/1999/xlink" width="135px" height="42px" viewBox="0 0 135 42">
  <!-- Generator: Sketch 46.2 (44496) - http://www.bohemiancoding.com/sketch -->
  <title>Logo App Store</title>
  <desc>Created with Sketch.</desc>
  <defs></defs>
  <g id="Page-1" stroke="none" stroke-width="1" fill="none" fill-rule="evenodd">
    <g id="Logo-App-Store" fill-rule="nonzero">
      <path d="M133.8,36.9 C133.8,39.1 132.1,40.9 130,40.9 L4.5,40.9 C2.4,40.9 0.7,39.1 0.7,36.9 L0.7,4.9 C0.7,2.7 2.4,0.9 4.5,0.9 L130,0.9 C132.1,0.9 133.8,2.7 133.8,4.9 L133.8,36.9 Z" id="Fill-4" stroke="#A6A6A6" fill="#000000"></path>
      <path d="M29.9,20.8 C29.9,17.6 32.5,16 32.7,15.9 C31.2,13.7 28.8,13.4 28,13.4 C26,13.2 24.1,14.6 23.1,14.6 C22.1,14.6 20.5,13.4 18.9,13.5 C16.8,13.5 14.8,14.8 13.7,16.7 C11.4,20.6 13.1,26.4 15.3,29.6 C16.4,31.2 17.7,32.9 19.3,32.8 C20.9,32.7 21.5,31.8 23.5,31.8 C25.4,31.8 26,32.8 27.7,32.8 C29.4,32.8 30.5,31.2 31.6,29.7 C32.9,27.9 33.4,26.2 33.4,26.1 C33.3,25.9 29.9,24.6 29.9,20.8" id="Fill-6" fill="#FFFFFF"></path>
      <path d="M26.7,11.3 C27.6,10.2 28.2,8.7 28,7.2 C26.7,7.3 25.2,8.1 24.2,9.1 C23.4,10 22.7,11.6 22.9,13 C24.3,13.2 25.8,12.4 26.7,11.3" id="Fill-8" fill="#FFFFFF"></path>
      <path d="M49.5,27 L48.4,23.5 C48.3,23.1 48.1,22.3 47.7,21 L47.7,21 C47.6,21.6 47.4,22.4 47.1,23.5 L46,27 L49.5,27 Z M53.4,32.5 L51.1,32.5 L49.9,28.6 L45.6,28.6 L44.4,32.5 L42.2,32.5 L46.5,19.2 L49.1,19.2 L53.4,32.5 Z" id="Fill-10" fill="#FFFFFF"></path>
      <path d="M62.2,27.7 C62.2,26.8 62,26 61.6,25.4 C61.1,24.8 60.5,24.5 59.7,24.5 C59.2,24.5 58.7,24.7 58.3,25 C57.9,25.4 57.6,25.8 57.5,26.4 C57.4,26.7 57.4,26.9 57.4,27 L57.4,28.6 C57.4,29.3 57.6,29.9 58,30.4 C58.4,30.9 59,31.1 59.7,31.1 C60.5,31.1 61.1,30.8 61.6,30.2 C62,29.5 62.2,28.7 62.2,27.7 M64.4,27.6 C64.4,29.2 64,30.5 63.1,31.5 C62.3,32.3 61.3,32.8 60.2,32.8 C58.9,32.8 58,32.3 57.5,31.4 L57.5,31.4 L57.5,36.5 L55.4,36.5 L55.4,26.1 C55.4,25.1 55.4,24 55.3,22.9 L57.2,22.9 L57.3,24.4 L57.3,24.4 C58,23.3 59.1,22.7 60.5,22.7 C61.6,22.7 62.6,23.1 63.3,24 C64,24.9 64.4,26.1 64.4,27.6" id="Fill-12" fill="#FFFFFF"></path>
      <path d="M73.3,27.7 C73.3,26.8 73.1,26 72.7,25.4 C72.2,24.8 71.6,24.5 70.8,24.5 C70.3,24.5 69.8,24.7 69.4,25 C69,25.4 68.7,25.8 68.6,26.4 C68.5,26.7 68.5,26.9 68.5,27 L68.5,28.6 C68.5,29.3 68.7,29.9 69.1,30.4 C69.5,30.9 70.1,31.1 70.8,31.1 C71.6,31.1 72.2,30.8 72.7,30.2 C73.1,29.5 73.3,28.7 73.3,27.7 M75.4,27.6 C75.4,29.2 75,30.5 74.1,31.5 C73.3,32.3 72.3,32.8 71.2,32.8 C69.9,32.8 69,32.3 68.5,31.4 L68.5,31.4 L68.5,36.5 L66.4,36.5 L66.4,26.1 C66.4,25.1 66.4,24 66.3,22.9 L68.2,22.9 L68.3,24.4 L68.3,24.4 C69,23.3 70.1,22.7 71.5,22.7 C72.6,22.7 73.6,23.1 74.3,24 C75.1,24.9 75.4,26.1 75.4,27.6" id="Fill-14" fill="#FFFFFF"></path>
      <path d="M87.8,28.8 C87.8,29.9 87.4,30.9 86.6,31.6 C85.7,32.4 84.5,32.8 83,32.8 C81.6,32.8 80.4,32.5 79.6,32 L80.1,30.2 C81,30.8 82.1,31.1 83.2,31.1 C84,31.1 84.6,30.9 85.1,30.6 C85.5,30.2 85.8,29.8 85.8,29.1 C85.8,28.6 85.6,28.1 85.2,27.7 C84.8,27.3 84.2,27 83.4,26.7 C81.1,25.8 79.9,24.6 79.9,22.9 C79.9,21.8 80.3,20.9 81.1,20.2 C81.9,19.5 83,19.2 84.4,19.2 C85.6,19.2 86.6,19.4 87.4,19.8 L86.9,21.5 C86.1,21.1 85.3,20.9 84.4,20.9 C83.6,20.9 83.1,21.1 82.6,21.5 C82.2,21.8 82.1,22.2 82.1,22.7 C82.1,23.2 82.3,23.7 82.7,24 C83.1,24.3 83.7,24.7 84.6,25 C85.7,25.5 86.6,26 87.1,26.6 C87.5,27.1 87.8,27.9 87.8,28.8" id="Fill-16" fill="#FFFFFF"></path>
      <path d="M94.8,24.5 L92.5,24.5 L92.5,29.2 C92.5,30.4 92.9,31 93.7,31 C94.1,31 94.4,31 94.6,30.9 L94.7,32.5 C94.3,32.7 93.7,32.7 93,32.7 C92.2,32.7 91.5,32.4 91,31.9 C90.5,31.4 90.3,30.5 90.3,29.3 L90.3,24.5 L89,24.5 L89,22.9 L90.4,22.9 L90.4,21.1 L92.5,20.5 L92.5,22.9 L94.8,22.9 L94.8,24.5 Z" id="Fill-18" fill="#FFFFFF"></path>
      <path d="M103.2,27.7 C103.2,26.8 103,26.1 102.6,25.4 C102.2,24.6 101.5,24.3 100.7,24.3 C99.8,24.3 99.2,24.7 98.7,25.4 C98.3,26 98.1,26.8 98.1,27.7 C98.1,28.6 98.3,29.3 98.7,30 C99.2,30.8 99.8,31.1 100.6,31.1 C101.4,31.1 102.1,30.7 102.5,29.9 C103,29.3 103.2,28.6 103.2,27.7 M105.4,27.6 C105.4,29.1 105,30.3 104.1,31.2 C103.2,32.2 102,32.7 100.6,32.7 C99.2,32.7 98.1,32.2 97.2,31.3 C96.4,30.4 95.9,29.2 95.9,27.8 C95.9,26.3 96.3,25.1 97.2,24.1 C98.1,23.2 99.2,22.7 100.7,22.7 C102.1,22.7 103.2,23.2 104.1,24.1 C105,25 105.4,26.2 105.4,27.6" id="Fill-20" fill="#FFFFFF"></path>
      <path d="M112.4,24.8 C112.2,24.8 112,24.7 111.7,24.7 C110.9,24.7 110.4,25 110,25.6 C109.6,26.1 109.5,26.7 109.5,27.5 L109.5,32.5 L107.4,32.5 L107.4,25.9 C107.4,24.8 107.4,23.8 107.3,22.9 L109.2,22.9 L109.3,24.7 L109.4,24.7 C109.6,24.1 110,23.6 110.5,23.2 C111,22.9 111.5,22.7 112,22.7 C112.2,22.7 112.4,22.7 112.5,22.7 L112.5,24.8 L112.4,24.8 Z" id="Fill-22" fill="#FFFFFF"></path>
      <path d="M119.9,26.7 C119.9,26.1 119.8,25.5 119.5,25.1 C119.1,24.5 118.6,24.2 117.8,24.2 C117.1,24.2 116.5,24.5 116.1,25.1 C115.7,25.6 115.5,26.1 115.5,26.8 L119.9,26.7 L119.9,26.7 Z M121.9,27.3 C121.9,27.7 121.9,28 121.8,28.3 L115.4,28.3 C115.4,29.2 115.7,30 116.3,30.5 C116.8,30.9 117.5,31.2 118.4,31.2 C119.3,31.2 120.2,31 121,30.7 L121.3,32.2 C120.4,32.6 119.3,32.8 118.1,32.8 C116.6,32.8 115.4,32.4 114.6,31.5 C113.8,30.6 113.3,29.5 113.3,28 C113.3,26.6 113.7,25.3 114.5,24.4 C115.3,23.4 116.4,22.9 117.9,22.9 C119.3,22.9 120.3,23.4 121,24.4 C121.6,25 121.9,26.1 121.9,27.3 L121.9,27.3 Z" id="Fill-24" fill="#FFFFFF"></path>
      <path d="M47.7,11 C47.7,10.2 47.5,9.7 47.1,9.2 C46.7,8.8 46.1,8.6 45.3,8.6 C45,8.6 44.7,8.6 44.5,8.7 L44.5,13.6 C44.6,13.6 44.9,13.6 45.2,13.6 C46,13.6 46.6,13.4 47.1,12.9 C47.5,12.5 47.7,11.9 47.7,11 M48.8,11 C48.8,12.2 48.4,13.1 47.7,13.7 C47,14.2 46.1,14.5 44.9,14.5 C44.3,14.5 43.8,14.5 43.4,14.4 L43.4,8 C44,7.9 44.6,7.9 45.2,7.9 C46.3,7.9 47.2,8.1 47.8,8.6 C48.5,9.2 48.8,10 48.8,11" id="Fill-26" fill="#FFFFFF"></path>
      <path d="M53.6,12.1 C53.6,11.7 53.5,11.3 53.3,11 C53.1,10.6 52.8,10.4 52.4,10.4 C52,10.4 51.7,10.6 51.4,11 C51.2,11.3 51.1,11.7 51.1,12.1 C51.1,12.5 51.2,12.9 51.4,13.2 C51.6,13.6 51.9,13.8 52.4,13.8 C52.8,13.8 53.1,13.6 53.3,13.2 C53.5,12.9 53.6,12.5 53.6,12.1 M54.7,12 C54.7,12.7 54.5,13.3 54.1,13.8 C53.7,14.3 53.1,14.5 52.4,14.5 C51.7,14.5 51.2,14.3 50.7,13.8 C50.3,13.3 50.1,12.8 50.1,12.1 C50.1,11.4 50.3,10.8 50.7,10.3 C51.1,9.8 51.7,9.6 52.4,9.6 C53.1,9.6 53.6,9.8 54.1,10.3 C54.5,10.8 54.7,11.3 54.7,12" id="Fill-28" fill="#FFFFFF"></path>
      <path d="M62.5,9.7 L61,14.4 L60,14.4 L59.4,12.4 C59.2,11.9 59.1,11.4 59,10.9 L59,10.9 C58.9,11.4 58.8,11.9 58.6,12.4 L58,14.4 L57,14.4 L55.6,9.7 L56.7,9.7 L57.2,11.9 C57.3,12.4 57.4,12.9 57.5,13.4 L57.5,13.4 C57.6,13 57.7,12.5 57.9,11.9 L58.6,9.7 L59.5,9.7 L60.1,11.9 C60.3,12.4 60.4,13 60.5,13.5 L60.5,13.5 C60.6,13 60.7,12.5 60.8,11.9 L61.4,9.7 L62.5,9.7 L62.5,9.7 Z" id="Fill-30" fill="#FFFFFF"></path>
      <path d="M67.9,14.4 L66.9,14.4 L66.9,11.7 C66.9,10.9 66.6,10.5 65.9,10.5 C65.6,10.5 65.3,10.6 65.1,10.8 C64.9,11 64.8,11.3 64.8,11.6 L64.8,14.4 L63.8,14.4 L63.8,11 C63.8,10.6 63.8,10.1 63.8,9.7 L64.7,9.7 L64.7,10.4 L64.7,10.4 C64.8,10.2 65,10 65.2,9.8 C65.5,9.6 65.8,9.5 66.1,9.5 C66.5,9.5 66.9,9.6 67.2,9.9 C67.6,10.2 67.7,10.8 67.7,11.5 L67.7,14.4 L67.9,14.4 Z" id="Fill-32" fill="#FFFFFF"></path>
      <polygon id="Fill-34" fill="#FFFFFF" points="69.8 14.4 70.8 14.4 70.8 7.6 69.8 7.6"></polygon>
      <path d="M75.9,12.1 C75.9,11.7 75.8,11.3 75.6,11 C75.4,10.6 75.1,10.4 74.7,10.4 C74.3,10.4 74,10.6 73.7,11 C73.5,11.3 73.4,11.7 73.4,12.1 C73.4,12.5 73.5,12.9 73.7,13.2 C73.9,13.6 74.2,13.8 74.7,13.8 C75.1,13.8 75.4,13.6 75.6,13.2 C75.8,12.9 75.9,12.5 75.9,12.1 M77,12 C77,12.7 76.8,13.3 76.4,13.8 C76,14.3 75.4,14.5 74.7,14.5 C74,14.5 73.5,14.3 73,13.8 C72.6,13.3 72.4,12.8 72.4,12.1 C72.4,11.4 72.6,10.8 73,10.3 C73.4,9.8 74,9.6 74.7,9.6 C75.4,9.6 75.9,9.8 76.4,10.3 C76.8,10.8 77,11.3 77,12" id="Fill-36" fill="#FFFFFF"></path>
      <path d="M81,12.8 L81,12.1 C79.8,12.1 79.3,12.4 79.3,13 C79.3,13.2 79.4,13.4 79.5,13.6 C79.6,13.7 79.8,13.8 80,13.8 C80.2,13.8 80.4,13.7 80.6,13.6 C80.8,13.5 80.9,13.3 81,13 C81,12.9 81,12.9 81,12.8 M82.1,14.4 L81.2,14.4 L81.1,13.9 L81.1,13.9 C80.8,14.3 80.3,14.5 79.7,14.5 C79.3,14.5 78.9,14.4 78.6,14.1 C78.4,13.8 78.2,13.5 78.2,13.1 C78.2,12.5 78.4,12.1 78.9,11.8 C79.4,11.5 80.1,11.3 80.9,11.4 L80.9,11.3 C80.9,10.7 80.6,10.4 79.9,10.4 C79.4,10.4 79,10.5 78.7,10.7 L78.5,10 C78.9,9.7 79.5,9.6 80.1,9.6 C81.3,9.6 81.9,10.2 81.9,11.5 L81.9,13.2 C82,13.8 82,14.2 82.1,14.4" id="Fill-37" fill="#FFFFFF"></path>
      <path d="M86.9,12.4 L86.9,11.6 C86.9,11.5 86.9,11.4 86.9,11.3 C86.8,11 86.7,10.8 86.5,10.7 C86.3,10.5 86.1,10.4 85.8,10.4 C85.4,10.4 85.1,10.6 84.9,10.9 C84.7,11.2 84.6,11.6 84.6,12.1 C84.6,12.6 84.7,12.9 84.9,13.2 C85.1,13.5 85.4,13.7 85.8,13.7 C86.1,13.7 86.4,13.6 86.6,13.3 C86.8,13.1 86.9,12.8 86.9,12.4 M88,14.4 L87.1,14.4 L87.1,13.6 L87.1,13.6 C86.8,14.2 86.3,14.5 85.6,14.5 C85,14.5 84.6,14.3 84.2,13.8 C83.8,13.3 83.6,12.8 83.6,12.1 C83.6,11.3 83.8,10.7 84.2,10.2 C84.6,9.8 85.1,9.5 85.7,9.5 C86.3,9.5 86.8,9.7 87,10.1 L87,10.1 L87,7.6 L88,7.6 L88,13.2 C88,13.6 88,14 88,14.4" id="Fill-38" fill="#FFFFFF"></path>
      <path d="M95.9,12.1 C95.9,11.7 95.8,11.3 95.6,11 C95.4,10.6 95.1,10.4 94.7,10.4 C94.3,10.4 94,10.6 93.7,11 C93.5,11.3 93.4,11.7 93.4,12.1 C93.4,12.5 93.5,12.9 93.7,13.2 C93.9,13.6 94.2,13.8 94.7,13.8 C95.1,13.8 95.4,13.6 95.6,13.2 C95.8,12.9 95.9,12.5 95.9,12.1 M97,12 C97,12.7 96.8,13.3 96.4,13.8 C96,14.3 95.4,14.5 94.7,14.5 C94,14.5 93.5,14.3 93,13.8 C92.6,13.3 92.4,12.8 92.4,12.1 C92.4,11.4 92.6,10.8 93,10.3 C93.4,9.8 94,9.6 94.7,9.6 C95.4,9.6 95.9,9.8 96.4,10.3 C96.8,10.8 97,11.3 97,12" id="Fill-39" fill="#FFFFFF"></path>
      <path d="M102.6,14.4 L101.6,14.4 L101.6,11.7 C101.6,10.9 101.3,10.5 100.6,10.5 C100.3,10.5 100,10.6 99.8,10.8 C99.6,11 99.5,11.3 99.5,11.6 L99.5,14.4 L98.5,14.4 L98.5,11 C98.5,10.6 98.5,10.1 98.5,9.7 L99.4,9.7 L99.4,10.4 L99.4,10.4 C99.5,10.2 99.7,10 99.9,9.8 C100.2,9.6 100.5,9.5 100.9,9.5 C101.3,9.5 101.7,9.6 102,9.9 C102.4,10.2 102.5,10.8 102.5,11.5 L102.5,14.4 L102.6,14.4 Z" id="Fill-40" fill="#FFFFFF"></path>
      <path d="M109.7,10.5 L108.5,10.5 L108.5,12.8 C108.5,13.4 108.7,13.7 109.1,13.7 C109.3,13.7 109.4,13.7 109.6,13.7 L109.6,14.5 C109.4,14.6 109.1,14.6 108.8,14.6 C108.4,14.6 108.1,14.5 107.8,14.2 C107.6,13.9 107.4,13.5 107.4,12.9 L107.4,10.5 L106.7,10.5 L106.7,9.7 L107.4,9.7 L107.4,8.9 L108.4,8.6 L108.4,9.8 L109.6,9.8 L109.7,10.5 L109.7,10.5 Z" id="Fill-41" fill="#FFFFFF"></path>
      <path d="M115.2,14.4 L114.2,14.4 L114.2,11.7 C114.2,10.9 113.9,10.4 113.3,10.4 C112.8,10.4 112.5,10.6 112.3,11.1 C112.3,11.2 112.3,11.3 112.3,11.5 L112.3,14.3 L111.3,14.3 L111.3,7.6 L112.3,7.6 L112.3,10.4 L112.3,10.4 C112.6,9.9 113.1,9.6 113.7,9.6 C114.1,9.6 114.5,9.7 114.8,10 C115.2,10.4 115.3,10.9 115.3,11.6 L115.3,14.4 L115.2,14.4 Z" id="Fill-42" fill="#FFFFFF"></path>
      <path d="M120,11.6 C120,11.3 119.9,11 119.8,10.8 C119.6,10.5 119.3,10.4 119,10.4 C118.7,10.4 118.4,10.5 118.2,10.8 C118,11 117.9,11.3 117.9,11.6 L120,11.6 Z M121,11.9 C121,12.1 121,12.2 121,12.4 L117.9,12.4 C117.9,12.9 118.1,13.2 118.4,13.5 C118.7,13.7 119,13.8 119.4,13.8 C119.9,13.8 120.3,13.7 120.7,13.6 L120.9,14.3 C120.5,14.5 119.9,14.6 119.3,14.6 C118.6,14.6 118,14.4 117.6,14 C117.2,13.6 117,13 117,12.3 C117,11.6 117.2,11 117.6,10.5 C118,10 118.6,9.7 119.2,9.7 C119.9,9.7 120.4,10 120.7,10.5 C120.8,10.8 121,11.3 121,11.9 L121,11.9 Z" id="Fill-43" fill="#FFFFFF"></path>
    </g>
  </g>
</svg>
