<?xml version="1.0" encoding="utf-8"?>
<!-- Generator: Adobe Illustrator 22.0.1, SVG Export Plug-In . SVG Version: 6.00 Build 0)  -->
<svg version="1.1" id="Layer_1" xmlns="http://www.w3.org/2000/svg" xmlns:xlink="http://www.w3.org/1999/xlink" x="0px" y="0px"
	 viewBox="0 0 182 67" style="enable-background:new 0 0 182 67;" xml:space="preserve">
<style type="text/css">
	.st0{enable-background:new    ;}
	.st1{fill:#3C6CDE;}
	.st2{fill:#3366CC;}
</style>
<title>Group 4</title>
<desc>Created with Sketch.</desc>
<g id="Web-App">
	<g id="Login" transform="translate(-639.000000, -160.000000)">
		<g id="Group-4" transform="translate(639.000000, 160.000000)">
			<g class="st0">
				<path class="st1" d="M100.6,33.7c-0.1,0.3-0.3,0.5-0.5,0.6s-0.4,0.2-0.6,0.2s-0.5-0.1-0.8-0.3c-0.3-0.2-0.7-0.4-1.1-0.6
					c-0.4-0.2-0.9-0.4-1.4-0.6c-0.5-0.2-1.2-0.3-1.9-0.3c-0.7,0-1.3,0.1-1.8,0.2s-0.9,0.4-1.3,0.7c-0.3,0.3-0.6,0.6-0.8,1
					s-0.3,0.8-0.3,1.3c0,0.6,0.2,1.1,0.5,1.5c0.3,0.4,0.8,0.8,1.4,1c0.6,0.3,1.2,0.5,1.9,0.8c0.7,0.2,1.5,0.5,2.2,0.7
					s1.5,0.6,2.2,0.9c0.7,0.3,1.4,0.8,1.9,1.3c0.6,0.5,1,1.2,1.4,1.9s0.5,1.7,0.5,2.8c0,1.2-0.2,2.3-0.6,3.3s-1,1.9-1.8,2.7
					c-0.8,0.8-1.7,1.4-2.8,1.8s-2.4,0.7-3.8,0.7c-0.8,0-1.6-0.1-2.4-0.2c-0.8-0.2-1.6-0.4-2.3-0.7s-1.4-0.7-2.1-1.1
					c-0.6-0.4-1.2-0.9-1.7-1.4l1.4-2.3c0.1-0.2,0.3-0.3,0.5-0.4c0.2-0.1,0.4-0.2,0.6-0.2c0.3,0,0.6,0.1,1,0.4
					c0.3,0.2,0.8,0.5,1.2,0.8c0.5,0.3,1,0.6,1.7,0.8s1.4,0.4,2.3,0.4c1.4,0,2.4-0.3,3.2-1c0.8-0.7,1.1-1.6,1.1-2.8
					c0-0.7-0.2-1.2-0.5-1.7s-0.8-0.8-1.4-1.1c-0.6-0.3-1.2-0.5-1.9-0.7c-0.7-0.2-1.5-0.4-2.2-0.7c-0.7-0.2-1.5-0.5-2.2-0.9
					c-0.7-0.3-1.4-0.8-1.9-1.3c-0.6-0.5-1-1.2-1.4-2c-0.3-0.8-0.5-1.8-0.5-3c0-0.9,0.2-1.9,0.6-2.8c0.4-0.9,0.9-1.7,1.7-2.4
					s1.6-1.3,2.7-1.7s2.3-0.6,3.6-0.6c1.5,0,3,0.2,4.2,0.7c1.3,0.5,2.4,1.2,3.3,2L100.6,33.7z"/>
				<path class="st1" d="M110.2,31.2c0,0.4-0.1,0.7-0.2,1.1s-0.4,0.6-0.6,0.9s-0.6,0.5-0.9,0.6c-0.3,0.2-0.7,0.2-1.1,0.2
					c-0.4,0-0.7-0.1-1.1-0.2c-0.3-0.1-0.6-0.4-0.9-0.6s-0.5-0.5-0.6-0.9c-0.2-0.3-0.2-0.7-0.2-1.1c0-0.4,0.1-0.8,0.2-1.1
					c0.1-0.3,0.4-0.6,0.6-0.9s0.5-0.5,0.9-0.6c0.3-0.2,0.7-0.2,1.1-0.2c0.4,0,0.8,0.1,1.1,0.2c0.3,0.2,0.7,0.4,0.9,0.6
					s0.5,0.6,0.6,0.9S110.2,30.8,110.2,31.2z M109.6,36.5V55h-4.4V36.5H109.6z"/>
				<path class="st1" d="M120.1,36.2c0.8,0,1.5,0.1,2.2,0.2c0.7,0.2,1.3,0.4,1.9,0.7h5.3v1.7c0,0.3-0.1,0.5-0.2,0.6
					c-0.1,0.2-0.4,0.3-0.7,0.3l-1.7,0.3c0.1,0.3,0.2,0.6,0.3,1s0.1,0.7,0.1,1.1c0,0.9-0.2,1.7-0.5,2.5c-0.4,0.7-0.9,1.4-1.5,1.9
					s-1.4,0.9-2.3,1.2c-0.9,0.3-1.8,0.4-2.9,0.4c-0.7,0-1.4-0.1-2-0.2c-0.6,0.4-0.9,0.7-0.9,1.2c0,0.4,0.2,0.6,0.5,0.8
					s0.8,0.3,1.3,0.4c0.6,0.1,1.2,0.1,1.9,0.1s1.4,0,2.2,0.1c0.7,0.1,1.5,0.2,2.2,0.3c0.7,0.2,1.3,0.4,1.9,0.7
					c0.6,0.3,1,0.8,1.3,1.3c0.3,0.6,0.5,1.3,0.5,2.2c0,0.8-0.2,1.6-0.6,2.4c-0.4,0.8-1,1.5-1.7,2.1c-0.8,0.6-1.7,1.1-2.8,1.5
					c-1.1,0.4-2.4,0.6-3.8,0.6c-1.4,0-2.6-0.1-3.7-0.4c-1-0.3-1.9-0.6-2.6-1.1c-0.7-0.4-1.2-1-1.5-1.6s-0.5-1.2-0.5-1.8
					c0-0.9,0.3-1.6,0.8-2.2s1.3-1.1,2.2-1.4c-0.5-0.3-0.8-0.6-1.1-1s-0.4-1-0.4-1.6c0-0.3,0-0.6,0.1-0.9c0.1-0.3,0.2-0.6,0.4-0.9
					c0.2-0.3,0.4-0.6,0.7-0.8c0.3-0.3,0.7-0.5,1.1-0.7c-0.9-0.5-1.7-1.2-2.2-2c-0.5-0.8-0.8-1.8-0.8-3c0-0.9,0.2-1.7,0.5-2.5
					c0.4-0.7,0.9-1.4,1.5-1.9c0.7-0.5,1.4-0.9,2.3-1.2C118.1,36.3,119.1,36.2,120.1,36.2z M125,55.8c0-0.4-0.1-0.7-0.3-0.9
					c-0.2-0.2-0.5-0.4-0.9-0.5c-0.4-0.1-0.8-0.2-1.3-0.3c-0.5-0.1-1-0.1-1.6-0.1c-0.6,0-1.1,0-1.7,0c-0.6,0-1.2-0.1-1.7-0.2
					c-0.5,0.3-0.9,0.6-1.2,1c-0.3,0.4-0.5,0.8-0.5,1.3c0,0.3,0.1,0.6,0.2,0.9c0.2,0.3,0.4,0.5,0.8,0.7c0.4,0.2,0.8,0.4,1.4,0.5
					c0.6,0.1,1.3,0.2,2.1,0.2c0.8,0,1.5-0.1,2.1-0.2c0.6-0.1,1.1-0.3,1.5-0.5c0.4-0.2,0.7-0.5,0.9-0.8S125,56.1,125,55.8z
					 M120.1,45.3c0.6,0,1-0.1,1.4-0.2c0.4-0.1,0.7-0.4,1-0.6c0.3-0.3,0.5-0.6,0.6-1s0.2-0.8,0.2-1.2c0-0.9-0.3-1.6-0.8-2.2
					c-0.5-0.5-1.4-0.8-2.5-0.8s-1.9,0.3-2.5,0.8c-0.5,0.5-0.8,1.3-0.8,2.2c0,0.4,0.1,0.8,0.2,1.2c0.1,0.4,0.3,0.7,0.6,1
					c0.3,0.3,0.6,0.5,1,0.6C119.1,45.2,119.6,45.3,120.1,45.3z"/>
				<path class="st1" d="M131.5,55V36.5h2.7c0.6,0,1,0.3,1.1,0.8l0.3,1.5c0.4-0.4,0.8-0.7,1.2-1s0.9-0.6,1.3-0.8
					c0.5-0.2,1-0.4,1.5-0.5c0.5-0.1,1.1-0.2,1.7-0.2c1,0,1.9,0.2,2.7,0.5s1.4,0.8,2,1.4c0.5,0.6,0.9,1.4,1.2,2.2
					c0.3,0.9,0.4,1.8,0.4,2.8V55h-4.4V43.2c0-1.1-0.3-2-0.8-2.6c-0.5-0.6-1.3-0.9-2.3-0.9c-0.8,0-1.5,0.2-2.2,0.5
					c-0.7,0.3-1.3,0.8-1.9,1.4V55H131.5z"/>
				<path class="st1" d="M162.6,31.2c0,0.4-0.1,0.7-0.2,1.1c-0.2,0.3-0.4,0.6-0.6,0.9c-0.3,0.3-0.6,0.5-0.9,0.6
					c-0.3,0.2-0.7,0.2-1.1,0.2c-0.4,0-0.7-0.1-1.1-0.2c-0.3-0.1-0.6-0.4-0.9-0.6s-0.5-0.5-0.6-0.9s-0.2-0.7-0.2-1.1
					c0-0.4,0.1-0.8,0.2-1.1s0.4-0.6,0.6-0.9s0.5-0.5,0.9-0.6s0.7-0.2,1.1-0.2c0.4,0,0.8,0.1,1.1,0.2s0.7,0.4,0.9,0.6
					c0.3,0.3,0.5,0.6,0.6,0.9C162.5,30.4,162.6,30.8,162.6,31.2z M161.9,36.5V55h-4.4V36.5H161.9z"/>
				<path class="st1" d="M166.1,55V36.5h2.7c0.6,0,1,0.3,1.1,0.8l0.3,1.5c0.4-0.4,0.8-0.7,1.2-1s0.9-0.6,1.3-0.8s1-0.4,1.5-0.5
					c0.5-0.1,1.1-0.2,1.7-0.2c1,0,1.9,0.2,2.7,0.5c0.8,0.3,1.4,0.8,2,1.4c0.5,0.6,0.9,1.4,1.2,2.2c0.3,0.9,0.4,1.8,0.4,2.8V55h-4.4
					V43.2c0-1.1-0.3-2-0.8-2.6c-0.5-0.6-1.3-0.9-2.3-0.9c-0.8,0-1.5,0.2-2.2,0.5c-0.7,0.3-1.3,0.8-1.9,1.4V55H166.1z"/>
			</g>
			<g id="Logo-04">
				<g id="Shape">
					<path class="st2" d="M9.8,57.1c11.6,11.7,29.7,13,42.7,3.9L41.4,49.8c-6.8,3.3-15.1,2.1-20.7-3.6c-7.1-7.1-7.1-18.7,0-25.9
						c1.5-1.5,3.3-2.8,5.3-3.7V0.4C19.8,1.9,14.2,5,9.8,9.4C-3.3,22.6-3.3,44,9.8,57.1z M46.4,20.3c5.4,5.4,6.7,13.3,3.9,20
						l11.3,11.4c8.5-13.1,7-30.8-4.4-42.2c-5-5-11.4-8.3-18.3-9.4v15.8C41.7,16.7,44.3,18.2,46.4,20.3z"/>
				</g>
				<g id="Oval">
					<ellipse class="st2" cx="33" cy="33.5" rx="9" ry="9.5"/>
				</g>
			</g>
		</g>
	</g>
</g>
</svg>
