<?xml version="1.0" encoding="UTF-8"?>
<svg width="37px" height="34px" viewBox="0 0 37 34" version="1.1" xmlns="http://www.w3.org/2000/svg" xmlns:xlink="http://www.w3.org/1999/xlink">
    <!-- Generator: Sketch 55 (78076) - https://sketchapp.com -->
    <title>Artboard</title>
    <desc>Created with Sketch.</desc>
    <g id="Artboard" stroke="none" stroke-width="1" fill="none" fill-rule="evenodd" stroke-linecap="round" stroke-linejoin="round">
        <g id="phone" transform="translate(4.000000, 2.000000)" stroke="#FFFFFF" stroke-width="2.94">
            <path d="M28.9342404,21.634 L28.9342404,25.984 C28.9375473,26.8005604 28.5972259,27.5806796 27.9968836,28.1327041 C27.3965414,28.6847285 26.5918168,28.9574978 25.7804082,28.884 C21.3286349,28.3991791 17.0523934,26.8745096 13.2952834,24.4325 C9.79977855,22.2062626 6.83620059,19.2359492 4.61501134,15.7325 C2.17003628,11.9497458 0.648478538,7.64294211 0.173605442,3.161 C0.100507728,2.35026488 0.370751794,1.54606601 0.918323282,0.944850531 C1.46589477,0.343635048 2.2403699,0.000766600846 3.05256236,6.80336863e-17 L7.39269841,6.80336863e-17 C8.84500061,-0.0143262279 10.0828606,1.05265285 10.2861224,2.494 C10.4693095,3.88609635 10.8090357,5.25295398 11.2988209,6.5685 C11.6962833,7.62826879 11.4420672,8.82296908 10.6478005,9.628 L8.81047619,11.4695 C10.869951,15.0996415 13.8688385,18.1053446 17.4907483,20.1695 L19.3280726,18.328 C20.131278,17.5319281 21.3232692,17.2771342 22.3806349,17.6755 C23.6931978,18.1663983 25.056956,18.5068966 26.4458957,18.6905 C27.9006553,18.8961975 28.9706831,20.1619492 28.9342404,21.634 Z" id="Shape"></path>
        </g>
    </g>
</svg>