<svg xmlns="http://www.w3.org/2000/svg" width="31.715" height="31.839" viewBox="0 0 31.715 31.839">
  <g id="phone" transform="translate(1.309 1.47)">
    <path id="Shape" d="M28.772,21.634v4.35a2.9,2.9,0,0,1-3.154,2.9,28.589,28.589,0,0,1-12.485-4.451,28.243,28.243,0,0,1-8.68-8.7A28.738,28.738,0,0,1,.012,3.161,2.9,2.9,0,0,1,2.891,0h4.34a2.9,2.9,0,0,1,2.893,2.494,18.653,18.653,0,0,0,1.013,4.075,2.9,2.9,0,0,1-.651,3.059L8.649,11.47a23.174,23.174,0,0,0,8.68,8.7l1.837-1.842a2.889,2.889,0,0,1,3.053-.653,18.541,18.541,0,0,0,4.065,1.015A2.9,2.9,0,0,1,28.772,21.634Z" transform="translate(0.162 0)" fill="none" stroke="#3c6cde" stroke-linecap="round" stroke-linejoin="round" stroke-miterlimit="10" stroke-width="2.94"/>
  </g>
</svg>
