<?xml version="1.0" encoding="UTF-8"?>
<svg width="98px" height="98px" viewBox="0 0 98 98" version="1.1" xmlns="http://www.w3.org/2000/svg" xmlns:xlink="http://www.w3.org/1999/xlink">
    <!-- Generator: Sketch 54.1 (76490) - https://sketchapp.com -->
    <title>icon/Decline Copy</title>
    <desc>Created with Sketch.</desc>
    <g id="Audio/Video-Screens" stroke="none" stroke-width="1" fill="none" fill-rule="evenodd">
        <g id="Calling--2" transform="translate(-835.000000, -739.000000)">
            <g id="icon/Decline" transform="translate(835.000000, 739.000000)">
                <g id="Decline">
                    <circle id="Oval-8" fill="#FF3B30" cx="49" cy="49" r="49"></circle>
                    <path d="M71.141189,62.0865897 L71.141189,68.3865897 C71.1460654,69.5691945 70.6442247,70.6990223 69.7589551,71.498506 C68.8736855,72.2979897 67.687032,72.6930348 66.4905223,72.5865897 C59.9259012,71.8844354 53.6201205,69.6762933 48.0798556,66.1395897 C42.9253556,62.9153838 38.5552394,58.6135507 35.2798556,53.5395897 C31.6744755,48.0611181 29.430774,41.8236783 28.7305223,35.3325897 C28.6227318,34.1584216 29.0212359,32.9937198 29.8286893,32.122994 C30.6361427,31.2522681 31.77819,30.7557 32.9758556,30.7545897 L39.3758556,30.7545897 C41.5174323,30.7338414 43.3427908,32.2791215 43.6425223,34.3665897 C43.9126514,36.3827293 44.4136145,38.3623162 45.1358556,40.2675897 C45.721957,41.8024273 45.3470878,43.5326829 44.1758556,44.6985897 L41.4665223,47.3655897 C44.5034407,52.623036 48.9256245,56.9761232 54.2665223,59.9655897 L56.9758556,57.2985897 C58.1602689,56.1456581 59.9179889,55.7766462 61.477189,56.3535897 C63.412705,57.0645459 65.4237139,57.5576814 67.4718556,57.8235897 C69.617056,58.1214964 71.1949277,59.9546542 71.141189,62.0865897 Z" id="Shape" fill="#FFFFFF" transform="translate(49.927856, 51.679018) rotate(-225.000000) translate(-49.927856, -51.679018) "></path>
                </g>
            </g>
        </g>
    </g>
</svg>