<?xml version="1.0" encoding="UTF-8"?>
<svg width="62px" height="62px" viewBox="0 0 62 62" version="1.1" xmlns="http://www.w3.org/2000/svg" xmlns:xlink="http://www.w3.org/1999/xlink">
    <!-- Generator: Sketch 54.1 (76490) - https://sketchapp.com -->
    <title>Dr.iq logo-06</title>
    <desc>Created with Sketch.</desc>
    <g id="Audio/Video-Screens" stroke="none" stroke-width="1" fill="none" fill-rule="evenodd" fill-opacity="0.524229677">
        <g id="Calling-1" transform="translate(-57.000000, -841.000000)" fill="#FFFFFF">
            <g id="Dr.iq-logo-06" transform="translate(57.000000, 841.000000)">
                <path d="M9.09534634,52.8521012 C19.8519122,63.6724312 36.5475073,64.8762816 48.6255902,56.4670627 L38.2867024,46.0634763 C32.0317024,49.0823102 24.3039805,47.9841804 19.1189415,42.7690869 C12.552039,36.1625743 12.552039,25.4520572 19.1189415,18.8455446 C20.5293862,17.4235216 22.1807806,16.2660978 23.9954683,15.4277008 L23.9954683,0.435841584 C18.3500457,1.74858857 13.1862425,4.63405888 9.09534634,8.76184818 C-3.00782439,20.9394939 -3.00782439,40.6771837 9.09534634,52.8521012 Z M42.9015024,18.8455446 C47.8654976,23.8389659 49.0771707,31.1766557 46.537878,37.3145875 L56.9859317,47.8245765 C64.8296,35.7369637 63.4762146,19.3755116 52.9257756,8.76184818 C48.3334354,4.12734497 42.4023157,1.07163232 35.9799805,0.0313751375 L35.9799805,14.6433223 C38.5938286,15.4541269 40.9703165,16.8969498 42.9015024,18.8455446 Z" id="Shape" fill-rule="nonzero"></path>
                <ellipse id="Oval" cx="31.010561" cy="31.0081848" rx="8.52510732" ry="8.57564356"></ellipse>
            </g>
        </g>
    </g>
</svg>