<?xml version="1.0" encoding="utf-8"?>
<!-- Generator: Adobe Illustrator 21.0.0, SVG Export Plug-In . SVG Version: 6.00 Build 0)  -->
<svg version="1.1" id="Layer_1" xmlns="http://www.w3.org/2000/svg" xmlns:xlink="http://www.w3.org/1999/xlink" x="0px" y="0px"
	 viewBox="0 0 36 14.4" style="enable-background:new 0 0 36 14.4;" xml:space="preserve">
<style type="text/css">
	.st0{fill:#4467AD;}
	.st1{fill:#FFFFFF;}
</style>
<g>
	<rect id="Rectangle" x="1.5" y="0.5" class="st0" width="33.4" height="13.6"/>
	<polygon id="Path" class="st1" points="4.7,1.7 8.4,1.7 10.7,9.5 10.7,9.5 12.3,1.7 15.1,1.7 12.7,12.9 9,12.9 6.7,5.2 6.7,5.2 
		5.1,12.9 2.3,12.9 	"/>
	<polygon id="Path_1_" class="st1" points="16.2,1.7 19.2,1.7 18.3,6 21.9,6 22.7,1.7 25.7,1.7 23.4,12.9 20.4,12.9 21.4,8.1 
		17.9,8.1 16.9,12.9 13.9,12.9 	"/>
	<path id="Path_2_" class="st1" d="M33.6,4.2c-0.8-0.4-1.6-0.5-2.5-0.5C30,3.7,29,3.9,29,4.8c0,1.6,4.3,1,4.3,4.4
		c0,3.1-2.9,3.9-5.5,3.9c-1.2,0-2.5-0.3-3.5-0.6l0.7-2.3c0.6,0.4,1.8,0.6,2.8,0.6c0.9,0,2.4-0.2,2.4-1.3c0-1.8-4.3-1.1-4.3-4.3
		c0-2.9,2.5-3.7,5-3.7c1.4,0,2.7,0.1,3.4,0.5L33.6,4.2z"/>
</g>
</svg>
