<?xml version="1.0" encoding="UTF-8"?>
<svg width="154px" height="37px" viewBox="0 0 154 37" version="1.1" xmlns="http://www.w3.org/2000/svg" xmlns:xlink="http://www.w3.org/1999/xlink">
    <!-- Generator: Sketch 58 (84663) - https://sketch.com -->
    <title>nhs-01</title>
    <desc>Created with Sketch.</desc>
    <g id="Practice-Side-V3" stroke="none" stroke-width="1" fill="none" fill-rule="evenodd">
        <g id="Patient-Profile-Update-1" transform="translate(-1105.000000, -160.000000)" fill-rule="nonzero">
            <g id="nhs-01" transform="translate(1105.000000, 160.000000)">
                <rect id="Rectangle" fill="#4366AD" x="103.622976" y="0.11757312" width="49.7632896" height="20.2860288"></rect>
                <polygon id="Path" fill="#FFFFFF" points="108.38562 1.93529088 113.933952 1.93529088 117.341706 13.4649216 117.386496 13.4649216 119.721162 1.93529088 123.918336 1.93529088 120.393009 18.561623 114.86334 18.561623 111.386534 7.05625344 111.338012 7.05625344 109.027607 18.561623 104.836032 18.561623"></polygon>
                <polygon id="Path" fill="#FFFFFF" points="125.555028 1.93529088 130.009743 1.93529088 128.703375 8.2954368 133.968038 8.2954368 135.274406 1.93529088 139.729121 1.93529088 136.274711 18.561623 131.819996 18.561623 133.298058 11.4400512 128.033395 11.4400512 126.555333 18.561623 122.102484 18.561623"></polygon>
                <path d="M151.447242,5.69949696 C150.298033,5.16984307 149.043309,4.90881454 147.778214,4.9362048 C146.014618,4.9362048 144.586944,5.19934464 144.586944,6.53184 C144.586944,8.89076736 151.042268,8.00990208 151.042268,13.06368 C151.042268,17.6620954 146.77791,18.849024 142.918525,18.849024 C141.205317,18.849024 139.227103,18.4440499 137.773302,17.9924198 L138.822129,14.6089267 C139.70486,15.1799962 141.466591,15.5625754 142.918525,15.5625754 C144.301409,15.5625754 146.464381,15.2994355 146.464381,13.584361 C146.464381,10.917504 140.009057,11.9178086 140.009057,7.22608128 C140.009057,2.93372928 143.773263,1.6516224 147.41803,1.6516224 C149.470894,1.6516224 151.394988,1.86624 152.514732,2.3981184 L151.447242,5.69949696 Z" id="Path" fill="#FFFFFF"></path>
                <path d="M0.14370048,22.9771469 L3.37229568,22.9771469 C5.64910848,22.9771469 7.33618944,23.7665664 7.33618944,26.1366912 C7.33618944,28.4228352 5.64164352,29.4604646 3.43574784,29.4604646 L1.96141824,29.4604646 L1.96141824,33.2284032 L0.14370048,33.2284032 L0.14370048,22.9771469 Z M3.2845824,28.0047974 C4.8148992,28.0047974 5.5427328,27.3964032 5.5427328,26.1385574 C5.5427328,24.8807117 4.74584832,24.4328141 3.22113024,24.4328141 L1.96141824,24.4328141 L1.96141824,28.0066637 L3.2845824,28.0047974 Z" id="Shape" fill="#000000"></path>
                <path d="M9.10351872,25.528297 L10.583447,25.528297 L10.7215488,26.9018496 L10.7719373,26.9018496 C11.3206118,25.8978125 12.1361587,25.3398067 12.9610368,25.3398067 C13.2596871,25.3251404 13.5577506,25.3787535 13.8325709,25.4965709 L13.5190426,27.0642125 C13.2632013,26.9824208 12.9963521,26.9402536 12.7277568,26.9391744 C12.1137638,26.9391744 11.3747328,27.3590784 10.910039,28.5329434 L10.910039,33.2284032 L9.10351872,33.2284032 L9.10351872,25.528297 Z" id="Path" fill="#000000"></path>
                <path d="M14.2897997,29.385815 C14.2897997,26.819735 16.0328678,25.3398067 17.9513626,25.3398067 C19.8698573,25.3398067 21.6147917,26.819735 21.6147917,29.385815 C21.6147917,31.951895 19.8717235,33.4168934 17.9513626,33.4168934 C16.0310016,33.4168934 14.2897997,31.9369651 14.2897997,29.385815 Z M19.7578829,29.385815 C19.7578829,27.8424346 19.0804378,26.8141363 17.9513626,26.8141363 C16.8222874,26.8141363 16.1467085,27.8424346 16.1467085,29.385815 C16.1467085,30.9291955 16.8241536,31.9425638 17.9513626,31.9425638 C19.0785715,31.9425638 19.7578829,30.9273293 19.7578829,29.385815 Z" id="Shape" fill="#000000"></path>
                <path d="M22.348224,25.528297 L24.1790054,25.528297 L25.4032589,29.5220506 C25.6160102,30.2816102 25.8418253,31.0710298 26.0545766,31.8436531 L26.12736,31.8436531 C26.3401114,31.0710298 26.5659264,30.2816102 26.7786778,29.5220506 L28.001065,25.528297 L29.7441331,25.528297 L27.1313971,33.2284032 L25.0318771,33.2284032 L22.348224,25.528297 Z" id="Path" fill="#000000"></path>
                <path d="M30.8638771,23.1581722 C30.8638771,22.5497779 31.3416346,22.1354726 31.9836211,22.1354726 C32.6256077,22.1354726 33.1033651,22.5497779 33.1033651,23.1581722 C33.1033651,23.7665664 32.6274739,24.1808717 31.9836211,24.1808717 C31.3397683,24.1808717 30.8638771,23.7535027 30.8638771,23.1581722 Z M31.0710298,25.528297 L32.8775501,25.528297 L32.8775501,33.2284032 L31.0710298,33.2284032 L31.0710298,25.528297 Z" id="Shape" fill="#000000"></path>
                <path d="M34.712064,29.385815 C34.712064,26.8757222 36.2853043,25.3398067 37.9723853,25.3398067 C38.8439194,25.3398067 39.3963264,25.6663987 39.991657,26.1870797 L39.9226061,24.9460301 L39.9226061,22.1466701 L41.7291264,22.1466701 L41.7291264,33.2209382 L40.2491981,33.2209382 L40.1110963,32.386729 L40.0607078,32.386729 C39.4896384,32.9577984 38.7002189,33.4094563 37.8716083,33.4094563 C35.9437824,33.4168934 34.712064,31.9239014 34.712064,29.385815 Z M39.9226061,31.065431 L39.9226061,27.472919 C39.502001,27.0656132 38.9404509,26.8363136 38.3549645,26.8327987 C37.3770547,26.8327987 36.5671066,27.7659187 36.5671066,29.3652864 C36.5671066,31.0449024 37.2072269,31.9239014 38.3176397,31.9239014 C38.903639,31.9239014 39.4056576,31.6607616 39.9132749,31.0598323 L39.9226061,31.065431 Z" id="Shape" fill="#000000"></path>
                <path d="M43.8081178,23.1581722 C43.8081178,22.5497779 44.284009,22.1354726 44.9278618,22.1354726 C45.5717146,22.1354726 46.0476058,22.5497779 46.0476058,23.1581722 C46.0476058,23.7665664 45.5717146,24.1808717 44.9278618,24.1808717 C44.284009,24.1808717 43.8081178,23.7535027 43.8081178,23.1581722 Z M44.0152704,25.528297 L45.8199245,25.528297 L45.8199245,33.2284032 L44.0152704,33.2284032 L44.0152704,25.528297 Z" id="Shape" fill="#000000"></path>
                <path d="M48.1153997,25.528297 L49.595328,25.528297 L49.7334298,26.5696589 L49.7838182,26.5696589 C50.474327,25.8978125 51.2581478,25.3398067 52.3107072,25.3398067 C53.9604634,25.3398067 54.680832,26.4595507 54.680832,28.4004403 L54.680832,33.2284032 L52.8743117,33.2284032 L52.8743117,28.6318541 C52.8743117,27.3665434 52.5122611,26.8887859 51.6780518,26.8887859 C51.0006067,26.8887859 50.5583078,27.2209766 49.92192,27.8480333 L49.92192,33.2284032 L48.1153997,33.2284032 L48.1153997,25.528297 Z" id="Path" fill="#000000"></path>
                <path d="M56.360448,34.626217 C56.360448,33.9786317 56.7616896,33.4112947 57.4708608,32.9839258 L57.4708608,32.9223398 C57.0256506,32.6489806 56.7602482,32.1587332 56.7747533,31.6365005 C56.7747533,31.0411699 57.1815936,30.5167565 57.627625,30.1994957 L57.627625,30.1379098 C56.9905049,29.6558991 56.6144474,28.9044742 56.6105242,28.1055744 C56.6105242,26.3382451 58.040064,25.3397636 59.6524954,25.3397636 C60.0403432,25.3378741 60.4257725,25.4009558 60.792768,25.5264307 L63.545472,25.5264307 L63.545472,26.873856 L62.145792,26.873856 C62.4366468,27.2408182 62.5915981,27.6971003 62.5843584,28.1652941 C62.5843584,29.8785024 61.2779904,30.79296 59.6562278,30.79296 C59.2996584,30.78872 58.9468193,30.7197962 58.6148659,30.5895398 C58.3737672,30.7605752 58.233787,31.0405356 58.2416179,31.3360358 C58.2416179,31.7690035 58.5551462,32.0321434 59.4901325,32.0321434 L60.8599526,32.0321434 C62.7000653,32.0321434 63.6798413,32.5920154 63.6798413,33.9319757 C63.6798413,35.4492288 62.0860723,36.6473549 59.5741133,36.6473549 C57.7284019,36.6342912 56.360448,35.9755085 56.360448,34.626217 Z M61.9274419,34.2137779 C61.9274419,33.6165811 61.4515507,33.4411546 60.5706854,33.4411546 L59.5143936,33.4411546 C59.1641654,33.4500282 58.8142321,33.4142823 58.4730317,33.3347789 C58.0587264,33.6483072 57.8777011,33.9935616 57.8777011,34.3518797 C57.8777011,35.0535859 58.6241971,35.4604262 59.8409856,35.4604262 C61.0839014,35.45856 61.9293082,34.8781594 61.9293082,34.2137779 L61.9274419,34.2137779 Z M60.9943219,28.1055744 C60.9943219,27.1407283 60.412055,26.5883213 59.6599603,26.5883213 C58.9078656,26.5883213 58.3237325,27.1332634 58.3237325,28.1055744 C58.3237325,29.0778854 58.919063,29.6545536 59.6599603,29.6545536 C60.4008576,29.6545536 60.9887232,29.0834842 60.9887232,28.1055744 L60.9943219,28.1055744 Z" id="Shape" fill="#000000"></path>
                <path d="M68.3267789,22.9771469 L70.1930189,22.9771469 L73.3805568,28.740096 L74.4405811,30.9291955 L74.5040333,30.9291955 C74.41632,29.85984 74.276352,28.5702682 74.276352,27.433728 L74.276352,22.9771469 L76.0082227,22.9771469 L76.0082227,33.2284032 L74.1419827,33.2284032 L70.9581773,27.4561229 L69.898153,25.2782208 L69.8347008,25.2782208 C69.9224141,26.3625062 70.0661146,27.5979571 70.0661146,28.7382298 L70.0661146,33.2284032 L68.3361101,33.2284032 L68.3267789,22.9771469 Z" id="Path" fill="#000000"></path>
                <polygon id="Path" fill="#000000" points="78.6116275 22.9771469 80.434944 22.9771469 80.434944 27.0959386 84.579863 27.0959386 84.579863 22.9771469 86.3975808 22.9771469 86.3975808 33.2284032 84.579863 33.2284032 84.579863 28.6822426 80.434944 28.6822426 80.434944 33.2284032 78.6172262 33.2284032"></polygon>
                <path d="M88.2992794,31.912704 L89.3593037,30.6660557 C90.092736,31.3640294 91.0781107,31.8343219 92.0298931,31.8343219 C93.1850957,31.8343219 93.817751,31.3117747 93.817751,30.5111578 C93.817751,29.6676173 93.1571021,29.3914138 92.2258483,29.0032358 L90.8243021,28.3948416 C89.8146662,27.9749376 88.7509094,27.1761869 88.7509094,25.6775962 C88.7509094,24.0427699 90.193513,22.7867904 92.1941222,22.7867904 C93.378327,22.7887587 94.5138508,23.2582606 95.3536666,24.0931584 L94.4205466,25.248361 C93.8141205,24.6865694 93.0189058,24.3728792 92.192256,24.3693619 C91.219945,24.3693619 90.5872896,24.8228582 90.5872896,25.5730867 C90.5872896,26.3774362 91.3673779,26.6760346 92.2165171,27.0231552 L93.599401,27.6035558 C94.8199219,28.1111731 95.6727936,28.8837965 95.6727936,30.3693235 C95.6727936,32.0302771 94.291776,33.4168935 91.9907021,33.4168935 C90.6109489,33.4171119 89.2859321,32.877191 88.2992794,31.912704 Z" id="Path" fill="#000000"></path>
                <path d="M99.7561267,32.3438054 L100.597801,31.1979341 C101.280845,31.7298125 101.941494,32.0564045 102.723448,32.0564045 C103.563256,32.0564045 103.958899,31.6607616 103.958899,31.1344819 C103.958899,30.4887629 103.12469,30.2013619 102.303544,29.8859674 C101.293908,29.5127194 100.138706,28.92672 100.138706,27.6464794 C100.138706,26.3121178 101.217393,25.3454054 102.938066,25.3454054 C103.870247,25.3567831 104.771481,25.6815166 105.496681,26.267328 L104.669937,27.3777408 C104.130593,26.9820979 103.587517,26.7058944 102.990321,26.7058944 C102.215831,26.7058944 101.848182,27.0791424 101.848182,27.5587661 C101.848182,28.1671603 102.626404,28.4004403 103.460613,28.7065037 C104.501975,29.0965478 105.666509,29.5967002 105.666509,31.033705 C105.666509,32.3568691 104.619548,33.4224922 102.680525,33.4224922 C101.613087,33.3971294 100.584358,33.017675 99.7561267,32.3438054 L99.7561267,32.3438054 Z" id="Path" fill="#000000"></path>
                <path d="M106.773189,29.385815 C106.773189,26.8831872 108.510659,25.3398067 110.319045,25.3398067 C112.401769,25.3398067 113.491653,26.8458624 113.491653,28.9957709 C113.493357,29.290589 113.467112,29.5849049 113.413271,29.8747699 L108.536786,29.8747699 C108.686085,31.2408576 109.565084,32.0190797 110.806134,32.0190797 C111.443198,32.0098318 112.063787,31.81529 112.592125,31.4592077 L113.207985,32.5789517 C112.429506,33.1118413 111.510589,33.4021279 110.567255,33.4131679 C108.441608,33.4168934 106.773189,31.9239014 106.773189,29.385815 Z M111.940808,28.639319 C111.940808,27.4542566 111.414528,26.733888 110.360102,26.733888 C109.464307,26.733888 108.680486,27.4038682 108.516257,28.639319 L111.940808,28.639319 Z" id="Shape" fill="#000000"></path>
                <path d="M115.227256,25.528297 L116.707185,25.528297 L116.845286,26.9018496 L116.895675,26.9018496 C117.444349,25.8978125 118.25803,25.3398067 119.082908,25.3398067 C119.381571,25.3249423 119.679679,25.3785634 119.954442,25.4965709 L119.640914,27.0642125 C119.385744,26.9822931 119.11949,26.9401204 118.851494,26.9391744 C118.237501,26.9391744 117.496604,27.3590784 117.033777,28.5329434 L117.033777,33.2284032 L115.227256,33.2284032 L115.227256,25.528297 Z" id="Path" fill="#000000"></path>
                <path d="M120.37248,25.528297 L122.203261,25.528297 L123.427515,29.5220506 C123.640266,30.2816102 123.866081,31.0710298 124.078833,31.8436531 L124.142285,31.8436531 C124.355036,31.0710298 124.580851,30.2816102 124.793603,29.5220506 L126.01599,25.528297 L127.759058,25.528297 L125.146322,33.2284032 L123.052401,33.2284032 L120.37248,25.528297 Z" id="Path" fill="#000000"></path>
                <path d="M128.884401,23.1581722 C128.884401,22.5497779 129.362158,22.1354726 130.004145,22.1354726 C130.646131,22.1354726 131.123889,22.5497779 131.123889,23.1581722 C131.123889,23.7665664 130.646131,24.1808717 130.004145,24.1808717 C129.362158,24.1808717 128.884401,23.7535027 128.884401,23.1581722 Z M129.091553,25.528297 L130.898074,25.528297 L130.898074,33.2284032 L129.091553,33.2284032 L129.091553,25.528297 Z" id="Shape" fill="#000000"></path>
                <path d="M132.689664,29.385815 C132.689664,26.819735 134.501783,25.3398067 136.550915,25.3398067 C137.384273,25.333102 138.189196,25.6425338 138.803466,26.2057421 L137.915136,27.3777408 C137.508296,27.021289 137.120118,26.8178688 136.636762,26.8178688 C135.395712,26.8178688 134.535375,27.846167 134.535375,29.3895475 C134.535375,30.932928 135.382648,31.9462963 136.588239,31.9462963 C137.180235,31.9177892 137.743518,31.6827031 138.180142,31.2819149 L138.913574,32.4744422 C138.218504,33.0849196 137.324847,33.4212848 136.399749,33.4206269 C134.296497,33.4168934 132.689664,31.9369651 132.689664,29.385815 Z" id="Path" fill="#000000"></path>
                <path d="M139.54623,29.385815 C139.54623,26.8831872 141.283699,25.3398067 143.092086,25.3398067 C145.172943,25.3398067 146.264694,26.8458624 146.264694,28.9957709 C146.266397,29.290589 146.240153,29.5849049 146.186312,29.8747699 L141.30796,29.8747699 C141.459126,31.2408576 142.336259,32.0190797 143.577308,32.0190797 C144.214959,32.0098703 144.836156,31.8153409 145.365166,31.4592077 L145.979159,32.5789517 C145.201356,33.1117947 144.283046,33.4020949 143.340296,33.4131679 C141.214648,33.4168934 139.54623,31.9239014 139.54623,29.385815 Z M144.711982,28.639319 C144.711982,27.4542566 144.185702,26.733888 143.133143,26.733888 C142.235482,26.733888 141.453527,27.4038682 141.289298,28.639319 L144.711982,28.639319 Z" id="Shape" fill="#000000"></path>
                <path d="M147.233272,32.3438054 L148.074947,31.1979341 C148.75799,31.7298125 149.418639,32.0564045 150.200594,32.0564045 C151.040402,32.0564045 151.436045,31.6607616 151.436045,31.1344819 C151.436045,30.4887629 150.601836,30.2013619 149.78069,29.8859674 C148.771054,29.5127194 147.615852,28.92672 147.615852,27.6464794 C147.615852,26.3121178 148.694538,25.3454054 150.415212,25.3454054 C151.347392,25.3567831 152.248626,25.6815166 152.973827,26.267328 L152.147082,27.3777408 C151.607739,26.9820979 151.064663,26.7058944 150.467466,26.7058944 C149.692977,26.7058944 149.325327,27.0791424 149.325327,27.5587661 C149.325327,28.1671603 150.103549,28.4004403 150.937759,28.7065037 C151.979121,29.0965478 153.143654,29.5967002 153.143654,31.033705 C153.143654,32.3568691 152.096694,33.4224922 150.15767,33.4224922 C149.090232,33.3971294 148.061504,33.017675 147.233272,32.3438054 L147.233272,32.3438054 Z" id="Path" fill="#000000"></path>
            </g>
        </g>
    </g>
</svg>