<?xml version="1.0" encoding="UTF-8"?>
<svg width="28px" height="36px" viewBox="0 0 28 36" version="1.1" xmlns="http://www.w3.org/2000/svg" xmlns:xlink="http://www.w3.org/1999/xlink">
    <!-- Generator: Sketch 59.1 (86144) - https://sketch.com -->
    <title>Icon/Pathways/activity</title>
    <desc>Created with Sketch.</desc>
    <g id="Icon/Pathways/activity" stroke="none" stroke-width="1" fill="none" fill-rule="evenodd">
        <g id="bicycle" transform="translate(1.000000, 10.000000)" fill="#E84155" fill-rule="nonzero">
            <path d="M25.9489194,11.9315938 C25.908055,8.50020923 22.8585462,6.41836308 20.0695481,7.01467077 L19.2829077,4.82820923 L19.2829077,1.99313231 C19.2829077,0.894670769 18.4094303,0.000209230769 17.3367387,0.000209230769 L15.9831041,0.000209230769 C15.5846758,0.000209230769 15.2628684,0.329747692 15.2628684,0.737747692 C15.2628684,1.14574769 15.5846758,1.47528615 15.9831041,1.47528615 L17.3367387,1.47528615 C17.6176817,1.47528615 17.8424361,1.71067077 17.8424361,1.99313231 L17.8424361,4.19005538 L10.3795678,4.19005538 L10.3795678,3.55190154 L11.4062868,3.55190154 C11.8047151,3.55190154 12.1265226,3.22236308 12.1265226,2.81436308 C12.1265226,2.40636308 11.8047151,2.07682462 11.4062868,2.07682462 L7.90726916,2.07682462 C7.50884086,2.07682462 7.1870334,2.40636308 7.1870334,2.81436308 C7.1870334,3.22236308 7.50884086,3.55190154 7.90726916,3.55190154 L8.93909627,3.55190154 L8.93909627,4.70267077 L7.12062868,7.46451692 C4.00982318,5.84297846 0.0766208251,7.97713231 0,11.9315938 C0,14.6986708 2.19646365,16.9479015 4.89862475,16.9479015 C7.28408644,16.9479015 9.27111984,15.1955938 9.71041257,12.8835938 L11.5084479,12.8835938 C11.697446,12.8835938 11.881336,12.8051323 12.0192534,12.6691323 L18.2715128,6.26667077 L18.7159136,7.51682462 C17.1886051,8.36944 16.1465619,10.0275938 16.1465619,11.9315938 C16.1465619,14.6986708 18.3430255,16.9479015 21.0502947,16.9479015 C23.7524558,16.9479015 25.9846758,14.6986708 25.9489194,11.9315938 Z M4.89862475,15.4728246 C2.99332024,15.4728246 1.44047151,13.8826708 1.44047151,11.9315938 C1.44047151,9.62482462 3.69312377,7.62144 6.30333988,8.69897846 L4.30098232,11.7380554 C4.15284872,11.9629785 4.13752456,12.2559015 4.26011788,12.4965169 C4.3827112,12.7371323 4.62789784,12.8888246 4.89862475,12.8888246 L8.22907662,12.8888246 C7.82043222,14.3795938 6.48722986,15.4728246 4.89862475,15.4728246 Z M6.25736739,11.4085169 L7.47308448,9.56728615 C7.91748527,10.0746708 8.21886051,10.7075938 8.32102161,11.4085169 L6.25736739,11.4085169 Z M11.2121807,11.4085169 L9.77681729,11.4085169 C9.65422397,10.2002092 9.10766208,9.11744 8.29548134,8.31713231 L10.0475442,5.65990154 L16.8259332,5.65990154 L11.2121807,11.4085169 Z M21.0451866,15.4728246 C19.1398821,15.4728246 17.5870334,13.8826708 17.5870334,11.9315938 C17.5870334,10.6657477 18.2408644,9.55682462 19.2165029,8.92913231 L20.3709234,12.1826708 C20.4884086,12.5069785 20.8561886,12.7789785 21.2954813,12.6220554 C21.6683694,12.4808246 21.8624754,12.0571323 21.724558,11.6752862 L20.5701375,8.42174769 C22.6695481,8.11313231 24.5084479,9.81313231 24.5084479,11.9263631 C24.5084479,13.8879015 22.9555992,15.4728246 21.0451866,15.4728246 Z" id="Shape"></path>
        </g>
    </g>
</svg>