<?xml version="1.0" encoding="UTF-8"?>
<svg width="28px" height="36px" viewBox="0 0 28 36" version="1.1" xmlns="http://www.w3.org/2000/svg" xmlns:xlink="http://www.w3.org/1999/xlink">
    <!-- Generator: Sketch 59.1 (86144) - https://sketch.com -->
    <title>Icon/Pathways/Alcohol</title>
    <desc>Created with Sketch.</desc>
    <g id="Icon/Pathways/Alcohol" stroke="none" stroke-width="1" fill="none" fill-rule="evenodd">
        <g id="beer-bottle" transform="translate(9.000000, 3.000000)" fill="#F5A623" fill-rule="nonzero" stroke="#F5A623" stroke-width="0.5">
            <path d="M9.05432413,12.5502319 L8.12704395,11.088829 C7.79705669,10.5689774 7.60696767,9.96540071 7.57698948,9.34313965 L7.26267262,2.7948532 C7.52293785,2.59121704 7.69236012,2.26814273 7.69236012,1.90367888 L7.69236012,1.11538696 C7.69236012,0.500457764 7.21202762,0 6.62132087,0 L3.34166058,0 C2.75095384,0 2.2706214,0.500457764 2.2706214,1.11538696 L2.2706214,1.90367888 C2.2706214,2.26814273 2.4400436,2.59121704 2.70030884,2.7948532 L2.38599198,9.34313965 C2.35601384,9.96540071 2.16592477,10.5692139 1.83616459,11.088829 L0.908884419,12.5502319 C0.31431686,13.487526 0,14.5764237 0,15.699852 L0,20.786972 C0,21.0402756 0.19712936,21.2455673 0.44036157,21.2455673 C0.683593721,21.2455673 0.88072314,21.0402756 0.88072314,20.786972 L0.88072314,15.699852 C0.88072314,14.7568817 1.14462209,13.8427658 1.64357738,13.0558929 L2.57085756,11.5944901 C2.96102837,10.9795609 3.1965389,10.2716828 3.25581395,9.53849789 L6.7071675,9.53849789 C6.76666971,10.2714462 7.00195314,10.9793244 7.3921239,11.5944901 L8.31940407,13.0558929 C8.81858651,13.8425293 9.08225837,14.7568817 9.08225837,15.699852 L9.08225837,20.786972 C9.08225837,21.0402756 9.27938773,21.2455673 9.52261988,21.2455673 C9.76585209,21.2455673 9.96298145,21.0402756 9.96298145,20.786972 L9.96298145,15.699852 C9.96298145,14.5764237 9.64866459,13.487526 9.05432413,12.5502319 Z M6.39171512,3.01906584 L6.46688773,4.58571623 L3.49609372,4.58571623 L3.57126634,3.01906584 L6.39171512,3.01906584 Z M3.45203488,5.50290681 L6.51094657,5.50290681 L6.66083756,8.62130737 L3.30237099,8.62130737 L3.45203488,5.50290681 Z M3.15134448,1.11538696 C3.15134448,1.0061188 3.23673692,0.917190582 3.34166058,0.917190582 L6.62132087,0.917190582 C6.72624453,0.917190582 6.81163698,1.0061188 6.81163698,1.11538696 L6.81163698,1.90367888 C6.81163698,2.0129471 6.72624453,2.10187532 6.62132087,2.10187532 L3.34166058,2.10187532 C3.23673692,2.10187532 3.15134448,2.0129471 3.15134448,1.90367888 L3.15134448,1.11538696 Z" id="Shape"></path>
            <path d="M9.52261988,22.4761353 C9.27938773,22.4761353 9.08225837,22.681427 9.08225837,22.9347305 L9.08225837,29.2935715 C9.08225837,29.7287521 8.74227837,30.0828094 8.32440047,30.0828094 L1.63880814,30.0828094 C1.22070314,30.0828094 0.88072314,29.7287521 0.88072314,29.2935715 L0.88072314,22.9347305 C0.88072314,22.681427 0.683593721,22.4761353 0.44036157,22.4761353 C0.19712936,22.4761353 0,22.681427 0,22.9347305 L0,29.2935715 C0,30.2344132 0.735147151,31 1.63880814,31 L8.32440047,31 C9.2278343,31 9.96298145,30.2344132 9.96298145,29.2935715 L9.96298145,22.9347305 C9.96298145,22.681427 9.76585209,22.4761353 9.52261988,22.4761353 Z" id="Path"></path>
            <path d="M3.33757267,15.9585953 L3.95167151,15.9585953 C4.19490372,15.9585953 4.39203308,15.7533035 4.39203308,15.5 C4.39203308,15.2466965 4.19490372,15.0414047 3.95167151,15.0414047 L3.33757267,15.0414047 C2.44731105,15.0414047 1.72306506,15.7958756 1.72306506,16.722763 L1.72306506,25.2830505 C1.72306506,26.2101746 2.44731105,26.9644089 3.33757267,26.9644089 L6.62540878,26.9644089 C7.51567041,26.9644089 8.24014355,26.2101746 8.24014355,25.2830505 L8.24014355,16.722763 C8.24014355,15.795639 7.51567041,15.0414047 6.62540878,15.0414047 L6.00722203,15.0414047 C5.76398983,15.0414047 5.56686047,15.2466965 5.56686047,15.5 C5.56686047,15.7533035 5.76398983,15.9585953 6.00722203,15.9585953 L6.62540878,15.9585953 C7.03011448,15.9585953 7.35942041,16.3015365 7.35942041,16.722763 L7.35942041,25.2830505 C7.35942041,25.7045135 7.03011448,26.0472183 6.62540878,26.0472183 L3.33757267,26.0472183 C2.93286698,26.0472183 2.60356105,25.7045135 2.60356105,25.2830505 L2.60356105,16.722763 C2.60356105,16.3015365 2.93286698,15.9585953 3.33757267,15.9585953 Z" id="Path"></path>
        </g>
    </g>
</svg>