<?xml version="1.0" encoding="UTF-8"?>
<svg width="28px" height="36px" viewBox="0 0 28 36" version="1.1" xmlns="http://www.w3.org/2000/svg" xmlns:xlink="http://www.w3.org/1999/xlink">
    <!-- Generator: Sketch 59.1 (86144) - https://sketch.com -->
    <title>Icon/Pathways/allergies</title>
    <desc>Created with Sketch.</desc>
    <g id="Icon/Pathways/allergies" stroke="none" stroke-width="1" fill="none" fill-rule="evenodd">
        <g id="ic_allergies" transform="translate(1.000000, 5.000000)" fill="#A52ACD" stroke="#A52ACD" stroke-width="0.5">
            <g id="Group-3">
                <path d="M12.9855273,1.30158182 C6.52716364,1.30158182 1.2728,6.55594545 1.2728,13.0143091 C1.2728,19.4728545 6.52716364,24.7272182 12.9855273,24.7272182 C19.4438909,24.7272182 24.6984364,19.4728545 24.6984364,13.0143091 C24.6984364,6.55594545 19.4438909,1.30158182 12.9855273,1.30158182 M12.9855273,25.9999455 C5.82534545,25.9999455 7.27272727e-05,20.1746727 7.27272727e-05,13.0143091 C7.27272727e-05,5.85412727 5.82534545,0.0288545455 12.9855273,0.0288545455 C20.1458909,0.0288545455 25.9711636,5.85412727 25.9711636,13.0143091 C25.9711636,20.1746727 20.1458909,25.9999455 12.9855273,25.9999455" id="Fill-1"></path>
            </g>
            <path d="M7.0338751,10.2916667 C6.62152516,10.2916667 6.192069,10.2345305 5.75036839,10.1020864 C5.41778746,10.0023166 5.23159976,9.65984904 5.33441714,9.33712582 C5.43723453,9.01440261 5.79016286,8.83355879 6.12256373,8.93350339 C8.4749391,9.63835746 10.5392097,7.28494164 10.5599172,7.26100386 C10.7830184,7.00188175 11.1806029,6.96728555 11.44764,7.18429813 C11.7144971,7.40096125 11.74997,7.78658666 11.5266888,8.04570877 C11.4355756,8.15124468 9.55731267,10.2916667 7.0338751,10.2916667" id="Fill-4"></path>
            <path d="M18.9660434,10.2916667 C16.4427643,10.2916667 14.5644853,8.15106668 14.4733713,8.04552199 C14.2500882,7.78637833 14.2853814,7.40072085 14.5524208,7.18403971 C14.8191,6.96770805 15.2163279,7.00178291 15.4394309,7.25987811 C15.4687818,7.29360348 17.5415333,9.63306084 19.8775427,8.93339044 C20.2101265,8.83308804 20.5628777,9.01447113 20.6655159,9.33704644 C20.7685143,9.6597965 20.5821449,10.0022925 20.2495611,10.1020707 C19.8078567,10.2345258 19.3783969,10.2916667 18.9660434,10.2916667" id="Fill-6"></path>
            <path d="M9.7313847,12.645538 C8.87459338,12.645538 8.17757071,13.3376183 8.17757071,14.1883342 L8.17757071,19.3949991 C8.17757071,20.2457151 8.87459338,20.9377953 9.7313847,20.9377953 L16.7992275,20.9377953 C17.6560189,20.9377953 18.3530415,20.2457151 18.3530415,19.3949991 L18.3530415,14.1883342 C18.3530415,13.3376183 17.6560189,12.645538 16.7992275,12.645538 L9.7313847,12.645538 Z M16.7992275,22.2083333 L9.7313847,22.2083333 C8.16897903,22.2083333 6.89795918,20.9463261 6.89795918,19.3949991 L6.89795918,14.1883342 C6.89795918,12.6371888 8.16897903,11.375 9.7313847,11.375 L16.7992275,11.375 C18.3616332,11.375 19.6326531,12.6371888 19.6326531,14.1883342 L19.6326531,19.3949991 C19.6326531,20.9463261 18.3616332,22.2083333 16.7992275,22.2083333 L16.7992275,22.2083333 Z" id="Fill-8"></path>
            <path d="M7.33990185,14.0833333 C7.23650427,14.0833333 7.13169271,14.0566587 7.03536505,14.0005875 L0.844236217,10.3960645 C0.546946087,10.2229516 0.442664768,9.83535288 0.611282358,9.53031849 C0.779546451,9.22510263 1.15708017,9.11804119 1.45454705,9.2911541 L7.64567589,12.8956771 C7.94278927,13.0686086 8.04707059,13.4562073 7.87862975,13.7614232 C7.76480404,13.9673803 7.55535766,14.0833333 7.33990185,14.0833333" id="Fill-10"></path>
            <path d="M18.6600844,14.0833333 C18.4446313,14.0833333 18.2353643,13.9673794 18.1213632,13.7614206 C17.9529245,13.4562023 18.0572045,13.0686005 18.3544909,12.8956677 L24.5455429,9.29111608 C24.8424759,9.11800179 25.2201817,9.22524555 25.3887972,9.53028236 C25.5572359,9.83531917 25.4531326,10.222921 25.1558462,10.3960353 L18.9647942,14.0005869 C18.8684677,14.0566585 18.7634807,14.0833333 18.6600844,14.0833333" id="Fill-12"></path>
            <path d="M7.82993777,21.125 C7.80804455,21.125 7.78596259,21.1239601 7.76369189,21.1218804 L3.24840254,20.7099145 C2.88546568,20.676985 2.6202934,20.3797526 2.65634173,20.046471 C2.6925788,19.7130161 3.01720251,19.4702041 3.37900696,19.5029603 L7.89448505,19.9149261 C8.25742191,19.9478557 8.52240545,20.2450881 8.48654585,20.5783697 C8.4525736,20.8913736 8.16531936,21.125 7.82993777,21.125" id="Fill-14"></path>
            <path d="M18.6909704,21.125 C18.3635336,21.125 18.0818376,20.895759 18.044836,20.5856604 C18.0052312,20.2530532 18.2627553,19.9535162 18.620128,19.9166368 L22.6244878,19.5038646 C22.9840918,19.4662926 23.3033473,19.706961 23.3429521,20.039395 C23.3823709,20.3720022 23.1250328,20.6715392 22.7676601,20.7084186 L18.7633003,21.121364 C18.7389424,21.123788 18.7147704,21.125 18.6909704,21.125" id="Fill-16"></path>
        </g>
    </g>
</svg>