<?xml version="1.0" encoding="UTF-8"?>
<svg width="28px" height="36px" viewBox="0 0 28 36" version="1.1" xmlns="http://www.w3.org/2000/svg" xmlns:xlink="http://www.w3.org/1999/xlink">
    <!-- Generator: Sketch 59.1 (86144) - https://sketch.com -->
    <title>Icon/Pathways/bloodtest</title>
    <desc>Created with Sketch.</desc>
    <g id="Icon/Pathways/bloodtest" stroke="none" stroke-width="1" fill="none" fill-rule="evenodd">
        <g id="blood-test" transform="translate(1.000000, 5.000000)" fill="#F55266" fill-rule="nonzero">
            <path d="M25.7025742,24.2661758 L21.1790313,19.7426836 C22.1953672,18.4229297 22.8007813,16.771168 22.8007813,14.9804688 C22.8007813,10.6683281 19.2926094,7.16015625 14.9804688,7.16015625 C10.6683281,7.16015625 7.16015625,10.6683281 7.16015625,14.9804688 C7.16015625,19.2926094 10.6683281,22.8007813 14.9804688,22.8007813 C16.7712188,22.8007813 18.4229297,22.1953672 19.7426836,21.1790313 L24.2662266,25.7025234 C24.4645273,25.900875 24.7244766,26 24.984375,26 C25.2442734,26 25.5042227,25.900875 25.7025742,25.7025742 C26.099125,25.3059219 26.099125,24.6628281 25.7025742,24.2661758 Z M9.19140625,14.9804688 C9.19140625,11.7884102 11.7884102,9.19140625 14.9804688,9.19140625 C18.1725273,9.19140625 20.7695313,11.7884102 20.7695313,14.9804688 C20.7695313,18.1725273 18.1725273,20.7695313 14.9804688,20.7695313 C11.7884102,20.7695313 9.19140625,18.1725273 9.19140625,14.9804688 Z M15.8616758,11.4858047 C15.668707,11.2546992 15.3831133,11.1210938 15.0820312,11.1210938 C14.7809492,11.1210938 14.4953555,11.2546992 14.3023867,11.4858047 C14.2802969,11.5122617 13.756082,12.1418477 13.2259766,12.923168 C12.1586055,14.4963203 12.0351562,15.2564648 12.0351562,15.6914062 C12.0351562,17.3714531 13.4019844,18.7382812 15.0820312,18.7382812 C16.7620781,18.7382812 18.1289062,17.3714531 18.1289062,15.6914062 C18.1289062,15.2564648 18.005457,14.4963203 16.9380859,12.9231172 C16.4079297,12.1418477 15.8837148,11.5122109 15.8616758,11.4858047 Z M15.0820313,16.7070313 C14.5223711,16.7070313 14.0670156,16.2520313 14.0664062,15.6925234 C14.0673203,15.6773906 14.1010898,15.2495078 14.9120664,14.0558945 C14.9688906,13.9722578 15.0258164,13.8902969 15.0820313,13.8109258 C15.1381953,13.8902969 15.1951719,13.9722578 15.2519961,14.0558945 C16.0738906,15.2656055 16.0975547,15.6887656 16.0976563,15.6914063 C16.0976563,16.2514219 15.6420469,16.7070313 15.0820313,16.7070313 Z M9.50944922,24.238957 C8.66104688,25.358125 7.36978125,26 5.96679688,26 C3.51670312,26 1.5234375,24.0067344 1.5234375,21.5566406 L1.5234375,2.03125 L1.015625,2.03125 C0.454695313,2.03125 0,1.57655469 0,1.015625 C0,0.454695313 0.454695313,0 1.015625,0 L10.9179688,0 C11.4788984,0 11.9335938,0.454695313 11.9335938,1.015625 C11.9335938,1.57655469 11.4788984,2.03125 10.9179688,2.03125 L10.4101562,2.03125 L10.4101562,4.5703125 C10.4101562,5.13124219 9.95546094,5.5859375 9.39453125,5.5859375 C8.83360156,5.5859375 8.37890625,5.13124219 8.37890625,4.5703125 L8.37890625,2.03125 L3.5546875,2.03125 L3.5546875,7.6171875 L6.34765625,7.6171875 C6.90858594,7.6171875 7.36328125,8.07188281 7.36328125,8.6328125 C7.36328125,9.19374219 6.90858594,9.6484375 6.34765625,9.6484375 L3.5546875,9.6484375 L3.5546875,21.5566406 C3.5546875,22.8866523 4.63678516,23.96875 5.96679688,23.96875 C6.72846484,23.96875 7.42975391,23.6199844 7.89069531,23.0118789 C8.22960938,22.5649023 8.86671094,22.4773047 9.31363672,22.8160664 C9.76061328,23.1549297 9.8483125,23.7919805 9.50944922,24.238957 Z" id="Shape"></path>
        </g>
    </g>
</svg>