<?xml version="1.0" encoding="UTF-8"?>
<svg width="28px" height="36px" viewBox="0 0 28 36" version="1.1" xmlns="http://www.w3.org/2000/svg" xmlns:xlink="http://www.w3.org/1999/xlink">
    <!-- Generator: Sketch 59.1 (86144) - https://sketch.com -->
    <title>Icon/Pathways/Cough</title>
    <desc>Created with Sketch.</desc>
    <g id="Icon/Pathways/Cough" stroke="none" stroke-width="1" fill="none" fill-rule="evenodd">
        <g id="cough" transform="translate(1.000000, 5.000000)" fill="#E84155" fill-rule="nonzero" stroke="#E84155">
            <path d="M25.0295755,5.52844758 C23.7666154,3.19141581 21.6381601,1.49843718 18.8742288,0.632747138 C16.8525959,-0.0005847965 15.1989933,0.0226120348 15.0541594,0.0259258551 C12.3485124,0.0276802745 9.98828388,1.16296037 8.8935495,2.98966187 C8.74910534,3.230597 8.6286378,3.480499 8.53214678,3.73761344 C8.01635844,4.22864543 5.68965803,6.63351335 5.68965803,10.0432522 C5.68965803,12.3145922 4.59706791,13.5003594 3.94560741,14.0050367 C3.70233311,14.1933404 3.57075444,14.4894411 3.59336648,14.7966528 C3.61597851,15.1042545 3.78985726,15.3777431 4.05808278,15.5288149 C4.30369626,15.6668263 4.57991395,15.7993796 4.84696991,15.9274495 C5.08303171,16.0407046 5.41811869,16.2015229 5.58166609,16.3062011 L5.58166609,17.2444056 C5.58166609,17.3726704 5.63117868,17.4962569 5.7198724,17.5890442 L6.69102033,18.605806 L6.08712303,19.1757853 C5.98731819,19.2699371 5.93059321,19.4013208 5.93059321,19.5385525 L5.93059321,20.6262693 C5.93059321,21.8812373 6.95164352,22.9022876 8.20680639,22.9022876 L9.67951264,22.9022876 C10.6504656,22.9022876 11.5621594,23.3775302 12.1194681,24.175774 L12.9568932,25.3621261 C13.0502652,25.4946794 13.2023117,25.5734317 13.3644946,25.5734317 L21.7933255,25.5734317 C21.953559,25.5734317 22.104046,25.4964338 22.197808,25.3664146 C22.2917649,25.2365903 22.3173009,25.0695342 22.2668137,24.9172928 L20.8383569,20.610285 C21.7654503,20.4262698 22.6356238,19.9839706 23.3401056,19.3134068 C25.170121,17.5716953 26.2634908,15.2545465 26.501697,12.6124473 C26.7192403,10.2036807 26.1962395,7.68789693 25.0295755,5.52844758 L25.0295755,5.52844758 Z M13.6231684,24.5753832 L12.9362304,23.602286 C12.193737,22.5391305 10.9763908,21.9042392 9.67951264,21.9042392 L8.20680639,21.9042392 C7.50193469,21.9042392 6.92864164,21.3309461 6.92864164,20.6260744 L6.92864164,19.7537567 L7.74092048,18.9870917 C7.83760642,18.8958639 7.89374664,18.7699382 7.89725543,18.63719 C7.90076417,18.5042468 7.85105667,18.3755922 7.75924405,18.279491 L6.57951961,17.0444061 L6.57951961,16.1325173 C6.57951961,15.6518166 6.0898521,15.4169243 5.27874282,15.0276465 C5.06587776,14.9255024 4.84716482,14.8206294 4.6534031,14.7169259 C5.4559354,14.0619566 6.68770646,12.6340846 6.68770646,10.0432522 C6.68770646,8.16859757 7.52201258,6.60641788 8.24579266,5.6036911 C8.28536373,6.47250004 8.54832609,7.3812699 9.03467974,8.29081953 C10.3145989,10.6849662 12.5438337,11.6884727 14.3350577,12.4947087 C16.0389525,13.2617635 17.0034727,13.7446084 17.011075,14.7483099 C17.0167281,15.4853452 16.8473327,16.0276442 16.5073725,16.3600022 C16.1342739,16.7249136 15.6451912,16.7338804 15.5950938,16.7338804 C15.5915851,16.7338804 15.5908054,16.7338804 15.5908054,16.7338804 C15.4239441,16.7223795 15.2664396,16.7952838 15.1642956,16.9284219 C15.0623465,17.061755 15.0391497,17.237583 15.0943152,17.3960622 C15.0962645,17.402105 15.1161475,17.459025 15.154549,17.5529819 C15.784957,19.1038556 17.1408993,20.2405002 18.7816364,20.5935209 C19.1264699,20.6677897 19.4738375,20.7048267 19.819061,20.7069709 L21.102099,24.5753832 L13.6231684,24.5753832 Z M22.652193,18.5906014 C21.9613563,19.2481048 21.1013193,19.6286108 20.1894304,19.6999556 C20.1584364,19.6991759 20.1270524,19.7013202 20.0956685,19.7063884 C19.7327064,19.7262714 19.3623368,19.6976164 18.9915774,19.6178895 C17.8155567,19.3648687 16.8527908,18.6463518 16.2882696,17.6175042 C16.5715049,17.5282256 16.8960656,17.3697465 17.1884626,17.0898251 C17.740898,16.5605865 18.0171156,15.7703349 18.0091235,14.7407075 C17.9960631,13.0483137 16.4167294,12.3373991 14.7446084,11.5847693 C13.0054311,10.801925 11.0344803,9.91459758 9.91479472,7.82045024 C9.21927972,6.51947848 9.0555374,5.28263917 9.42610186,4.19823615 C9.42766131,4.19394768 9.42902584,4.18985414 9.43058529,4.18556562 C9.51187164,3.95047841 9.61791429,3.72240877 9.74949295,3.50252622 C10.6658651,1.97367975 12.7009483,1.02377937 15.0605921,1.02377937 C15.0652705,1.02377937 15.0699488,1.02377937 15.0748221,1.02358445 C15.0906115,1.02294517 16.662148,0.985572829 18.5759838,1.5849867 C21.1225668,2.38264572 22.998391,3.86919205 24.1514099,6.00291047 C26.0697291,9.55261005 26.4186562,15.0058142 22.652193,18.5906014 L22.652193,18.5906014 Z" id="Shape" stroke-width="0.9"></path>
            <path d="M3.57562549,19.5126288 C3.57562549,19.2371909 3.35223415,19.0136046 3.07660127,19.0136046 L0.499024217,19.0136046 C0.223391285,19.0136046 0,19.2371909 0,19.5126288 C0,19.7882618 0.223391285,20.0116531 0.499024217,20.0116531 L3.07660127,20.0116531 C3.35223415,20.0116531 3.57562549,19.7882618 3.57562549,19.5126288 Z" id="Path" stroke-width="0.6"></path>
            <path d="M3.26880354,17.2861232 L1.82085359,16.6820309 C1.56666313,16.5757934 1.27446104,16.6958711 1.16822348,16.9502565 C1.06218083,17.2046418 1.18225853,17.4968439 1.43664391,17.6028866 L2.88459392,18.2071737 C2.94736178,18.2332945 3.01246887,18.2457701 3.07660127,18.2457701 C3.27192244,18.2457701 3.45730215,18.1303708 3.53722398,17.9387533 C3.64326662,17.6843679 3.52318892,17.3921658 3.26880354,17.2861232 Z" id="Path" stroke-width="0.6"></path>
            <path d="M2.88459392,20.818279 L1.43664391,21.4223712 C1.18225853,21.5284138 1.06218083,21.8206159 1.16822348,22.0750013 C1.24814535,22.2666187 1.43352501,22.3820181 1.62884623,22.3820181 C1.69297863,22.3820181 1.75808572,22.3695425 1.82085359,22.3434217 L3.26880354,21.7393295 C3.52318892,21.6330919 3.64326662,21.3408898 3.53722398,21.0866994 C3.43118133,20.832314 3.13878438,20.7120414 2.88459392,20.818279 L2.88459392,20.818279 Z" id="Path" stroke-width="0.6"></path>
            <path d="M15.1210208,2.41773336 C14.8520156,2.42514072 14.6360317,2.64560808 14.6360317,2.91656261 C14.6360317,3.19200062 14.859423,3.41558682 15.1350559,3.41558682 C15.1442177,3.41558682 15.1551338,3.41519699 15.1642956,3.41461218 C15.4395386,3.39940756 15.6500645,3.16393051 15.6348598,2.88868746 C15.6198501,2.61773288 15.3906109,2.40857157 15.1210208,2.41773336 Z" id="Path" stroke-width="0.9"></path>
            <path d="M18.1629243,2.91558796 C17.8603909,2.82085136 17.5453819,2.73742075 17.226864,2.66802519 C16.957469,2.60896099 16.6915826,2.77972084 16.6329082,3.04911591 C16.574039,3.31831613 16.7446039,3.58420247 17.013999,3.64287679 C17.3038619,3.70622946 17.5900211,3.78186282 17.8644844,3.86802249 C19.7943047,4.47250455 21.2015139,5.57250208 22.047321,7.13760576 C22.1375742,7.3046619 22.3093087,7.39959347 22.4868912,7.39959347 C22.5668131,7.39959347 22.6480994,7.38010034 22.7235378,7.33955462 C22.9660324,7.20836584 23.0562856,6.90563744 22.9252917,6.66314291 C21.9516097,4.86139257 20.3492742,3.6005767 18.1629243,2.91558796 L18.1629243,2.91558796 Z" id="Path" stroke-width="0.9"></path>
        </g>
    </g>
</svg>