<?xml version="1.0" encoding="UTF-8"?>
<svg width="28px" height="36px" viewBox="0 0 28 36" version="1.1" xmlns="http://www.w3.org/2000/svg" xmlns:xlink="http://www.w3.org/1999/xlink">
    <!-- Generator: Sketch 59.1 (86144) - https://sketch.com -->
    <title>Icon/Pathways/Headache </title>
    <desc>Created with Sketch.</desc>
    <g id="Icon/Pathways/Headache-" stroke="none" stroke-width="1" fill="none" fill-rule="evenodd">
        <g id="headache" transform="translate(2.000000, 6.000000)" fill="#BE33EF" fill-rule="nonzero" stroke="#BE33EF" stroke-width="0.9">
            <path d="M12.288048,9.6e-05 C10.892352,9.6e-05 9.500736,0.245856 8.150064,0.729168 C7.883808,0.8244 7.745568,1.117248 7.8408,1.383504 C7.936032,1.64976 8.229936,1.785936 8.495136,1.692768 C9.73416,1.249392 11.010096,1.02408 12.288048,1.02408 C18.498624,1.02408 23.552064,6.07752 23.552064,12.288096 C23.552064,18.498672 18.498624,23.552112 12.288048,23.552112 C6.077472,23.552112 1.024032,18.498672 1.024032,12.288096 C1.024032,11.011152 1.249296,9.734256 1.69272,8.495184 C1.78896,8.228928 1.649712,7.93608 1.383456,7.840848 C1.1172,7.745616 0.824352,7.882848 0.72912,8.150112 C0.245808,9.500784 4.8e-05,10.8924 4.8e-05,12.288096 C4.8e-05,19.06392 5.512224,24.576096 12.288048,24.576096 C19.063872,24.576096 24.576048,19.06392 24.576048,12.288096 C24.576048,5.512272 19.063872,9.6e-05 12.288048,9.6e-05 Z" id="Path"></path>
            <path d="M8.704032,12.288096 L6.656016,12.288096 C6.373392,12.288096 6.144,12.517488 6.144,12.800112 C6.144,13.082736 6.373392,13.312128 6.656016,13.312128 L8.704032,13.312128 C8.986656,13.312128 9.216048,13.082736 9.216048,12.800112 C9.216048,12.517488 8.986656,12.288096 8.704032,12.288096 Z" id="Path"></path>
            <path d="M17.92008,12.288096 L15.872064,12.288096 C15.58944,12.288096 15.360048,12.517488 15.360048,12.800112 C15.360048,13.082736 15.58944,13.312128 15.872064,13.312128 L17.92008,13.312128 C18.202704,13.312128 18.432096,13.082736 18.432096,12.800112 C18.432096,12.517488 18.202656,12.288096 17.92008,12.288096 Z" id="Path"></path>
            <path d="M14.848032,17.408112 L9.728064,17.408112 C9.44544,17.408112 9.216048,17.637504 9.216048,17.920128 C9.216048,18.202752 9.44544,18.432144 9.728064,18.432144 L14.84808,18.432144 C15.130704,18.432144 15.360096,18.202752 15.360096,17.920128 C15.360096,17.637504 15.130656,17.408112 14.848032,17.408112 Z" id="Path"></path>
            <path d="M5.109792,0.411744 C5.054496,0.135264 4.78824,-0.04392 4.510752,0.011376 C4.233264,0.064608 4.053024,0.332928 4.105248,0.609408 C4.116528,0.668784 4.366368,2.077824 3.22152,3.222672 C2.07672,4.367472 0.668736,4.117632 0.612384,4.106352 C0.335904,4.050048 0.065568,4.229232 0.010272,4.507776 C-0.045024,4.785264 0.13416,5.054592 0.411696,5.109888 C0.438336,5.115024 0.6636,5.158032 1.007664,5.158032 C1.710144,5.158032 2.911296,4.980864 3.945504,3.946656 C5.487648,2.404464 5.126208,0.492672 5.109792,0.411744 Z" id="Path"></path>
            <path d="M11.252784,4.511856 C11.199552,4.234368 10.931232,4.054128 10.654752,4.106352 C10.595376,4.11864 9.187344,4.367472 8.042544,3.222624 C6.897696,2.077776 7.147584,0.668784 7.158816,0.60936 C7.212048,0.333888 7.032864,0.065616 6.756384,0.01032 C6.47784,-0.045984 6.209568,0.1332 6.154272,0.411744 C6.137904,0.492624 5.776416,2.404464 7.317552,3.945552 C8.352816,4.980816 9.553968,5.157984 10.256448,5.157984 C10.60152,5.157984 10.825776,5.115984 10.852416,5.110896 C11.12784,5.056608 11.307072,4.788336 11.252784,4.511856 Z" id="Path"></path>
            <path d="M10.853424,6.154368 C10.773552,6.138 8.859696,5.776512 7.31856,7.318656 C5.776416,8.859792 6.137904,10.772592 6.154272,10.85352 C6.203424,11.096208 6.4164,11.263104 6.655008,11.263104 C6.686736,11.263104 6.720528,11.260032 6.75432,11.251824 C7.031808,11.198592 7.212048,10.930272 7.159824,10.653792 C7.148544,10.594416 6.898704,9.186384 8.043552,8.041584 C9.1884,6.897792 10.597392,7.146624 10.652688,7.157856 C10.92816,7.213152 11.199504,7.033968 11.2548,6.756432 C11.310096,6.478896 11.130912,6.209664 10.853424,6.154368 Z" id="Path"></path>
            <path d="M3.94656,7.318656 C2.404416,5.776512 0.492624,6.138 0.411696,6.154368 C0.136224,6.208656 -0.04296,6.476928 0.011328,6.753408 C0.065616,7.030896 0.335952,7.214208 0.60936,7.158912 C0.6708,7.148688 2.076768,6.897792 3.221568,8.04264 C4.366416,9.186432 4.116528,10.595472 4.105296,10.654848 C4.052064,10.93032 4.231248,11.198592 4.507728,11.253888 C4.542528,11.26104 4.575312,11.264112 4.609104,11.264112 C4.847712,11.264112 5.061696,11.09616 5.110848,10.853472 C5.126208,10.772592 5.487648,8.859744 3.94656,7.318656 Z" id="Path"></path>
        </g>
    </g>
</svg>