<?xml version="1.0" encoding="UTF-8"?>
<svg width="28px" height="36px" viewBox="0 0 28 36" version="1.1" xmlns="http://www.w3.org/2000/svg" xmlns:xlink="http://www.w3.org/1999/xlink">
    <!-- Generator: Sketch 59.1 (86144) - https://sketch.com -->
    <title>Icon/Pathways/indigestion </title>
    <desc>Created with Sketch.</desc>
    <g id="Icon/Pathways/indigestion-" stroke="none" stroke-width="1" fill="none" fill-rule="evenodd">
        <g id="stomach" transform="translate(1.000000, 5.000000)" fill="#F5A623" fill-rule="nonzero" stroke="#F5A623">
            <path d="M14.892672,5.771456 C14.886272,5.765056 14.879872,5.758656 14.873472,5.758656 C13.017472,4.414656 12.614272,1.285056 12.607872,1.240256 C12.575872,0.958656 12.319872,0.760256 12.038272,0.792256 C11.756672,0.824256 11.558272,1.080256 11.590272,1.361856 C11.609472,1.502656 12.025472,4.830656 14.131072,6.481856 C14.067072,6.712256 13.823872,7.160256 13.734272,7.320256 C13.663872,7.448256 13.606272,7.550656 13.567872,7.633856 C13.561472,7.646656 13.555072,7.659456 13.555072,7.665856 C13.452672,7.953856 13.356672,8.241856 13.260672,8.523456 C12.921472,9.541056 12.601472,10.494656 12.019072,11.345856 C11.263872,12.414656 10.387072,13.355456 9.676672,13.854656 C9.203072,14.181056 8.678272,14.417856 8.127872,14.661056 C7.622272,14.891456 7.091072,15.121856 6.591872,15.441856 C6.323072,15.614656 6.067072,15.806656 5.823872,16.011456 C5.337472,16.408256 4.876672,16.779456 4.307072,16.837056 C4.211072,16.843456 4.121472,16.856256 4.031872,16.862656 C3.449472,16.913856 2.841472,16.965056 2.195072,17.342656 C-0.070528,18.680256 -0.019328,21.758656 0.006272,23.237056 C0.012672,23.518656 0.236672,23.742656 0.518272,23.742656 L0.524672,23.742656 C0.806272,23.736256 1.030272,23.505856 1.030272,23.224256 L1.030272,23.217856 C0.985472,21.150656 1.164672,19.121856 2.700672,18.219456 C3.142272,17.963456 3.571072,17.925056 4.108672,17.880256 C4.204672,17.873856 4.300672,17.861056 4.396672,17.854656 C5.267072,17.771456 5.894272,17.259456 6.457472,16.811456 C6.668672,16.632256 6.892672,16.465856 7.129472,16.312256 C7.571072,16.030656 8.038272,15.819456 8.537472,15.601856 C9.107072,15.345856 9.702272,15.083456 10.252672,14.699456 C11.417472,13.880256 12.454272,12.497856 12.851072,11.934656 C13.516672,10.961856 13.881472,9.886656 14.227072,8.849856 C14.316672,8.581056 14.412672,8.305856 14.508672,8.030656 C14.534272,7.985856 14.579072,7.896256 14.630272,7.813056 C14.995072,7.153856 15.494272,6.251456 14.892672,5.771456 Z" id="Path" stroke-width="0.9"></path>
            <path d="M23.622272,7.435456 C22.566272,5.477056 20.876672,4.293056 18.739072,4.011456 C18.732672,4.011456 18.726272,4.011456 18.713472,4.011456 C18.585472,3.998656 18.463872,3.998656 18.348672,3.998656 C18.111872,3.992256 17.894272,3.992256 17.766272,3.915456 C17.759872,3.915456 17.759872,3.909056 17.753472,3.909056 C17.343872,3.678656 15.731072,1.829056 15.641472,0.517056 C15.622272,0.235456 15.379072,0.024256 15.097472,0.043456 C14.815872,0.062656 14.604672,0.305856 14.623872,0.587456 C14.732672,2.289856 16.537472,4.395456 17.247872,4.805056 C17.606272,5.016256 17.990272,5.022656 18.335872,5.029056 C18.438272,5.029056 18.534272,5.029056 18.623872,5.041856 C20.441472,5.278656 21.817472,6.257856 22.719872,7.941056 C23.468672,9.349056 23.846272,11.185856 23.775872,13.125056 C23.577472,18.014656 21.158272,21.560256 16.959872,23.115456 C15.769472,23.563456 11.628672,24.465856 8.294272,22.737856 C8.294272,22.737856 8.287872,22.737856 8.287872,22.731456 C7.673472,22.424256 7.110272,21.912256 6.495872,21.112256 L6.489472,21.099456 C6.009472,20.453056 5.356672,19.563456 4.070272,20.069056 C2.643072,20.606656 2.643072,22.673856 2.643072,23.550656 C2.643072,23.832256 2.873472,24.062656 3.155072,24.062656 C3.436672,24.062656 3.667072,23.832256 3.667072,23.550656 C3.667072,22.936256 3.667072,21.317056 4.435072,21.022656 L4.441472,21.022656 C4.947072,20.824256 5.139072,20.984256 5.670272,21.701056 L5.683072,21.713856 L5.689472,21.720256 C6.393472,22.648256 7.078272,23.256256 7.833472,23.633856 C9.279872,24.382656 10.969472,24.760256 12.851072,24.760256 C13.113472,24.760256 13.375872,24.753856 13.644672,24.741056 C15.372672,24.645056 16.774272,24.267456 17.318272,24.056256 C19.635072,23.198656 21.459072,21.790656 22.751872,19.864256 C23.999872,18.001856 24.691072,15.736256 24.793472,13.144256 C24.870272,11.025856 24.454272,9.003456 23.622272,7.435456 Z" id="Path" stroke-width="0.9"></path>
            <path d="M20.6033223,13.6541883 C20.5361078,13.5028154 20.3034423,13.063834 19.8536223,13.0032848 C19.848452,13.0032848 19.8432816,13.0032848 19.8381113,13.0032848 C19.6157864,12.9831018 19.1866478,13.0386052 18.8195533,13.6693256 C17.9561057,14.9660869 16.6221567,15.6674481 15.6501318,16.0307431 C14.109369,16.6160517 12.5479248,16.716967 10.8934144,16.8178822 C10.4694461,16.8431111 9.97309301,16.8935687 9.49742127,17.080262 C8.74772125,17.357779 8.22034606,17.912813 8.05489502,18.6040826 C7.88944398,19.2953523 8.10142813,20.0219423 8.64431435,20.6022051 C9.01140885,20.9856832 9.53361369,21.2934747 10.2367806,21.5457629 C11.0898875,21.8485088 11.9946979,22.0049274 12.9046786,21.9998817 C13.5664828,21.9998817 14.2282869,21.9191495 14.8745801,21.7677765 C16.3326174,21.4246646 17.7337809,20.6627543 18.9229602,19.5627778 C19.8226002,18.7150894 20.4120196,17.8472181 20.7274106,16.9036602 C21.1306975,15.8087295 21.0841644,14.6280208 20.6033223,13.6541883 Z M19.9415182,16.6362348 C19.9415182,16.6412805 19.9363478,16.6463263 19.9363478,16.6463263 C19.6623195,17.46374 19.145285,18.2256504 18.3438816,18.9774692 C17.2632795,19.9815762 15.9913746,20.6728458 14.6729366,20.9856832 C13.2510917,21.3187036 11.8137358,21.2531086 10.5159792,20.7888984 C9.94724129,20.5820221 9.51810265,20.3347796 9.24924472,20.0522169 C8.89766126,19.6788303 8.7528916,19.2196658 8.8562985,18.7907759 C8.9597054,18.361886 9.30094817,18.0137283 9.79213094,17.8320808 C9.79730128,17.8320808 9.79730128,17.8320808 9.80247163,17.827035 C10.1747365,17.6807079 10.5883641,17.6403417 10.9451179,17.6201587 C12.5841172,17.5192434 14.2851607,17.4132824 15.9396711,16.7825619 C17.9095726,16.0509261 18.9694933,14.9206751 19.5123795,14.0982156 C19.5175499,14.0931698 19.5227202,14.0830783 19.5278906,14.0729867 C19.5744237,13.9771172 19.6468085,13.8913392 19.729534,13.8206985 C19.7760671,13.8711562 19.8122595,13.9266596 19.8381113,13.9872088 C19.8381113,13.9922545 19.8432816,13.9973003 19.848452,14.002346 C20.2362278,14.7844394 20.2724202,15.7431346 19.9415182,16.6362348 Z" id="Shape" stroke-width="0.72"></path>
        </g>
    </g>
</svg>