<?xml version="1.0" encoding="UTF-8"?>
<svg width="28px" height="36px" viewBox="0 0 28 36" version="1.1" xmlns="http://www.w3.org/2000/svg" xmlns:xlink="http://www.w3.org/1999/xlink">
    <!-- Generator: Sketch 59.1 (86144) - https://sketch.com -->
    <title>Icon/Pathways/wellbeing</title>
    <desc>Created with Sketch.</desc>
    <g id="Icon/Pathways/wellbeing" stroke="none" stroke-width="1" fill="none" fill-rule="evenodd">
        <g id="meditation" transform="translate(3.000000, 6.000000)" fill="#2C44EC" fill-rule="nonzero">
            <path d="M20.737643,17.0957565 L19.9076797,15.8096924 C19.7723907,15.5999985 19.4898387,15.53788 19.2762715,15.6705399 C19.062883,15.8033752 18.999617,16.0809784 19.1347273,16.2904968 L19.9648693,17.5767365 C20.1124898,17.8055573 20.0771038,18.1096573 19.8806934,18.3000488 C19.7568423,18.4200745 19.5865247,18.4800873 19.4129902,18.4648209 C19.2396344,18.449379 19.0828993,18.3605881 18.9826389,18.2207336 L15.4048968,13.2247543 L13.9864175,9.90229036 L13.9864175,9.5118561 C13.9864175,9.26390837 13.7816074,9.06263735 13.5289011,9.06263735 C13.2763736,9.06263735 13.0713848,9.26390837 13.0713848,9.5118561 L13.0713848,15.4982223 L7.91896448,15.4982223 L7.91896448,9.99827573 C7.91896448,9.99687193 7.91896448,9.99529265 7.91896448,9.99371338 L7.91896448,9.5118561 C7.91896448,9.26390837 7.71415441,9.06263735 7.46144814,9.06263735 C7.20874183,9.06263735 7.0039318,9.26390837 7.0039318,9.5118561 L7.0039318,9.90685271 L5.58759701,13.2247543 L2.00967625,18.2207336 C1.90959456,18.3604126 1.75268077,18.449379 1.57932495,18.4646454 C1.40614788,18.4799118 1.23547282,18.4200745 1.11162173,18.2998734 C0.915211386,18.1096573 0.879825379,17.8055573 1.02744586,17.576561 L4.20700572,12.6498947 C4.22684335,12.6193619 4.24257048,12.5868988 4.2543658,12.552681 L5.61404717,8.58253481 C6.09300959,7.18381501 7.42481106,6.24414062 8.92764499,6.24414062 L12.0646702,6.24414062 C13.5676828,6.24414062 14.8993056,7.18381501 15.378268,8.58253481 L16.7381281,12.552681 C16.7497447,12.5868988 16.7656505,12.6193619 16.7853094,12.6498947 L17.4065308,13.6127319 C17.4937449,13.747673 17.6419015,13.8215485 17.7934538,13.8215485 C17.8772723,13.8215485 17.9619843,13.798912 18.0379391,13.751709 C18.2513276,13.6188736 18.3147723,13.3412704 18.1794832,13.131752 L17.5877502,12.2148895 L16.2455831,8.29615786 C15.6956699,6.69020083 14.2548509,5.56417083 12.5709763,5.37430574 C13.0688828,4.86577605 13.3760978,4.17580413 13.3760978,3.41634368 L13.3760978,2.82762144 C13.3760978,1.26851653 12.0841503,-5.68434189e-14 10.4960682,-5.68434189e-14 C8.90816482,-5.68434189e-14 7.61621732,1.26851653 7.61621732,2.82762144 L7.61621732,3.41634368 C7.61621732,4.17580413 7.9232537,4.86577605 8.42133884,5.37430574 C6.73746427,5.56417083 5.29664521,6.69020083 4.74655332,8.29615786 L3.40456493,12.2148895 L0.254493464,17.0957565 C-0.122063941,17.679039 -0.0318116601,18.4544678 0.468954248,18.9394836 C0.69628268,19.1597061 0.985268575,19.3006134 1.2940921,19.347641 C1.2939134,19.3481674 1.29373469,19.3485184 1.29373469,19.3488693 C1.05193017,19.9839172 1.06122342,20.6798553 1.3198274,21.3084106 C1.74839156,22.3502121 2.77565871,23 3.8745915,23 C4.11121324,23 4.35140931,22.9698181 4.58946078,22.9068222 L10.4960682,21.345787 L16.4026757,22.9068222 C16.6407271,22.9698181 16.8807445,23 17.1175449,23 C18.2161203,23 19.2435662,22.3500366 19.6721303,21.3084106 C19.9307343,20.6798553 19.9400276,19.9839172 19.6984017,19.3488693 C19.698223,19.3485184 19.6980443,19.3481674 19.6978656,19.347641 C20.0066891,19.3006134 20.2956751,19.1597061 20.5231822,18.9394836 C21.0239481,18.4546432 21.1142004,17.6792145 20.737643,17.0957565 L20.737643,17.0957565 Z M8.53125,2.82762144 C8.53125,1.7638855 9.41268382,0.8984375 10.4962469,0.8984375 C11.5796313,0.8984375 12.4610651,1.7638855 12.4610651,2.82762144 L12.4610651,3.41634368 C12.4610651,4.48025513 11.5796313,5.34570312 10.4962469,5.34570312 C9.41268382,5.34570312 8.53125,4.48007966 8.53125,3.41634368 L8.53125,2.82762144 Z M14.5799377,13.6169434 C14.5926266,13.6467743 14.6087112,13.6753769 14.6276552,13.7016983 L17.2081546,17.304924 L13.9864175,15.6919479 L13.9864175,12.2264709 L14.5799377,13.6169434 Z M6.36465992,13.7016983 C6.38360397,13.6753769 6.3995098,13.6467743 6.41219875,13.6169434 L7.0039318,12.2310333 L7.0039318,15.6930008 L3.78398181,17.304924 L6.36465992,13.7016983 Z M18.8239379,20.972023 C18.4759753,21.8174667 17.5373519,22.2763367 16.6405484,22.039444 L12.0119485,20.8160248 C12.382787,20.5289459 12.6138685,20.0849915 12.6138685,19.6003265 C12.6138685,19.5834808 12.6129749,19.5668106 12.6124387,19.5501404 L15.4726307,20.2134399 C15.5080168,20.2216873 15.5434028,20.2255478 15.5782527,20.2255478 C15.7855648,20.2255478 15.9733966,20.0862198 16.0230801,19.879509 C16.0811632,19.6380539 15.928896,19.3960724 15.682981,19.3390427 L12.2614379,18.5455399 C12.2342729,18.5392227 12.2069291,18.5358887 12.1797641,18.5344849 C12.1290084,18.4823685 12.0746783,18.4327087 12.0158803,18.387085 C11.6359273,18.0919342 11.1474929,17.9854202 10.6758578,18.0945663 L5.30933415,19.3390427 C5.06341912,19.3960724 4.91115196,19.6380539 4.96923508,19.879509 C5.0273182,20.120964 5.27359069,20.2704697 5.51968442,20.2134399 L10.8860294,18.9689636 C11.0840482,18.9229889 11.2888583,18.9677353 11.4480954,19.0916214 C11.6075112,19.2155075 11.6988358,19.4009857 11.6988358,19.6003265 C11.6988358,19.8931961 11.4976001,20.150795 11.2096865,20.2269516 L10.3950929,20.4422607 C10.3854422,20.4443665 10.3761489,20.4469986 10.3668556,20.4496307 L4.35176677,22.0392685 C3.45496324,22.2763367 2.51633987,21.8174667 2.16837724,20.972023 C1.80879799,20.0976257 2.18267462,19.1151352 3.03819444,18.6867981 L7.61282168,16.3966598 L13.3794935,16.3966598 L17.9541207,18.6867981 C18.8096405,19.1153107 19.1836959,20.0976257 18.8239379,20.972023 L18.8239379,20.972023 Z" id="Shape" stroke="#2C44EC" stroke-width="0.5"></path>
            <path d="M18.283318,14.9940796 C18.3726767,15.0819931 18.4899152,15.1260376 18.6073325,15.1260376 C18.7242136,15.1260376 18.8410948,15.0823441 18.9304534,14.9947815 L18.9474316,14.9782868 C19.1263276,14.8029862 19.1266851,14.5185394 18.9481465,14.3428879 C18.7697865,14.1672363 18.4800858,14.1668854 18.3011898,14.3420105 L18.2842116,14.3586807 C18.1053156,14.5339813 18.1049581,14.8184281 18.283318,14.9940796 Z" id="Path"></path>
        </g>
    </g>
</svg>