<?xml version="1.0" encoding="UTF-8"?>
<svg width="28px" height="36px" viewBox="0 0 28 36" version="1.1" xmlns="http://www.w3.org/2000/svg" xmlns:xlink="http://www.w3.org/1999/xlink">
    <!-- Generator: Sketch 59.1 (86144) - https://sketch.com -->
    <title>Icon/ordermedication</title>
    <desc>Created with Sketch.</desc>
    <g id="Icon/ordermedication" stroke="none" stroke-width="1" fill="none" fill-rule="evenodd">
        <g id="drugs" transform="translate(2.000000, 6.000000)" fill="#25C09E" fill-rule="nonzero" stroke="#25C09E" stroke-width="0.5">
            <path d="M20.7435322,12.1872749 L22.1021754,10.8286316 C24.570152,8.36065497 24.5704327,4.36603509 22.1021754,1.89782456 C19.6342924,-0.570105263 15.6396257,-0.570432749 13.1714152,1.89782456 C12.6446316,2.42451462 2.32888889,12.7403509 1.85108772,13.218152 C-0.61688889,15.6861287 -0.617169592,19.6807485 1.85108772,22.1489591 C4.31897076,24.6168889 8.31363743,24.6172164 10.781848,22.1489591 L12.140538,20.7903158 C13.2266667,22.7042807 15.2833216,23.9985965 17.6367719,23.9985965 C21.1188772,23.9985965 23.9518129,21.1656608 23.9518129,17.6835556 C23.9518129,15.3300585 22.6575439,13.2734035 20.7435322,12.1872749 Z M11.321731,17.6835088 C11.321731,18.2746199 11.4036023,18.8469708 11.5561637,19.3900351 L9.78956725,21.1566316 C7.87008187,23.0760702 4.7631345,23.0763509 2.8434152,21.1566316 C0.923929823,19.237193 0.923649122,16.1301988 2.8434152,14.2104795 L7.96458479,9.08930994 L12.6669006,13.7915789 C11.8245614,14.8648421 11.321731,16.2165614 11.321731,17.6835088 Z M16.9350643,22.5448889 C14.5579415,22.2033684 12.7250526,20.1536374 12.7250526,17.6835088 C12.7250526,15.2133801 14.5579415,13.1636491 16.9350643,12.8221287 L16.9350643,22.5448889 L16.9350643,22.5448889 Z M13.6498713,12.7899883 L8.9568655,8.09698246 L14.1636959,2.89015205 C16.0831813,0.97071345 19.1901287,0.970432749 21.109848,2.89015205 C23.0293333,4.80959064 23.029614,7.9165848 21.109848,9.83630409 L19.3432515,11.6029006 C18.8001871,11.4502924 18.227883,11.3684678 17.6367719,11.3684678 C16.1261287,11.3684678 14.7378713,11.9019415 13.6498713,12.7899883 Z M18.3384327,22.5448889 L18.3384327,12.8221754 C20.7155556,13.1636959 22.5484444,15.2134269 22.5484444,17.6835556 C22.5484444,20.1536374 20.7155556,22.2033684 18.3384327,22.5448889 Z" id="Shape"></path>
        </g>
    </g>
</svg>