<?xml version="1.0" encoding="UTF-8"?>
<svg width="28px" height="36px" viewBox="0 0 28 36" version="1.1" xmlns="http://www.w3.org/2000/svg" xmlns:xlink="http://www.w3.org/1999/xlink">
    <!-- Generator: Sketch 59.1 (86144) - https://sketch.com -->
    <title>Icon/Pathways/Rash</title>
    <desc>Created with Sketch.</desc>
    <g id="Icon/Pathways/Rash" stroke="none" stroke-width="1" fill="none" fill-rule="evenodd">
        <g id="allergy" transform="translate(1.000000, 4.000000)" fill="#25C09E" fill-rule="nonzero" stroke="#25C09E">
            <path d="M6.67284747,20.9703713 C6.52899374,20.9703713 6.387705,21.0282975 6.28596,21.1302563 C6.184215,21.2320013 6.12564747,21.3730763 6.12564747,21.5175713 C6.12564747,21.661425 6.184215,21.8020725 6.28596,21.9044587 C6.38834626,22.0062037 6.52899374,22.06413 6.67284747,22.06413 C6.81670126,22.06413 6.95799,22.0062037 7.06016253,21.9044587 C7.16212126,21.8020725 7.22004747,21.661425 7.22004747,21.5175713 C7.22004747,21.3730763 7.16212126,21.2324287 7.06016253,21.1302563 C6.95799,21.0282975 6.81734253,20.9703713 6.67284747,20.9703713 Z" id="Path" stroke-width="1.026"></path>
            <path d="M11.1686513,21.784545 C11.1686513,21.6406913 11.1100837,21.4996163 11.0083387,21.3976575 C10.9065937,21.2959125 10.765305,21.237345 10.6214513,21.237345 C10.4769563,21.237345 10.3363087,21.2959125 10.2345637,21.3976575 C10.1321775,21.4996163 10.0742513,21.6406913 10.0742513,21.784545 C10.0742513,21.9286125 10.1321775,22.0696875 10.2345637,22.1714325 C10.3363087,22.2731775 10.4769563,22.331745 10.6214513,22.331745 C10.765305,22.331745 10.9065937,22.2731775 11.0083387,22.1714325 C11.1100837,22.0696875 11.1686513,21.9286125 11.1686513,21.784545 Z" id="Path" stroke-width="1.026"></path>
            <path d="M11.5324537,24.1616587 C11.3879587,24.1616587 11.2473113,24.2202263 11.1455663,24.3219713 C11.0433937,24.4237163 10.9852537,24.565005 10.9852537,24.7088587 C10.9852537,24.8533537 11.0433937,24.9940013 11.1455663,25.0957463 C11.2473113,25.1974913 11.3879587,25.2560587 11.5324537,25.2560587 C11.6763075,25.2560587 11.8175963,25.1974913 11.9193413,25.0957463 C12.0210863,24.9940013 12.0796537,24.8533537 12.0796537,24.7088587 C12.0796537,24.565005 12.0210863,24.4237163 11.9193413,24.3219713 C11.8175963,24.2202263 11.6763075,24.1616587 11.5324537,24.1616587 Z" id="Path" stroke-width="1.026"></path>
            <path d="M8.36211374,18.8232525 C8.21761874,18.8232525 8.07697126,18.88182 7.97522626,18.983565 C7.87284,19.08531 7.81491374,19.226385 7.81491374,19.3704525 C7.81491374,19.5143063 7.87284,19.6553813 7.97522626,19.75734 C8.07697126,19.859085 8.21804626,19.9176525 8.36211374,19.9176525 C8.50596747,19.9176525 8.64704253,19.859085 8.74900126,19.75734 C8.85074626,19.6553813 8.90931374,19.5143063 8.90931374,19.3704525 C8.90931374,19.226385 8.85074626,19.08531 8.74900126,18.983565 C8.64704253,18.88182 8.50596747,18.8232525 8.36211374,18.8232525 Z" id="Path" stroke-width="1.026"></path>
            <path d="M10.6355587,17.7895575 C10.7375175,17.6871713 10.7958713,17.5465237 10.7958713,17.40267 C10.7958713,17.258175 10.7375175,17.1175275 10.6355587,17.0157825 C10.5338137,16.9133963 10.3927387,16.85547 10.2486713,16.85547 C10.1048175,16.85547 9.96374253,16.9133963 9.86199747,17.0157825 C9.76003874,17.1175275 9.701685,17.258175 9.701685,17.40267 C9.701685,17.5465237 9.76003874,17.6878125 9.86199747,17.7895575 C9.96374253,17.8913025 10.1048175,17.94987 10.2486713,17.94987 C10.3927387,17.94987 10.5338137,17.8913025 10.6355587,17.7895575 Z" id="Path" stroke-width="1.026"></path>
            <path d="M8.25310126,15.4590413 C8.25310126,15.3151875 8.19453374,15.1738987 8.09278874,15.0721537 C7.99104374,14.9704087 7.84996874,14.9118413 7.70590126,14.9118413 C7.56204747,14.9118413 7.42075874,14.9704087 7.31901374,15.0721537 C7.21726874,15.1738987 7.15870126,15.3151875 7.15870126,15.4590413 C7.15870126,15.6035363 7.21726874,15.7441837 7.31901374,15.8459287 C7.42075874,15.948315 7.56204747,16.0062413 7.70590126,16.0062413 C7.84996874,16.0062413 7.99104374,15.948315 8.09278874,15.8459287 C8.19453374,15.7441837 8.25310126,15.6035363 8.25310126,15.4590413 Z" id="Path" stroke-width="1.026"></path>
            <path d="M6.43088253,17.6937975 C6.43088253,17.5499437 6.37252874,17.4092963 6.27057,17.30691 C6.168825,17.205165 6.02817747,17.1465975 5.88368253,17.1465975 C5.73982874,17.1465975 5.59875374,17.205165 5.49700874,17.30691 C5.39505,17.4092963 5.33669626,17.5499437 5.33669626,17.6937975 C5.33669626,17.8382925 5.39505,17.97894 5.49700874,18.080685 C5.59875374,18.1830713 5.73982874,18.2409975 5.88368253,18.2409975 C6.02817747,18.2409975 6.168825,18.1830713 6.27057,18.080685 C6.37252874,17.97894 6.43088253,17.8382925 6.43088253,17.6937975 Z" id="Path" stroke-width="1.026"></path>
            <path d="M23.4975375,6.03245253 C22.1132925,3.47065874 19.7802113,1.615095 16.7509463,0.666258736 C14.5352137,-0.0280012637 12.7226137,-0.00277874726 12.5640113,0.00106874726 C9.59844374,0.0029925 7.01142747,1.247445 5.811435,3.24964126 C5.65304626,3.51383626 5.52116253,3.78765 5.41535626,4.06937253 C4.84998747,4.60780874 2.29995,7.24356 2.29995,10.9805513 C2.29995,13.46967 1.10273626,14.7690563 0.389238736,15.3220275 C0.122265,15.5289375 -0.0220162637,15.8536237 0.00277874726,16.1907075 C0.0277874726,16.528005 0.218452527,16.82811 0.512786264,16.9937663 C0.781683736,17.1448875 1.08414,17.2900237 1.37655,17.4302437 C1.63518747,17.5542187 2.00241,17.7303487 2.18153253,17.8451325 L2.18153253,18.81855 C2.18153253,18.9517163 2.15609626,19.0816763 2.10607874,19.20501 L1.97034747,19.5386737 C1.78481253,19.9956713 1.85299874,20.5189313 2.14776,20.912445 L2.14776,21.0323587 C2.14776,21.3871837 2.30401126,21.7155037 2.56393126,21.9382313 L2.56393126,22.5799087 C2.56393126,23.9556037 3.68334,25.0750125 5.059035,25.0750125 L6.67306126,25.0750125 C7.73732253,25.0750125 8.73639,25.5959213 9.34557747,26.4684487 L10.26342,27.7827975 C10.3658063,27.92943 10.5331725,28.01664 10.7120813,28.01664 L19.9503563,28.01664 C20.1260587,28.01664 20.2910737,27.9324225 20.3938875,27.7898513 C20.4967013,27.6474937 20.5249163,27.46431 20.4697687,27.297585 L18.9036225,22.5628087 C19.91979,22.3612425 20.8735425,21.8764575 21.6458213,21.1413713 C23.6516513,19.23237 24.8499337,16.6925925 25.11135,13.7967075 C25.3494675,11.1564675 24.7764037,8.39887874 23.4975375,6.03245253 Z M10.9974375,26.92224 L10.2429,25.8417337 C9.42894,24.6763687 8.09449874,23.9803987 6.67306126,23.9803987 L5.059035,23.9803987 C4.28675626,23.9803987 3.65833126,23.3521875 3.65833126,22.5799087 L3.65833126,21.63663 C3.65833126,21.4175363 3.52751626,21.2196037 3.32595,21.1334625 L3.30222374,21.1232025 C3.26567253,21.1078125 3.24216,21.0719025 3.24216,21.0323587 L3.24216,20.7237037 C3.24216,20.6010113 3.20090626,20.4817387 3.125025,20.3853375 L3.02841,20.2628587 C2.95894126,20.1743663 2.942055,20.05488 2.98437747,19.95057 L3.119895,19.6169063 C3.22356374,19.3621163 3.27593253,19.0934325 3.27593253,18.81855 L3.27593253,17.6546813 C3.27593253,17.1277875 2.73920626,16.8702187 1.85022,16.4435737 C1.61701874,16.3317825 1.37719126,16.216785 1.16493747,16.1032837 C2.044305,15.3852975 3.39435,13.8200063 3.39435,10.9805513 C3.39435,8.92662747 4.308345,7.21470374 5.10157126,6.115815 C5.14517626,7.06785747 5.43331126,8.063505 5.96619,9.06022126 C7.369245,11.68443 9.81240747,12.7841737 11.7757013,13.66803 C13.643235,14.5087087 14.7002287,15.03774 14.708565,16.1376975 C14.7147637,16.9454587 14.529015,17.5396837 14.1566625,17.9039137 C13.7265975,18.3245737 13.1560987,18.3136725 13.1522513,18.3136725 C12.96864,18.3008475 12.7965713,18.3810037 12.6845663,18.526995 C12.572775,18.6729863 12.5473387,18.8660025 12.6076163,19.0397813 C12.6099675,19.0466213 12.63177,19.1086087 12.673665,19.21185 C13.3649325,20.91159 14.8511363,22.1575387 16.649415,22.5444263 C17.0271113,22.625865 17.4078,22.6664775 17.7861375,22.6690425 L19.19304,26.92224 L10.9974375,26.92224 Z M20.8912837,20.3485725 C20.1341813,21.0693375 19.1915437,21.4863637 18.1922625,21.5645963 C18.1582763,21.5637413 18.1238625,21.5658787 18.0896625,21.57165 C17.6918737,21.5934525 17.2857487,21.5620313 16.87941,21.4746075 C15.5907113,21.19716 14.5356413,20.4099187 13.9170487,19.2826013 C14.2274137,19.18449 14.5830937,19.010925 14.9032913,18.7041937 C15.508845,18.1240763 15.811515,17.2577475 15.802965,16.1291475 C15.7886437,14.274225 14.0576963,13.4948925 12.22479,12.6698175 C10.3187813,11.811825 8.15841,10.8394763 6.93127126,8.54422874 C6.16903874,7.11851626 5.98970253,5.76312747 6.39561374,4.57446374 C6.39753747,4.56976126 6.39903374,4.56505874 6.40074374,4.56035626 C6.48987747,4.30278747 6.60594374,4.05291374 6.750225,3.81201747 C7.75442253,2.13643126 9.98490374,1.09546874 12.5708513,1.09546874 C12.576195,1.09546874 12.581325,1.095255 12.5866687,1.095255 C12.603555,1.09448671 14.32638,1.05336 16.4239087,1.71042747 C19.2150563,2.58487874 21.2711175,4.21386747 22.5348075,6.55250626 C24.6370387,10.44297 25.0194375,16.4196337 20.8912837,20.3485725 L20.8912837,20.3485725 Z" id="Shape" stroke-width="0.9"></path>
            <path d="M12.648015,2.62378126 C12.6279225,2.62378126 12.6059063,2.62485 12.5858137,2.62720126 C12.285495,2.66054626 12.06918,2.93115374 12.102525,3.23147253 C12.1335187,3.51127126 12.3705675,3.71818126 12.6456637,3.71818126 C12.651435,3.71818126 12.6572063,3.71818126 12.6629775,3.71796747 C12.95838,3.71005874 13.1954287,3.46809374 13.1954287,3.17098126 C13.195215,2.86873874 12.9502575,2.62378126 12.648015,2.62378126 Z" id="Path" stroke-width="0.9"></path>
            <path d="M15.9666975,3.16991253 C15.63453,3.06603 15.2893237,2.974545 14.9400563,2.89845 C14.6448675,2.83411126 14.3533125,3.02092874 14.28876,3.31633126 C14.2244213,3.61152 14.4114525,3.903075 14.7066413,3.96762747 C15.0244875,4.03688253 15.3382725,4.12003126 15.6394463,4.214295 C17.7555713,4.87713374 19.2988463,6.08353874 20.2263075,7.79995126 C20.3252737,7.983135 20.5135875,8.08723126 20.7083137,8.08723126 C20.7959513,8.08723126 20.885085,8.06585626 20.96802,8.02118253 C21.2337113,7.87754253 21.3328913,7.54558874 21.1892513,7.27968374 C20.1213563,5.30377874 18.3643313,3.92103 15.9666975,3.16991253 L15.9666975,3.16991253 Z" id="Path" stroke-width="0.9"></path>
        </g>
    </g>
</svg>