<?xml version="1.0" encoding="UTF-8"?>
<svg width="28px" height="36px" viewBox="0 0 28 36" version="1.1" xmlns="http://www.w3.org/2000/svg" xmlns:xlink="http://www.w3.org/1999/xlink">
    <!-- Generator: Sketch 59.1 (86144) - https://sketch.com -->
    <title>Icon/Pathways/Smoking</title>
    <desc>Created with Sketch.</desc>
    <defs>
        <polygon id="path-1" points="0 23.981686 23.9816354 23.981686 23.9816354 0.0661157025 0 0.0661157025"></polygon>
    </defs>
    <g id="Icon/Pathways/Smoking" stroke="none" stroke-width="1" fill="none" fill-rule="evenodd">
        <g id="Group-17" transform="translate(2.000000, 6.000000)">
            <g id="Group-3" transform="translate(0.000000, 0.047802)" fill="#25C09E" stroke="#25C09E" stroke-width="0.5">
                <path d="M11.9908044,1.40676364 C6.14680442,1.40676364 1.39228508,6.14811901 1.39228508,11.976086 C1.39228508,17.8040529 6.14680442,22.5454744 11.9908044,22.5454744 C17.8348044,22.5454744 22.5893238,17.8040529 22.5893238,11.976086 C22.5893238,6.14811901 17.8348044,1.40676364 11.9908044,1.40676364 M11.9908044,23.9339041 C5.37900331,23.9339041 1.98895028e-05,18.5696727 1.98895028e-05,11.976086 C1.98895028e-05,5.38256529 5.37900331,0.0183338843 11.9908044,0.0183338843 C18.6026055,0.0183338843 23.981589,5.38256529 23.981589,11.976086 C23.981589,18.5696727 18.6026055,23.9339041 11.9908044,23.9339041" id="Fill-1"></path>
            </g>
            <path d="M14.379421,10.3272132 L13.400526,10.3272132 L13.400526,10.3303868 C12.7480177,10.3303868 12.216968,9.70513058 12.216968,9.05441983 C12.216968,8.40357686 12.7480177,7.93785785 13.400526,7.93785785 L13.400526,6.98083306 C12.2202166,6.98083306 11.2572994,7.93785785 11.2572994,9.11822149 C11.2572994,10.298519 12.216968,11.2556099 13.400526,11.2556099 L13.400526,11.2523702 L14.379421,11.2523702 C15.0479735,11.2523702 15.6398188,11.7245025 15.6398188,12.5635107 L15.6398188,13.3929322 L16.599421,13.3929322 L16.599421,12.3433455 C16.599421,11.1949157 15.5757746,10.3272132 14.379421,10.3272132" id="Fill-4" fill="#25C09E"></path>
            <path d="M15.7061039,13.3267901 L16.5331757,13.3267901 L16.5331757,12.343319 C16.5331757,11.2680793 15.5669436,10.3933025 14.3794077,10.3933025 L13.400579,10.3965421 C12.7347448,10.3965421 12.1506564,9.7693686 12.1506564,9.05439339 C12.1506564,8.40123636 12.6549215,7.90364959 13.3342807,7.87323636 L13.3342807,7.04798017 C12.2195403,7.08295537 11.3235845,7.99819504 11.3235845,9.11819504 C11.3235845,10.242757 12.2268331,11.1608397 13.3478055,11.1888066 L13.400579,11.1862281 L14.3794077,11.1862281 C15.0183912,11.1862281 15.7061039,11.6172364 15.7061039,12.5634843 L15.7061039,13.3267901 Z M16.6657724,13.4590215 L15.5735072,13.4590215 L15.5735072,12.5634843 C15.5735072,11.7080793 14.9545459,11.3184595 14.3794077,11.3184595 L13.400579,11.3216992 C12.1822144,11.3216992 11.1909878,10.3332033 11.1909878,9.11819504 C11.1909878,7.90318678 12.1822144,6.91475702 13.400579,6.91475702 L13.4668773,6.91475702 L13.4668773,8.00394711 L13.400579,8.00394711 C12.7635845,8.00394711 12.283253,8.45551736 12.283253,9.05439339 C12.283253,9.68282314 12.7795624,10.2360132 13.3560928,10.2632529 L13.400579,10.2610711 L14.3794077,10.2610711 C15.640137,10.2610711 16.6657724,11.1952198 16.6657724,12.343319 L16.6657724,13.4590215 Z" id="Fill-6" fill="#25C09E"></path>
            <mask id="mask-2" fill="white">
                <use xlink:href="#path-1"></use>
            </mask>
            <g id="Clip-9"></g>
            <polygon id="Fill-8" fill="#25C09E" mask="url(#mask-2)" points="15.6397127 15.9449256 16.5994475 15.9449256 16.5994475 14.030876 15.6397127 14.030876"></polygon>
            <path d="M15.706011,15.8788099 L16.5331492,15.8788099 L16.5331492,14.0969917 L15.706011,14.0969917 L15.706011,15.8788099 Z M15.5734144,16.0110413 L16.6657459,16.0110413 L16.6657459,13.9647603 L15.5734144,13.9647603 L15.5734144,16.0110413 Z" id="Fill-10" fill="#25C09E" mask="url(#mask-2)"></path>
            <polygon id="Fill-11" fill="#25C09E" mask="url(#mask-2)" points="5.40331492 15.9449256 15 15.9449256 15 14.030876 5.40331492 14.030876"></polygon>
            <path d="M5.46961326,15.8788099 L14.9337017,15.8788099 L14.9337017,14.0969917 L5.46961326,14.0969917 L5.46961326,15.8788099 Z M5.33701657,16.0110413 L15.0662983,16.0110413 L15.0662983,13.9647603 L5.33701657,13.9647603 L5.33701657,16.0110413 Z" id="Fill-12" fill="#25C09E" mask="url(#mask-2)"></path>
            <path d="M16.1835912,8.7545124 C16.5770718,8.36852893 16.8233039,7.82935537 16.8233039,7.23603306 C16.8233039,6.05566942 15.860453,5.09871074 14.6800773,5.09871074 L14.6800773,6.05566942 C15.3326519,6.05566942 15.8637017,6.5852562 15.8637017,7.23603306 C15.8637017,7.88680992 15.3326519,8.41639669 14.6800773,8.41639669 L14.6800773,9.37342149 C16.1163646,9.37342149 17.2391934,10.5377851 17.2391934,11.9701157 L17.2391934,13.3929256 L18.1988619,13.3929256 L18.1988619,11.9669421 C18.1988619,10.5473058 17.3799448,9.32231405 16.1835912,8.7545124" id="Fill-13" fill="#25C09E" mask="url(#mask-2)"></path>
            <path d="M17.3054851,13.3267901 L18.1326232,13.3267901 L18.1326232,11.9669223 C18.1326232,10.6218645 17.3564022,9.38437686 16.1550762,8.81419504 L16.0695514,8.7736 L16.1371094,8.70735207 C16.5368221,8.31515372 16.7570652,7.79264132 16.7570652,7.23601322 C16.7570652,6.11601322 15.8611094,5.20083967 14.7463691,5.16579835 L14.7463691,5.99131901 C15.4048442,6.0258314 15.9299934,6.57088926 15.9299934,7.23601322 C15.9299934,7.90113719 15.4048442,8.44626116 14.7463691,8.48077355 L14.7463691,9.30807934 C16.1867006,9.34265785 17.3054851,10.4994843 17.3054851,11.9700959 L17.3054851,13.3267901 Z M18.2652199,13.4590215 L17.1728884,13.4590215 L17.1728884,11.9700959 C17.1728884,10.5511207 16.077905,9.43951736 14.6800707,9.43951736 L14.6137724,9.43951736 L14.6137724,8.35026116 L14.6800707,8.35026116 C15.2961812,8.35026116 15.7973967,7.85042645 15.7973967,7.23601322 C15.7973967,6.6216 15.2961812,6.12176529 14.6800707,6.12176529 L14.6137724,6.12176529 L14.6137724,5.03257521 L14.6800707,5.03257521 C15.8984354,5.03257521 16.8896619,6.02100496 16.8896619,7.23601322 C16.8896619,7.7976 16.6791646,8.3264595 16.2948994,8.73545124 C17.4948994,9.3441124 18.2652199,10.6022942 18.2652199,11.9669223 L18.2652199,13.4590215 Z" id="Fill-14" fill="#25C09E" mask="url(#mask-2)"></path>
            <polygon id="Fill-15" fill="#25C09E" mask="url(#mask-2)" points="17.2392265 15.9449256 18.198895 15.9449256 18.198895 14.030876 17.2392265 14.030876"></polygon>
            <path d="M17.3055249,15.8788099 L18.1325967,15.8788099 L18.1325967,14.0969917 L17.3055249,14.0969917 L17.3055249,15.8788099 Z M17.1729282,16.0110413 L18.2651934,16.0110413 L18.2651934,13.9647603 L17.1729282,13.9647603 L17.1729282,16.0110413 Z" id="Fill-16" fill="#25C09E" mask="url(#mask-2)"></path>
        </g>
    </g>
</svg>