<?xml version="1.0" encoding="UTF-8"?>
<svg width="28px" height="36px" viewBox="0 0 28 36" version="1.1" xmlns="http://www.w3.org/2000/svg" xmlns:xlink="http://www.w3.org/1999/xlink">
    <!-- Generator: Sketch 59.1 (86144) - https://sketch.com -->
    <title>Icon/Pathways/Sore throat</title>
    <desc>Created with Sketch.</desc>
    <g id="Icon/Pathways/Sore-throat" stroke="none" stroke-width="1" fill="none" fill-rule="evenodd">
        <g id="sore-throat" transform="translate(3.000000, 5.000000)" fill="#8E2AB9" fill-rule="nonzero" stroke="#8E2AB9" stroke-width="0.9">
            <path d="M17.24265,1.1797 C15.6887,0.3797 13.93405,0 12.19225,0 C6.65315,0 1.2309,3.8383 2.70865,10.20625 L1.7348,11.38435 L0.0149,14.53355 L1.68835,15.864 L1.6188,18.1007 L2.28755,19.0593 C2.28755,19.0593 1.49105,22.0515 2.70865,22.4757 C3.8528,22.8749 5.09965,22.97415 6.05475,22.97415 C6.99535,22.97415 7.6532,22.87805 7.6532,22.87805 L7.7864,25.6 L12.2813,25.6 L13.3481,25.6 L19.0825,25.6 C19.0825,25.6 17.9653,19.9578 19.6622,17.5617 C21.3606,15.16485 26.8981,6.15 17.24265,1.1797 Z M12.2813,24.53285 L8.8024,24.53285 L8.8024,24.53285 L8.7188,22.82575 L8.66295,21.6531 L7.50085,21.82265 C7.495,21.82345 6.89615,21.9078 6.05475,21.9078 C5.28875,21.9078 4.17665,21.8367 3.1645,21.5039 C3.1188,21.36795 3.06215,21.02265 3.12975,20.3922 C3.1903,19.82345 3.31725,19.33675 3.3184,19.3336 L3.35395,19.2 L9.6059,19.2 L9.32895,19.31485 L10.4059,20.03595 L9.84225,20.59925 L11.11335,20.85315 L10.80825,21.58985 L12.07975,21.3383 L12.07975,22.1352 L12.2813,22.00005 L12.2813,24.53285 Z M11.2149,18.6664 C11.2149,17.7828 11.9313,17.0664 12.8149,17.0664 C13.6985,17.0664 14.4153,17.7828 14.4153,18.6664 C14.4153,19.55 13.6985,20.2664 12.8149,20.2664 C11.9313,20.2664 11.2149,19.55 11.2149,18.6664 Z M17.66995,22.5211 C17.69965,23.27815 17.7684,23.97655 17.8387,24.5328 L13.3481,24.5328 L13.3481,21.875 L13.46295,22.15235 L14.18405,21.0758 L14.7481,21.6391 L15.0012,20.368 L15.7379,20.6727 L15.48635,19.4016 L16.28325,19.4016 L15.5645,18.3235 L16.3012,18.0188 L15.22385,17.2969 L15.78715,16.7336 L14.51685,16.4797 L14.82155,15.74375 L13.55005,15.9953 L13.55005,15.19765 L12.47195,15.9172 L12.16685,15.1805 L11.44575,16.25785 L10.8821,15.6938 L10.6278,16.9649 L9.89185,16.6602 L10.1434,17.9313 L9.3465,17.9313 L9.4809,18.13285 L2.94225,18.13285 L2.69615,17.7805 L2.75435,15.8969 L2.77115,15.36175 L2.352,15.02895 L1.3813,14.25705 L2.6223,11.98515 L3.5305,10.88595 L3.86685,10.4789 L3.7477,9.9656 C3.4817,8.8195 3.45825,7.7312 3.67815,6.72965 C3.8793,5.8148 4.28325,4.97025 4.87895,4.22025 C5.64655,3.25465 6.7344,2.4523 8.02505,1.9007 C9.3028,1.3546 10.7438,1.0663 12.19225,1.0663 C13.8278,1.0663 15.4059,1.4335 16.75435,2.128 C18.16685,2.85535 19.2934,3.7108 20.10125,4.6694 C20.79735,5.4952 21.2739,6.42095 21.51845,7.4194 C21.91845,9.0577 21.72,10.935 20.9286,12.9991 C20.2544,14.76005 19.3005,16.2272 18.7919,16.9444 C17.9489,18.13515 17.57155,20.01095 17.66995,22.5211 Z" id="Shape"></path>
        </g>
    </g>
</svg>