<?xml version="1.0" encoding="UTF-8"?>
<svg width="141px" height="127px" viewBox="0 0 141 127" version="1.1" xmlns="http://www.w3.org/2000/svg" xmlns:xlink="http://www.w3.org/1999/xlink">
    <!-- Generator: Sketch 59.1 (86144) - https://sketch.com -->
    <title>Untitled</title>
    <desc>Created with Sketch.</desc>
    <g id="Page-1" stroke="none" stroke-width="1" fill="none" fill-rule="evenodd">
        <g id="sdi-icon" fill="#E8495C" fill-rule="nonzero">
            <path d="M81,84 C79.3431,84 78,85.3537863 78,87.0068842 C78,88.659982 79.3431,90 81,90 C82.6569,90 84,88.659982 84,87.0068842 L84,86.9793475 C84,85.3265489 82.6569,84 81,84 Z" id="Path"></path>
            <path d="M138.246094,0 L105.75,0 C104.229018,0 102.996094,1.23884756 102.996094,2.76713773 L102.996094,13.7335813 C102.996094,15.2618715 104.229018,16.500719 105.75,16.500719 L111.381463,16.500719 L104.018344,23.8992152 C97.2376758,19.466814 89.4149297,17.1360538 81.2487715,17.1360538 C79.3728105,17.1360538 77.4918926,17.2697066 75.6407168,17.518749 C68.0176289,7.06616292 55.7151035,0.265091795 41.859375,0.265091795 C18.7780605,0.265091795 0,19.1333739 0,42.3255853 C0,52.3160594 3.54675586,61.9993812 9.98731641,69.5921304 C15.8451504,76.4980761 23.7695156,81.3170464 32.4960937,83.3257117 L32.4960937,99.8820502 L24.234375,99.8820502 C22.7133926,99.8820502 21.4804687,101.120898 21.4804687,102.649188 L21.4804687,114.824594 C21.4804687,116.352884 22.7133926,117.591732 24.234375,117.591732 L32.4960937,117.591732 L32.4960937,124.232862 C32.4960937,125.761152 33.7290176,127 35.25,127 L48.46875,127 C49.9897324,127 51.2226562,125.761152 51.2226562,124.232862 L51.2226562,117.591732 L59.484375,117.591732 C61.0053574,117.591732 62.2382812,116.352884 62.2382812,114.824594 L62.2382812,102.649188 C62.2382812,101.120898 61.0053574,99.8820502 59.484375,99.8820502 L51.2226562,99.8820502 L51.2226562,88.5008127 C59.0385176,96.5883262 69.8219883,101.257041 81.2487715,101.257041 C104.330086,101.257041 123.108146,82.3887589 123.108146,59.1965474 C123.108146,51.4535426 121.023164,43.968435 117.058365,37.4072747 L124.574326,29.8552024 L124.574326,35.413552 C124.574326,36.9418422 125.80725,38.1806897 127.328232,38.1806897 L138.246094,38.1806897 C139.767076,38.1806897 141,36.9418422 141,35.413552 L141,2.76713773 C141,1.23884756 139.767076,0 138.246094,0 Z M48.0066445,78.3293678 C46.6831172,78.5557197 45.7148438,79.7082326 45.7148438,81.0572122 L45.7148438,102.649188 C45.7148438,104.177478 46.9477676,105.416326 48.46875,105.416326 L56.7304688,105.416326 L56.7304688,112.057456 L48.46875,112.057456 C46.9477676,112.057456 45.7148438,113.296304 45.7148438,114.824594 L45.7148438,121.465725 L38.0039063,121.465725 L38.0039063,114.824594 C38.0039063,113.296304 36.7709824,112.057456 35.25,112.057456 L26.9882813,112.057456 L26.9882813,105.416326 L35.25,105.416326 C36.7709824,105.416326 38.0039063,104.177478 38.0039063,102.649188 L38.0039063,81.0572122 C38.0039063,79.7082326 37.0356328,78.5557197 35.7121055,78.3293678 C18.2104805,75.3356015 5.5078125,60.1938238 5.5078125,42.3255853 C5.5078125,22.1849734 21.8150684,5.79936726 41.859375,5.79936726 C61.9036816,5.79936726 78.2109375,22.1849734 78.2109375,42.3255853 C78.2109375,60.1941005 65.5082695,75.3358782 48.0066445,78.3293678 Z M135.492188,32.6464143 L130.082139,32.6464143 L130.082139,23.1747785 C130.082139,22.055748 129.411012,21.0465729 128.382152,20.61822 C127.353018,20.189867 126.168563,20.426734 125.380945,21.2178587 L111.592412,35.0726406 C110.655258,36.0142976 110.518664,37.4933327 111.267176,38.5924398 C115.410428,44.6743319 117.600609,51.7991581 117.600609,59.1962707 C117.600609,79.3368827 101.293354,95.7224888 81.2490469,95.7224888 C70.4625469,95.7224888 60.3358828,90.9311898 53.4610312,82.7421224 C55.5573047,82.1341822 57.5985,81.3618741 59.567543,80.4365432 C63.1613906,84.1392502 67.615834,86.8632206 72.5403691,88.3461297 C72.803918,88.4255466 73.0702207,88.4631796 73.3321172,88.4631796 C74.5168477,88.4631796 75.6115254,87.6886578 75.9689824,86.489657 C76.4054766,85.0258411 75.5784785,83.4834386 74.1216621,83.0445705 C70.5798633,81.9781156 67.3335586,80.1255169 64.6011328,77.6326025 C67.9911914,75.4263636 71.0747402,72.7245303 73.7322598,69.5918537 C80.1719941,61.9993812 83.71875,52.3157827 83.71875,42.3255853 C83.71875,39.5960807 83.4554766,36.9274531 82.9589473,34.3412861 C95.8307051,35.2270469 106.034203,46.0307828 106.034203,59.1852021 C106.034203,70.1029441 98.7729785,79.914661 88.3761563,83.045124 C86.9190645,83.4837153 86.0920664,85.0261179 86.5288359,86.4902104 C86.886293,87.6892112 87.9806953,88.4637331 89.1657012,88.4637331 C89.4273223,88.4637331 89.693625,88.4258233 89.9574492,88.3466831 C96.0697441,86.5062598 101.564889,82.6618754 105.431098,77.5213636 C109.429219,72.205692 111.542291,65.8650726 111.542291,59.1854788 C111.542291,42.4794382 98.078168,28.8756357 81.4809258,28.7497309 C80.773998,26.6724406 79.9081699,24.6690329 78.9005156,22.7516832 C79.6823496,22.701598 80.4663867,22.6703293 81.2493223,22.6703293 C89.0321367,22.6703293 96.4550156,25.1076242 102.715195,29.7185058 C103.81125,30.5256799 105.329479,30.4089067 106.290592,29.4434523 L119.977781,15.6905011 C120.765398,14.8990997 121.000857,13.708677 120.574553,12.6748744 C120.148248,11.640795 119.144174,10.9667203 118.030219,10.9667203 L108.503906,10.9667203 L108.503906,5.53427547 L135.492188,5.53427547 L135.492188,32.6464143 Z" id="Shape"></path>
            <path d="M24.0904936,20.8440502 C22.9104197,19.7001459 21.0297237,19.7222937 19.8771838,20.8901416 C19.8664096,20.9009162 19.8529419,20.9146838 19.8442627,20.9236626 C18.6935186,22.1103661 18.7228483,24.0052008 19.9095064,25.155989 C20.4907145,25.7192616 21.2419155,26 21.9925179,26 C22.7664644,26 23.5395131,25.7016032 24.1246119,25.1081018 C24.1347875,25.0976265 24.1473574,25.0847568 24.1557373,25.0763766 C25.3064814,23.8896731 25.2771517,21.9948383 24.0904936,20.8440502 Z" id="Path"></path>
            <path d="M41.5,12 C36.9588273,12 32.5879,12.9748909 28.5086636,14.8977773 C27.1234091,15.5507545 26.5297682,17.2027455 27.1827455,18.588 C27.8357227,19.9729773 29.4877136,20.5666182 30.8729682,19.9139182 C34.2071727,18.3423364 37.7823273,17.5454545 41.5,17.5454545 C47.9424318,17.5454545 53.8222773,19.9995955 58.2544818,24.0219909 C46.3162273,31.7598409 39.0131409,45.0592273 39.0131409,59.4050409 C39.0131409,62.0968045 39.2723909,64.7713773 39.7753636,67.3938227 C26.8170227,66.5048864 16.5454545,55.6801591 16.5454545,42.5 C16.5454545,38.9911136 17.2583227,35.5997909 18.6640955,32.4203045 C19.2832455,31.0198 18.6499545,29.3822273 17.24945,28.7630773 C15.8489455,28.1439273 14.2113727,28.7772182 13.5922227,30.1777227 C11.8723,34.0681364 11,38.2139182 11,42.5 C11,59.3177 24.6823,73 41.5,73 C58.3177,73 72,59.3177 72,42.5 C72,25.6823 58.3177,12 41.5,12 Z M45.3840364,67.1514864 C44.8386409,64.6177682 44.5583182,62.0211091 44.5583182,59.4047636 C44.5585955,46.6707364 51.1873545,34.8885864 61.9663318,28.2395864 C63.1278273,29.9015591 64.0919045,31.7107636 64.8252909,33.6330955 C56.0601455,39.2048909 50.6585955,48.9754273 50.6585955,59.3936727 C50.6585955,61.4382818 50.8651636,63.4731864 51.2666545,65.4626182 C49.4097591,66.2553409 47.4380727,66.8290182 45.3840364,67.1514864 Z M56.3973091,62.5077227 C56.2692091,61.4779318 56.20405,60.4376045 56.20405,59.3936727 C56.20405,51.4972227 59.9988045,44.0566091 66.2596227,39.3781864 C66.3877227,40.4010455 66.4545455,41.4427591 66.4545455,42.4997227 C66.4545455,50.6803773 62.4975864,57.9537955 56.3973091,62.5077227 Z" id="Shape"></path>
        </g>
    </g>
</svg>