<?xml version="1.0" encoding="UTF-8"?>
<svg width="234px" height="187px" viewBox="0 0 234 187" version="1.1" xmlns="http://www.w3.org/2000/svg" xmlns:xlink="http://www.w3.org/1999/xlink">
    <!-- Generator: Sketch 51.2 (57519) - http://www.bohemiancoding.com/sketch -->
    <title>Group</title>
    <desc>Created with Sketch.</desc>
    <defs>
        <polygon id="path-1" points="234 0 234 156.005319 1.38851861e-14 156.005319 0 0"></polygon>
        <polygon id="path-3" points="0.145276172 0.344838207 6.34539727 0.344838207 6.34539727 6.54921298 0.145276172 6.54921298"></polygon>
        <polygon id="path-5" points="0 0.344838207 186 0.344838207 186 187 0 187"></polygon>
    </defs>
    <g id="Web-App" stroke="none" stroke-width="1" fill="none" fill-rule="evenodd">
        <g id="400---Bad-Request" transform="translate(-603.000000, -272.000000)">
            <g id="Group" transform="translate(603.000000, 272.000000)">
                <g id="ic_Notification" transform="translate(0.000000, 15.000000)">
                    <g id="Page-1" transform="translate(0.000000, 0.914894)">
                        <mask id="mask-2" fill="white">
                            <use xlink:href="#path-1"></use>
                        </mask>
                        <g id="Clip-2"></g>
                        <path d="M7.79995122,109.203772 L27.3000732,109.203772 C22.9925136,109.203772 19.500122,112.696338 19.500122,117.003623 C19.500122,121.311397 22.9925136,124.80445 27.3000732,124.80445 L38.9997561,124.80445 C34.6921966,124.80445 31.1998049,128.297016 31.1998049,132.60479 C31.1998049,136.912563 38.5924161,140.404641 42.8999756,140.404641 L35.1000244,140.404641 C30.7924649,140.404641 27.3000732,143.897694 27.3000732,148.204492 C27.3000732,152.512266 30.7924649,156.005319 35.1000244,156.005319 L163.800439,156.005319 C168.107511,156.005319 171.60039,152.512266 171.60039,148.204492 C171.60039,143.897694 168.107511,140.404641 163.800439,140.404641 L218.400098,140.404641 C222.707657,140.404641 226.200537,136.912563 226.200537,132.60479 C226.200537,128.297016 222.707657,124.80445 218.400098,124.80445 L198.899976,124.80445 C203.207535,124.80445 206.699927,121.311397 206.699927,117.003623 C206.699927,112.69585 203.207535,109.203772 198.899976,109.203772 L175.500122,109.203772 C179.807681,109.203772 183.300073,105.711207 183.300073,101.403433 C183.300073,97.0956593 179.807681,93.6026061 175.500122,93.6026061 L226.200537,93.6026061 C230.507608,93.6026061 234,90.1105285 234,85.8032426 C234,81.4954689 230.507608,78.0029035 226.200537,78.0029035 L206.699927,78.0029035 C211.007486,78.0029035 214.49939,74.5103381 214.49939,70.2025644 C214.49939,65.8947906 211.007486,62.4022252 206.699927,62.4022252 L191.100024,62.4022252 C195.407584,62.4022252 198.899488,58.9096599 198.899488,54.6018861 C198.899488,50.2941123 195.407584,46.801547 191.100024,46.801547 L163.800439,46.801547 C168.107511,46.801547 171.60039,43.3089816 171.60039,39.0012078 C171.60039,34.6939219 168.107511,31.2013565 163.800439,31.2013565 L218.400098,31.2013565 C222.707657,31.2013565 226.200537,27.7087912 226.200537,23.4010174 C226.200537,19.0927558 222.707657,15.6006783 218.400098,15.6006783 L198.899976,15.6006783 C203.207535,15.6006783 206.699927,12.1081129 206.699927,7.80033914 C206.699927,3.49256538 203.207535,0 198.899976,0 L42.8999756,0 C38.5924161,0 35.1000244,3.49256538 35.1000244,7.80033914 C35.1000244,12.1081129 38.5924161,15.6006783 42.8999756,15.6006783 L23.3998537,15.6006783 C19.0922941,15.6006783 15.5999024,19.0927558 15.5999024,23.4010174 C15.5999024,27.7087912 19.0922941,31.2013565 23.3998537,31.2013565 L15.5999024,31.2013565 C11.2923429,31.2013565 7.79995122,34.6939219 7.79995122,39.0012078 C7.79995122,43.3089816 11.2923429,46.801547 15.5999024,46.801547 L35.1000244,46.801547 C30.7924649,46.801547 27.3000732,50.2941123 27.3000732,54.6018861 C27.3000732,58.9096599 30.7924649,62.4022252 35.1000244,62.4022252 L27.3000732,62.4022252 C22.9925136,62.4022252 19.500122,65.8947906 19.500122,70.2025644 C19.500122,74.5103381 22.9925136,78.0029035 27.3000732,78.0029035 L50.6999268,78.0029035 C46.3923673,78.0029035 42.8999756,81.4954689 42.8999756,85.8032426 C42.8999756,90.1105285 46.3923673,93.6026061 50.6999268,93.6026061 L7.79995122,93.6026061 C3.49239169,93.6026061 0,97.0956593 0,101.403433 C0,105.711207 3.49239169,109.203772 7.79995122,109.203772" id="Fill-1" fill="#D7E9FF" mask="url(#mask-2)"></path>
                    </g>
                </g>
                <g id="Group-21" transform="translate(33.000000, 0.000000)">
                    <polygon id="Fill-1" fill="#FFFFFF" points="16 0 16 6 56.3683827 6 134 6 134 0"></polygon>
                    <g id="Group-20">
                        <g id="Group-4" transform="translate(37.054687, 0.000000)">
                            <mask id="mask-4" fill="white">
                                <use xlink:href="#path-3"></use>
                            </mask>
                            <g id="Clip-3"></g>
                            <path d="M1.04439727,1.24692183 L0.672397266,1.71351053 C0.555057422,1.8870232 0.461330859,2.07511676 0.393397266,2.27341696 C0.303666797,2.44984581 0.241182422,2.6383039 0.207397266,2.83332339 C0.172885547,3.03891404 0.152178516,3.24705634 0.145276172,3.45556316 C0.157264453,4.2790193 0.478405078,5.06748129 1.04439727,5.66420448 C1.34083477,5.94525127 1.68813164,6.16724542 2.06739727,6.31742865 C3.22372148,6.78656901 4.5467918,6.53103879 5.44627617,5.66420448 C5.72636602,5.36675419 5.9476043,5.01827076 6.09727617,4.63770936 C6.25603008,4.26370936 6.34031133,3.86200565 6.34539727,3.45556316 C6.33340898,2.63210702 6.01226836,1.84364503 5.44627617,1.24692183 C4.22383477,0.0439978558 2.26683867,0.0439978558 1.04439727,1.24692183" id="Fill-2" fill="#116FFF" mask="url(#mask-4)"></path>
                        </g>
                        <path d="M130.199927,25.2295442 C131.912072,25.2295442 133.299806,23.8367041 133.299806,22.1190745 C133.299806,20.4014448 131.911709,19.0086047 130.199927,19.0086047 L124.00017,19.0086047 C122.288025,19.0086047 120.899927,20.4014448 120.899927,22.1190745 C120.899927,23.8367041 122.288388,25.2295442 124.00017,25.2295442 L130.199927,25.2295442 Z" id="Fill-5" fill="#116FFF"></path>
                        <path d="M111.599855,25.2295442 C113.312362,25.2295442 114.699734,23.8367041 114.699734,22.1190745 C114.699734,20.4014448 113.311636,19.0086047 111.599855,19.0086047 L105.400097,19.0086047 C103.687952,19.0086047 102.299855,20.4014448 102.299855,22.1190745 C102.299855,23.8367041 103.687952,25.2295442 105.400097,25.2295442 L111.599855,25.2295442 Z" id="Fill-7" fill="#116FFF"></path>
                        <path d="M30.9998426,22.1190016 C30.9998426,23.8369957 29.6121082,25.2294713 27.8999637,25.2294713 C26.1878191,25.2294713 24.8000848,23.8366312 24.8000848,22.1190016 C24.8000848,20.4013719 26.1878191,19.0085318 27.8999637,19.0085318 C29.6121082,19.0085318 30.9998426,20.4010074 30.9998426,22.1190016 M18.5999637,22.1190016 C18.5999637,27.2726195 22.7638934,31.4507754 27.8999637,31.4507754 C33.036034,31.4507754 37.1999637,27.2726195 37.1999637,22.1190016 C37.1999637,16.9653836 33.036034,12.7872277 27.8999637,12.7872277 C22.7638934,12.7872277 18.5999637,16.9650191 18.5999637,22.1190016" id="Fill-9" fill="#116FFF"></path>
                        <path d="M124.000024,62.5566033 L130.199782,62.5566033 C131.911927,62.5566033 133.300024,61.1637632 133.300024,59.4461335 C133.300024,57.7281394 131.911563,56.3356637 130.199782,56.3356637 L124.000024,56.3356637 C122.28788,56.3356637 120.900145,57.7285039 120.900145,59.4461335 C120.900145,61.1641277 122.28788,62.5566033 124.000024,62.5566033" id="Fill-11" fill="#116FFF"></path>
                        <path d="M27.9000727,62.5566033 C26.1879281,62.5566033 24.8001937,61.1637632 24.8001937,59.4461335 C24.8001937,57.7281394 26.1879281,56.3356637 27.9000727,56.3356637 C29.6122172,56.3356637 30.9999516,57.7285039 30.9999516,59.4461335 C30.9999516,61.1641277 29.6122172,62.5566033 27.9000727,62.5566033 M27.9000727,50.1143596 C22.7640023,50.1143596 18.6000727,54.2925156 18.6000727,59.4461335 C18.6000727,64.5997515 22.7640023,68.7779074 27.9000727,68.7779074 C33.036143,68.7779074 37.2000727,64.5997515 37.2000727,59.4461335 C37.2000727,54.2921511 33.036143,50.1143596 27.9000727,50.1143596" id="Fill-13" fill="#116FFF"></path>
                        <g id="Group-17">
                            <mask id="mask-6" fill="white">
                                <use xlink:href="#path-5"></use>
                            </mask>
                            <g id="Clip-16"></g>
                            <path d="M6.20004844,65.6671825 L6.20004844,53.2249388 C6.20004844,48.0713209 10.3639781,43.8931649 15.5000484,43.8931649 L133.30017,43.8931649 C138.43624,43.8931649 142.60017,48.0713209 142.60017,53.2249388 L142.60017,65.6671825 C142.60017,70.8208004 138.43624,74.9989563 133.30017,74.9989563 L109.6749,74.9989563 C107.191146,67.6356035 101.760091,61.6443131 94.6891852,58.4675002 C87.6182789,55.2906873 79.5476227,55.2155957 72.4189547,58.260816 C71.4697008,58.6632487 70.7820094,59.5129505 70.5836578,60.5274164 C70.3853063,61.5422468 70.7024508,62.5891552 71.4301031,63.3214807 L83.7184547,75.6828004 C84.8896734,76.8416172 85.5493922,78.4229154 85.5493922,80.0734729 C85.5493922,81.7240304 84.8900367,83.3053287 83.7184547,84.4641454 C81.2699391,86.8226055 77.4031734,86.8226055 74.9546578,84.4641454 L62.6477789,72.1462039 C61.9146773,71.4178881 60.870607,71.1000246 59.8577789,71.2968667 C58.8464039,71.4955314 57.999232,72.1855723 57.5978063,73.1384339 C57.3406031,73.7606737 57.1825758,74.3825489 56.9776852,75.0047887 L15.5000484,75.0047887 C13.0326422,75.0047887 10.6658648,74.0209427 8.92175156,72.2694125 C7.177275,70.5186113 6.19823203,68.1433832 6.20004844,65.6671825 Z M141.046779,85.481892 L121.643927,104.941921 L109.740291,93.0063637 C111.014318,89.2175177 111.466603,85.1990226 111.06663,81.2202604 L133.299806,81.2202604 C136.432017,81.2377575 139.344806,82.8358238 141.049685,85.4724144 L141.046779,85.481892 Z M163.174966,67.7515216 L173.733373,60.6903579 L178.910494,65.8851669 L171.861384,76.4800109 L156.981384,87.1616113 C156.906912,87.2144671 156.8724,87.2921103 156.804466,87.3482468 C156.73617,87.4043832 156.655521,87.4291708 156.590857,87.4915041 L128.2284,115.949769 L121.520048,122.669011 L117.130521,118.264487 L152.210048,83.0869797 C152.262361,83.0184495 152.309951,82.9470031 152.352818,82.872276 C152.409127,82.8037458 152.489048,82.7694807 152.542087,82.6980343 L163.174966,67.7515216 Z M177.98013,170.267255 C179.182591,171.460701 179.84122,173.099594 179.799806,174.796446 C179.765295,176.512253 179.026017,178.137658 177.757076,179.288091 C175.086232,181.448251 171.208568,181.185065 168.851236,178.684806 L127.788103,137.48466 C129.374916,133.956812 128.62583,129.812192 125.90667,127.066974 L130.41717,122.541064 L177.98013,170.267255 Z M116.76506,139.351015 L112.378076,139.351015 C107.242369,139.351015 103.078076,143.529171 103.078076,148.682789 L103.078076,153.074919 C103.078076,153.899834 102.751123,154.690847 102.169873,155.273719 L77.6799937,179.847268 C76.4695406,181.061492 74.5070953,181.061492 73.2966422,179.847268 L60.1404117,166.658847 C58.9303219,165.444258 58.9303219,163.474744 60.1404117,162.260155 L84.6302906,137.68697 C85.2097242,137.100818 85.9991344,136.772019 86.8219664,136.775664 L91.205318,136.775664 C93.6719977,136.775664 96.0373219,135.792547 97.7814352,134.042475 C99.5255484,132.292038 100.505318,129.918997 100.505318,127.44389 L100.505318,123.045563 C100.503138,122.220284 100.830091,121.428177 101.413521,120.846399 L103.980466,118.270683 C105.19092,117.056459 107.153728,117.056459 108.364181,118.270683 L110.533697,120.447976 L110.533697,120.466566 L119.306939,129.269054 L119.325103,129.269054 L121.494982,131.446711 C122.705072,132.661299 122.705072,134.630085 121.494982,135.845038 L118.9284,138.42367 C118.356595,139.006177 117.579173,139.338986 116.76506,139.351015 Z M91.7971031,104.107894 C84.6292008,107.160769 76.3809,106.12589 70.1825953,101.395847 C63.9846539,96.6661688 60.7874156,88.9663618 61.8046031,81.2198959 L62.9300484,81.2198959 L70.5654937,88.8624729 C73.6795406,92.0965158 78.289943,93.3927575 82.6253414,92.2532604 C86.9603766,91.1137634 90.3457945,87.7160499 91.4795953,83.3654749 C92.6137594,79.0148998 91.3201148,74.3891103 88.0959937,71.2658823 L79.4716969,62.5906133 C87.3214781,61.1817341 95.3096695,64.2021669 100.281173,70.4588296 C105.251951,76.7154924 106.406822,85.2023033 103.289142,92.5671142 C102.799802,93.7321279 103.062091,95.0786737 103.952494,95.9732117 L117.260939,109.326761 L114.284939,112.313294 L110.633599,112.313294 C108.084818,110.910611 105.029623,110.784122 102.374763,111.970642 L95.1919664,104.76367 C94.2979312,103.873871 92.9563336,103.614695 91.7971031,104.107894 Z M15.5000484,118.546991 L62.0000484,118.546991 C63.712193,118.546991 65.0999273,117.15488 65.0999273,115.436886 C65.0999273,113.718892 63.7118297,112.326416 62.0000484,112.326416 L15.5000484,112.326416 C10.3639781,112.326416 6.20004844,108.14826 6.20004844,102.994278 L6.20004844,90.5523988 C6.20004844,85.3987809 10.3639781,81.220625 15.5000484,81.220625 L55.5241969,81.220625 C54.5811187,90.6912819 58.490025,99.995352 65.9049586,105.930506 C73.3202555,111.86566 83.2291148,113.621565 92.2217789,110.594206 L97.5445758,115.934824 L97.0363453,116.448436 C95.2867828,118.194134 94.3051969,120.569726 94.3113727,123.045927 L94.3113727,127.444255 C94.3113727,129.162249 92.9236383,130.554724 91.2114937,130.554724 L86.8281422,130.554724 C84.3596461,130.548527 81.9910523,131.532738 80.2498453,133.289007 L55.7599664,157.862557 C52.1293336,161.506687 52.1293336,167.413773 55.7599664,171.057539 L68.9100211,184.255802 C70.6541344,186.006239 73.0198219,186.98972 75.4865016,186.98972 C77.9531812,186.98972 80.3188687,186.006239 82.062982,184.255802 L106.552861,159.682253 C108.301697,157.935826 109.281466,155.559869 109.274564,153.084397 L109.274564,148.683153 C109.274564,146.964795 110.663025,145.572683 112.374806,145.572683 L116.761064,145.572683 C119.228107,145.57888 121.595248,144.595034 123.336091,142.841681 L123.844322,142.328434 L164.454443,183.077301 C166.913857,185.570635 170.258951,186.981336 173.754806,186.999927 C176.762775,187.015237 179.669025,185.90636 181.907564,183.889457 C184.430189,181.60135 185.905474,178.374233 185.989029,174.963761 C186.07222,171.552925 184.755689,168.257278 182.347861,165.848149 L134.800158,118.143101 L160.793658,92.0640733 L175.927955,81.2020343 C176.233837,80.9840499 176.49649,80.7106581 176.702834,80.3964398 L185.478982,67.2076542 C186.298908,65.9737458 186.137248,64.3304788 185.091724,63.2821123 L176.318482,54.4792604 C175.273685,53.4305294 173.636013,53.2675879 172.40667,54.090315 L159.262427,62.8931669 C158.951095,63.1013092 158.679724,63.3648589 158.462482,63.6706932 L147.634158,78.862894 L145.495521,81.0092019 C144.633818,79.9119895 143.628619,78.936892 142.506806,78.1101552 C146.450587,75.1976211 148.785396,70.5813092 148.799927,65.6679115 L148.799927,53.2256678 C148.786123,48.3111766 146.449861,43.6945002 142.5039,40.7834242 C146.450224,37.8723481 148.786123,33.2556717 148.799927,28.3411805 L148.799927,15.8978433 C148.789755,7.31261131 141.85617,0.355336452 133.299806,0.344765302 L52.7000484,0.344765302 C50.9879039,0.344765302 49.6001695,1.73760546 49.6001695,3.45523509 C49.6001695,5.17286472 50.9882672,6.56570487 52.7000484,6.56570487 L133.30017,6.56570487 C138.43624,6.56570487 142.60017,10.7438608 142.60017,15.8974788 L142.60017,28.3400869 C142.60017,33.4937049 138.43624,37.6718608 133.30017,37.6718608 L15.5000484,37.6718608 C10.3639781,37.6718608 6.20004844,33.4937049 6.20004844,28.3400869 L6.20004844,15.8978433 C6.20004844,10.7442253 10.3639781,6.5660694 15.5000484,6.5660694 L27.8999273,6.5660694 C29.6120719,6.5660694 30.9998062,5.17322924 30.9998062,3.45559961 C30.9998062,1.73796998 29.6120719,0.344765302 27.8999273,0.344765302 L15.5000484,0.344765302 C6.94368516,0.355336452 0.0100992187,7.31261131 -7.265625e-05,15.8978433 L-7.265625e-05,28.3400869 C0.0137320313,33.2545782 2.34999375,37.8712546 6.29595469,40.7823306 C2.34999375,43.6937712 0.0137320313,48.3104476 -7.265625e-05,53.2249388 L-7.265625e-05,65.6671825 C0.0137320313,70.5816737 2.34999375,75.1983501 6.29595469,78.1094261 C2.34999375,81.0208667 0.0137320313,85.6375431 -7.265625e-05,90.5520343 L-7.265625e-05,102.993913 C0.0100992187,111.579874 6.94368516,118.537149 15.5000484,118.546991 Z" id="Fill-15" fill="#116FFF" mask="url(#mask-6)"></path>
                        </g>
                        <path d="M30.9998426,96.7733019 C30.9998426,98.4912961 29.6121082,99.8837717 27.8999637,99.8837717 C26.1878191,99.8837717 24.8000848,98.4912961 24.8000848,96.7733019 C24.8000848,95.0553078 26.1878191,93.6624676 27.8999637,93.6624676 C29.6121082,93.6624676 30.9998426,95.0553078 30.9998426,96.7733019 M18.5999637,96.7733019 C18.5999637,101.92692 22.7638934,106.105076 27.8999637,106.105076 C33.036034,106.105076 37.1999637,101.92692 37.1999637,96.7733019 C37.1999637,91.619684 33.036034,87.4415281 27.8999637,87.4415281 C22.7638934,87.4415281 18.5999637,91.6193195 18.5999637,96.7733019" id="Fill-18" fill="#116FFF"></path>
                    </g>
                </g>
            </g>
        </g>
    </g>
</svg>