<?xml version="1.0" encoding="UTF-8"?>
<svg width="234px" height="191px" viewBox="0 0 234 191" version="1.1" xmlns="http://www.w3.org/2000/svg" xmlns:xlink="http://www.w3.org/1999/xlink">
    <!-- Generator: Sketch 51.2 (57519) - http://www.bohemiancoding.com/sketch -->
    <title>Group</title>
    <desc>Created with Sketch.</desc>
    <defs>
        <polygon id="path-1" points="234 0 234 156.005319 1.38851861e-14 156.005319 0 0"></polygon>
        <polygon id="path-3" points="0 190.579295 215 190.579295 215 0.307955947 0 0.307955947"></polygon>
    </defs>
    <g id="Web-App" stroke="none" stroke-width="1" fill="none" fill-rule="evenodd">
        <g id="401---Authorization-required" transform="translate(-603.000000, -268.000000)">
            <g id="Group" transform="translate(603.000000, 268.000000)">
                <g id="ic_Notification" transform="translate(0.000000, 19.000000)">
                    <g id="Page-1" transform="translate(0.000000, 0.914894)">
                        <mask id="mask-2" fill="white">
                            <use xlink:href="#path-1"></use>
                        </mask>
                        <g id="Clip-2"></g>
                        <path d="M7.79995122,109.203772 L27.3000732,109.203772 C22.9925136,109.203772 19.500122,112.696338 19.500122,117.003623 C19.500122,121.311397 22.9925136,124.80445 27.3000732,124.80445 L38.9997561,124.80445 C34.6921966,124.80445 31.1998049,128.297016 31.1998049,132.60479 C31.1998049,136.912563 38.5924161,140.404641 42.8999756,140.404641 L35.1000244,140.404641 C30.7924649,140.404641 27.3000732,143.897694 27.3000732,148.204492 C27.3000732,152.512266 30.7924649,156.005319 35.1000244,156.005319 L163.800439,156.005319 C168.107511,156.005319 171.60039,152.512266 171.60039,148.204492 C171.60039,143.897694 168.107511,140.404641 163.800439,140.404641 L218.400098,140.404641 C222.707657,140.404641 226.200537,136.912563 226.200537,132.60479 C226.200537,128.297016 222.707657,124.80445 218.400098,124.80445 L198.899976,124.80445 C203.207535,124.80445 206.699927,121.311397 206.699927,117.003623 C206.699927,112.69585 203.207535,109.203772 198.899976,109.203772 L175.500122,109.203772 C179.807681,109.203772 183.300073,105.711207 183.300073,101.403433 C183.300073,97.0956593 179.807681,93.6026061 175.500122,93.6026061 L226.200537,93.6026061 C230.507608,93.6026061 234,90.1105285 234,85.8032426 C234,81.4954689 230.507608,78.0029035 226.200537,78.0029035 L206.699927,78.0029035 C211.007486,78.0029035 214.49939,74.5103381 214.49939,70.2025644 C214.49939,65.8947906 211.007486,62.4022252 206.699927,62.4022252 L191.100024,62.4022252 C195.407584,62.4022252 198.899488,58.9096599 198.899488,54.6018861 C198.899488,50.2941123 195.407584,46.801547 191.100024,46.801547 L163.800439,46.801547 C168.107511,46.801547 171.60039,43.3089816 171.60039,39.0012078 C171.60039,34.6939219 168.107511,31.2013565 163.800439,31.2013565 L218.400098,31.2013565 C222.707657,31.2013565 226.200537,27.7087912 226.200537,23.4010174 C226.200537,19.0927558 222.707657,15.6006783 218.400098,15.6006783 L198.899976,15.6006783 C203.207535,15.6006783 206.699927,12.1081129 206.699927,7.80033914 C206.699927,3.49256538 203.207535,0 198.899976,0 L42.8999756,0 C38.5924161,0 35.1000244,3.49256538 35.1000244,7.80033914 C35.1000244,12.1081129 38.5924161,15.6006783 42.8999756,15.6006783 L23.3998537,15.6006783 C19.0922941,15.6006783 15.5999024,19.0927558 15.5999024,23.4010174 C15.5999024,27.7087912 19.0922941,31.2013565 23.3998537,31.2013565 L15.5999024,31.2013565 C11.2923429,31.2013565 7.79995122,34.6939219 7.79995122,39.0012078 C7.79995122,43.3089816 11.2923429,46.801547 15.5999024,46.801547 L35.1000244,46.801547 C30.7924649,46.801547 27.3000732,50.2941123 27.3000732,54.6018861 C27.3000732,58.9096599 30.7924649,62.4022252 35.1000244,62.4022252 L27.3000732,62.4022252 C22.9925136,62.4022252 19.500122,65.8947906 19.500122,70.2025644 C19.500122,74.5103381 22.9925136,78.0029035 27.3000732,78.0029035 L50.6999268,78.0029035 C46.3923673,78.0029035 42.8999756,81.4954689 42.8999756,85.8032426 C42.8999756,90.1105285 46.3923673,93.6026061 50.6999268,93.6026061 L7.79995122,93.6026061 C3.49239169,93.6026061 0,97.0956593 0,101.403433 C0,105.711207 3.49239169,109.203772 7.79995122,109.203772" id="Fill-1" fill="#D7E9FF" mask="url(#mask-2)"></path>
                    </g>
                </g>
                <g id="Group-20" transform="translate(10.000000, 0.000000)">
                    <path d="M164.833277,25.551046 L172.000084,25.551046 L164.833277,25.551046 Z" id="Fill-1" fill="#FFFFFF"></path>
                    <path d="M143.333235,25.551046 L150.500462,25.551046 L143.333235,25.551046 Z" id="Fill-2" fill="#FFFFFF"></path>
                    <g id="Group-19" transform="translate(0.000000, 0.112749)">
                        <path d="M175.583109,25.4383813 C175.583109,23.4555993 173.978588,21.8485068 171.999916,21.8485068 L164.833109,21.8485068 C162.854437,21.8485068 161.249916,23.45602 161.249916,25.4383813 C161.249916,27.4207425 162.854437,29.0282557 164.833109,29.0282557 L171.999916,29.0282557 C173.979008,29.0282557 175.583109,27.4211632 175.583109,25.4383813" id="Fill-3" fill="#116FFF"></path>
                        <path d="M150.500168,21.8484227 L143.333361,21.8484227 C141.35427,21.8484227 139.749748,23.4559359 139.749748,25.4382971 C139.749748,27.4206584 141.35427,29.0281716 143.333361,29.0281716 L150.500168,29.0281716 C152.47926,29.0281716 154.082941,27.4206584 154.082941,25.4382971 C154.082941,23.4559359 152.47926,21.8484227 150.500168,21.8484227" id="Fill-5" fill="#116FFF"></path>
                        <path d="M53.75,29.0281295 C51.7709082,29.0281295 50.1668066,27.4206163 50.1668066,25.4382551 C50.1668066,23.4558938 51.7713281,21.8483806 53.75,21.8483806 C55.7290918,21.8483806 57.3331934,23.4558938 57.3331934,25.4382551 C57.3331934,27.4206163 55.7290918,29.0281295 53.75,29.0281295 M53.75,14.668211 C47.8131445,14.668211 43,19.49033 43,25.4382551 C43,31.3861802 47.8131445,36.2082991 53.75,36.2082991 C59.6872754,36.2082991 64.5,31.3861802 64.5,25.4382551 C64.5,19.49033 59.6872754,14.668211 53.75,14.668211" id="Fill-7" fill="#116FFF"></path>
                        <path d="M53.75,72.108474 C51.7709082,72.108474 50.1668066,70.5009608 50.1668066,68.5185996 C50.1668066,66.5358176 51.7713281,64.9287251 53.75,64.9287251 C55.7290918,64.9287251 57.3331934,66.5362383 57.3331934,68.5185996 C57.3331934,70.5013815 55.7290918,72.108474 53.75,72.108474 M53.75,57.7485555 C47.8131445,57.7485555 43,62.5706744 43,68.5185996 C43,74.4665247 47.8131445,79.2886436 53.75,79.2886436 C59.6872754,79.2886436 64.5,74.4665247 64.5,68.5185996 C64.5,62.5706744 59.6872754,57.7485555 53.75,57.7485555" id="Fill-9" fill="#116FFF"></path>
                        <path d="M28.6668486,104.418522 C28.6668486,98.4705969 33.4799932,93.648478 39.4168486,93.648478 L143.992933,93.648478 C143.567972,94.7982643 143.345413,96.0128392 143.333655,97.2383524 L143.333655,129.548485 L39.4168486,129.548485 C33.4799932,129.548485 28.6668486,124.726366 28.6668486,118.778441 L28.6668486,104.418522 Z M28.6668486,75.698685 L28.6668486,61.3387665 C28.6668486,55.3904207 33.4799932,50.5687225 39.4168486,50.5687225 L157.025628,50.5687225 C152.840687,54.9015617 150.500882,60.6946674 150.500462,66.7237885 L150.500462,86.4687291 L39.4168486,86.4687291 C33.4795732,86.4687291 28.6668486,81.6466101 28.6668486,75.698685 Z M28.6668486,32.6185088 L28.6668486,18.2581696 C28.6668486,12.3102445 33.4799932,7.48812555 39.4168486,7.48812555 L175.583655,7.48812555 C181.520511,7.48812555 186.333655,12.3102445 186.333655,18.2581696 L186.333655,32.6180881 C186.333655,38.5660132 181.520511,43.3881322 175.583655,43.3881322 L39.4168486,43.3881322 C33.4795732,43.3885529 28.6668486,38.5664339 28.6668486,32.6185088 Z M193.500042,66.7233678 L193.500042,86.4683084 L157.666849,86.4683084 L157.666849,66.7233678 C157.676927,57.8052665 164.890345,50.5783987 173.791849,50.5683018 L175.583655,50.5683018 C175.763382,50.5590463 175.944368,50.5590463 176.124935,50.5683018 C176.178685,50.5683018 176.225296,50.5502115 176.275267,50.5683018 L177.375462,50.5683018 C186.276546,50.5783987 193.490384,57.8052665 193.500042,66.7233678 Z M193.500042,143.908824 L157.666849,143.908824 C153.708665,143.908824 150.500042,140.694218 150.500042,136.728654 L154.083235,136.728654 C156.062327,136.728654 157.666429,135.121141 157.666429,133.13878 C157.666429,131.155998 156.061907,129.548905 154.083235,129.548905 L150.500042,129.548905 L150.500042,122.368736 L154.083235,122.368736 C156.062327,122.368736 157.666429,120.761222 157.666429,118.778861 C157.666429,116.7965 156.061907,115.188987 154.083235,115.188987 L150.500042,115.188987 L150.500042,108.008817 L154.083235,108.008817 C156.062327,108.008817 157.666429,106.401725 157.666429,104.418943 C157.666429,102.436161 156.061907,100.829068 154.083235,100.829068 L150.500042,100.829068 L150.500042,97.2391938 C150.500042,95.2564119 152.104144,93.6493194 154.083235,93.6493194 L197.083235,93.6493194 C199.062327,93.6493194 200.666429,95.2564119 200.666429,97.2391938 L200.666429,100.829068 L197.083235,100.829068 C195.104144,100.829068 193.500042,102.436161 193.500042,104.418943 C193.500042,106.401725 195.104563,108.008817 197.083235,108.008817 L200.666429,108.008817 L200.666429,115.188987 L197.083235,115.188987 C195.104144,115.188987 193.500042,116.796079 193.500042,118.778861 C193.500042,120.761643 195.104563,122.368736 197.083235,122.368736 L200.666429,122.368736 L200.666429,129.548905 L197.083235,129.548905 C195.104144,129.548905 193.500042,131.156419 193.500042,133.13878 C193.500042,135.121141 195.104563,136.728654 197.083235,136.728654 L200.666429,136.728654 C200.666849,140.694218 197.457806,143.908824 193.500042,143.908824 Z M39.4168486,136.728654 L143.333655,136.728654 C143.333655,144.659361 149.750901,151.088573 157.666849,151.088573 L193.500042,151.088573 C201.415989,151.088573 207.833235,144.659361 207.833235,136.728654 L207.833235,97.2383524 C207.814339,92.690533 204.946272,88.6446145 200.666429,87.128815 L200.666429,66.7233678 C200.654251,57.8342952 195.602171,49.7243678 187.637513,45.8080264 C191.358021,42.4343943 193.486185,37.6459317 193.500042,32.6185088 L193.500042,18.2581696 C193.487864,8.34972907 185.473235,0.320156388 175.583235,0.307955947 L39.4168486,0.307955947 C29.5264287,0.320156388 21.5117998,8.34972907 21.500042,18.2581696 L21.500042,32.6180881 C21.515999,38.2900308 24.2165166,43.6182577 28.777708,46.9780066 C24.2160967,50.3377555 21.515999,55.6659824 21.500042,61.3379251 L21.500042,75.6978436 C21.515999,81.3697863 24.2165166,86.6980132 28.777708,90.0577621 C24.2160967,93.417511 21.515999,98.7457379 21.500042,104.417681 L21.500042,118.777599 C21.5117998,128.687302 29.5264287,136.716874 39.4168486,136.728654 Z" id="Fill-11" fill="#116FFF"></path>
                        <path d="M53.75,108.008901 C55.7290918,108.008901 57.3331934,109.616415 57.3331934,111.598776 C57.3331934,113.581137 55.7286719,115.18823 53.75,115.18823 C51.7709082,115.18823 50.1668066,113.581558 50.1668066,111.598776 C50.1668066,109.615994 51.7709082,108.008901 53.75,108.008901 M53.75,122.36882 C59.6872754,122.36882 64.5,117.546701 64.5,111.598776 C64.5,105.650851 59.6868555,100.828732 53.75,100.828732 C47.8131445,100.828732 43,105.650851 43,111.598776 C43,117.546701 47.8131445,122.36882 53.75,122.36882" id="Fill-13" fill="#116FFF"></path>
                        <mask id="mask-4" fill="white">
                            <use xlink:href="#path-3"></use>
                        </mask>
                        <g id="Clip-16"></g>
                        <path d="M82.4168066,183.399126 L132.583613,183.399126 L132.583613,176.218956 L82.4168066,176.218956 L82.4168066,183.399126 Z M103.916807,169.039207 L111.083613,169.039207 L111.083613,151.088993 L103.916807,151.088993 L103.916807,169.039207 Z M3.58319336,183.399126 L75.25,183.399126 C75.25,187.364689 78.458623,190.579295 82.4168066,190.579295 L132.583613,190.579295 C136.541797,190.579295 139.75042,187.364689 139.75042,183.399126 L186.333613,183.399126 C188.312705,183.399126 189.916807,181.792033 189.916807,179.809251 C189.916807,177.826469 188.312285,176.218956 186.333193,176.218956 L139.75,176.218956 C139.75,172.253392 136.541377,169.038786 132.583193,169.038786 L118.25,169.038786 L118.25,147.498698 C118.25,145.515916 116.645898,143.908824 114.666807,143.908824 L100.333613,143.908824 C98.3545215,143.908824 96.7504199,145.516758 96.7504199,147.498698 L96.7504199,169.038786 L82.4172266,169.038786 C78.459043,169.038786 75.2504199,172.253392 75.2504199,176.218956 L3.58319336,176.218956 C1.60452148,176.218956 0,177.826469 0,179.80883 C0,181.791192 1.60452148,183.399126 3.58319336,183.399126 Z" id="Fill-15" fill="#116FFF" mask="url(#mask-4)"></path>
                        <path d="M211.416723,176.218956 L200.666723,176.218956 C198.688051,176.218956 197.083529,177.826048 197.083529,179.80883 C197.083529,181.791612 198.688051,183.398705 200.666723,183.398705 L211.416723,183.398705 C213.395814,183.398705 214.999916,181.791612 214.999916,179.80883 C214.999916,177.826048 213.395814,176.218956 211.416723,176.218956" id="Fill-17" fill="#428DFF" mask="url(#mask-4)"></path>
                        <path d="M175.583109,115.188398 C173.604018,115.188398 171.999916,113.581726 171.999916,111.598944 C171.999916,109.616162 173.604018,108.00907 175.583109,108.00907 C177.562201,108.00907 179.166303,109.616583 179.166303,111.598944 C179.166303,113.581305 177.562201,115.188398 175.583109,115.188398 M175.583109,100.828479 C170.353402,100.818803 165.879555,104.589581 164.9931,109.75247 C164.107064,114.916622 167.067094,119.967184 171.999916,121.708061 L171.999916,129.549158 C171.999916,131.53194 173.604018,133.138611 175.583109,133.138611 C177.562201,133.138611 179.166303,131.53194 179.166303,129.549158 L179.166303,121.708061 C184.099125,119.967605 187.059154,114.916622 186.173119,109.75247 C185.287084,104.589581 180.812816,100.818803 175.583109,100.828479" id="Fill-18" fill="#116FFF" mask="url(#mask-4)"></path>
                    </g>
                </g>
            </g>
        </g>
    </g>
</svg>