<?xml version="1.0" encoding="UTF-8"?>
<svg width="234px" height="205px" viewBox="0 0 234 205" version="1.1" xmlns="http://www.w3.org/2000/svg" xmlns:xlink="http://www.w3.org/1999/xlink">
    <!-- Generator: Sketch 51.2 (57519) - http://www.bohemiancoding.com/sketch -->
    <title>Group</title>
    <desc>Created with Sketch.</desc>
    <defs>
        <polygon id="path-1" points="234 0 234 156.005319 1.38851861e-14 156.005319 0 0"></polygon>
        <polygon id="path-3" points="0 0.0594980469 97.1576489 0.0594980469 97.1576489 171.490748 0 171.490748"></polygon>
        <polygon id="path-5" points="0.196962012 0.293966797 27.5313973 0.293966797 27.5313973 27.6269531 0.196962012 27.6269531"></polygon>
    </defs>
    <g id="Web-App" stroke="none" stroke-width="1" fill="none" fill-rule="evenodd">
        <g id="403---Access-denied" transform="translate(-603.000000, -261.000000)">
            <g id="Group" transform="translate(603.000000, 261.000000)">
                <g id="ic_Notification" transform="translate(0.000000, 26.000000)">
                    <g id="Page-1" transform="translate(0.000000, 0.914894)">
                        <mask id="mask-2" fill="white">
                            <use xlink:href="#path-1"></use>
                        </mask>
                        <g id="Clip-2"></g>
                        <path d="M7.79995122,109.203772 L27.3000732,109.203772 C22.9925136,109.203772 19.500122,112.696338 19.500122,117.003623 C19.500122,121.311397 22.9925136,124.80445 27.3000732,124.80445 L38.9997561,124.80445 C34.6921966,124.80445 31.1998049,128.297016 31.1998049,132.60479 C31.1998049,136.912563 38.5924161,140.404641 42.8999756,140.404641 L35.1000244,140.404641 C30.7924649,140.404641 27.3000732,143.897694 27.3000732,148.204492 C27.3000732,152.512266 30.7924649,156.005319 35.1000244,156.005319 L163.800439,156.005319 C168.107511,156.005319 171.60039,152.512266 171.60039,148.204492 C171.60039,143.897694 168.107511,140.404641 163.800439,140.404641 L218.400098,140.404641 C222.707657,140.404641 226.200537,136.912563 226.200537,132.60479 C226.200537,128.297016 222.707657,124.80445 218.400098,124.80445 L198.899976,124.80445 C203.207535,124.80445 206.699927,121.311397 206.699927,117.003623 C206.699927,112.69585 203.207535,109.203772 198.899976,109.203772 L175.500122,109.203772 C179.807681,109.203772 183.300073,105.711207 183.300073,101.403433 C183.300073,97.0956593 179.807681,93.6026061 175.500122,93.6026061 L226.200537,93.6026061 C230.507608,93.6026061 234,90.1105285 234,85.8032426 C234,81.4954689 230.507608,78.0029035 226.200537,78.0029035 L206.699927,78.0029035 C211.007486,78.0029035 214.49939,74.5103381 214.49939,70.2025644 C214.49939,65.8947906 211.007486,62.4022252 206.699927,62.4022252 L191.100024,62.4022252 C195.407584,62.4022252 198.899488,58.9096599 198.899488,54.6018861 C198.899488,50.2941123 195.407584,46.801547 191.100024,46.801547 L163.800439,46.801547 C168.107511,46.801547 171.60039,43.3089816 171.60039,39.0012078 C171.60039,34.6939219 168.107511,31.2013565 163.800439,31.2013565 L218.400098,31.2013565 C222.707657,31.2013565 226.200537,27.7087912 226.200537,23.4010174 C226.200537,19.0927558 222.707657,15.6006783 218.400098,15.6006783 L198.899976,15.6006783 C203.207535,15.6006783 206.699927,12.1081129 206.699927,7.80033914 C206.699927,3.49256538 203.207535,0 198.899976,0 L42.8999756,0 C38.5924161,0 35.1000244,3.49256538 35.1000244,7.80033914 C35.1000244,12.1081129 38.5924161,15.6006783 42.8999756,15.6006783 L23.3998537,15.6006783 C19.0922941,15.6006783 15.5999024,19.0927558 15.5999024,23.4010174 C15.5999024,27.7087912 19.0922941,31.2013565 23.3998537,31.2013565 L15.5999024,31.2013565 C11.2923429,31.2013565 7.79995122,34.6939219 7.79995122,39.0012078 C7.79995122,43.3089816 11.2923429,46.801547 15.5999024,46.801547 L35.1000244,46.801547 C30.7924649,46.801547 27.3000732,50.2941123 27.3000732,54.6018861 C27.3000732,58.9096599 30.7924649,62.4022252 35.1000244,62.4022252 L27.3000732,62.4022252 C22.9925136,62.4022252 19.500122,65.8947906 19.500122,70.2025644 C19.500122,74.5103381 22.9925136,78.0029035 27.3000732,78.0029035 L50.6999268,78.0029035 C46.3923673,78.0029035 42.8999756,81.4954689 42.8999756,85.8032426 C42.8999756,90.1105285 46.3923673,93.6026061 50.6999268,93.6026061 L7.79995122,93.6026061 C3.49239169,93.6026061 0,97.0956593 0,101.403433 C0,105.711207 3.49239169,109.203772 7.79995122,109.203772" id="Fill-1" fill="#D7E9FF" mask="url(#mask-2)"></path>
                    </g>
                </g>
                <g id="Group-29" transform="translate(19.000000, 0.000000)">
                    <path d="M17.0874856,36.1245234 C14.9212639,35.7485566 12.7242105,35.3285469 10.4554836,34.7988301 C9.55536037,34.5678047 8.59998049,34.7155488 7.81197228,35.2084297 C7.02396407,35.7013105 6.47299897,36.4952852 6.28680801,37.4057734 C2.4052269,56.7098066 -10.9236437,152.103273 90.7682556,199.01424 L90.7033891,199.048273 C92.3058326,199.799807 93.9459148,200.517307 95.6100216,201.23841 L95.8322495,201.34091 C97.6020647,200.58257 99.2933994,199.789797 100.995145,199.00383 C-0.669927105,152.086057 12.6557402,56.7166133 16.5373214,37.4057734 C16.6290154,36.9449238 16.8164076,36.508498 17.0874856,36.1245234" id="Fill-1" fill="#FFFFFF"></path>
                    <polygon id="Fill-3" fill="#FFFFFF" points="95.8967027 201.37143 95.8319027 201.34103 95.7671027 201.37143"></polygon>
                    <path d="M101.011842,10.89579 C100.134142,9.7787002 99.3653532,8.72967676 98.722694,7.80037012 C98.0872423,6.86025293 97.0265544,6.29690332 95.8917906,6.29690332 C94.7570267,6.29690332 93.6963388,6.86025293 93.0612875,7.80037012 C80.5740801,25.580917 60.5331253,36.5496182 38.8252608,37.4845303 C73.2261437,39.4588564 92.5892033,21.6002334 101.011842,10.89579" id="Fill-5" fill="#FFFFFF"></path>
                    <g id="Group-9" transform="translate(0.000000, 33.232422)">
                        <mask id="mask-4" fill="white">
                            <use xlink:href="#path-3"></use>
                        </mask>
                        <g id="Clip-8"></g>
                        <path d="M94.4652875,171.490748 C80.5498152,165.601002 67.4087372,158.027613 55.3355544,148.941148 C32.9690144,132.106725 16.2851027,108.836822 7.52051335,82.2508848 C3.23131417,69.0544102 0.765585216,55.3342246 0.191396304,41.4698984 C-0.496909651,27.5731406 0.673090349,13.6467539 3.66976386,0.0594980469 L10.2777413,1.80880469 C7.46525667,14.7278086 6.36933265,27.9603184 7.01799795,41.1652012 C7.56575975,54.4065195 9.91897331,67.5105039 14.0123717,80.1152012 C22.3429158,105.396266 38.213193,127.52065 59.490616,143.515055 C71.1137372,152.25358 83.7639117,159.535484 97.1576489,165.197408 L94.4652875,171.490748 Z" id="Fill-7" fill="#FFFFFF" mask="url(#mask-4)"></path>
                    </g>
                    <path d="M70.7798747,185.71947 C70.34623,185.837185 69.9374107,186.032976 69.5738378,186.296833 C68.4370719,187.079597 67.8949158,188.478562 68.2072361,189.822673 C68.6773183,191.670876 70.5248131,192.816794 72.3895257,192.416403 L73.0009528,192.193786 C73.2091663,192.099294 73.4037659,191.975974 73.578345,191.828229 C73.7609322,191.713317 73.9247002,191.569978 74.0636427,191.404616 C74.2097926,191.229646 74.344731,191.044265 74.4668563,190.851276 C74.9093101,190.057302 75.048653,189.130397 74.8596591,188.24113 C74.7439405,187.809909 74.5489405,187.402712 74.2854702,187.04236 C73.4882526,185.937282 72.108037,185.416774 70.7798747,185.71947" id="Fill-10" fill="#116FFF"></path>
                    <path d="M99.0371766,2.45631641 C98.9454825,2.16363086 98.8165503,1.88335742 98.654384,1.62270312 C97.9756879,0.673777344 96.8809651,0.110828125 95.7141684,0.110828125 C94.5477721,0.110828125 93.4526489,0.673777344 92.7739528,1.62270312 C92.5757495,1.93781055 92.4324025,2.28454883 92.3503183,2.64770312 C88.9540349,8.74284961 65.4531314,46.0188164 7.84524641,30.8660332 C6.022577,30.3867656 4.15586242,31.4734258 3.67336756,33.2952031 C0.676694045,46.882459 -0.493305955,60.8084453 0.195,74.7052031 C0.76838809,88.5679277 3.23291581,102.287312 7.52051335,115.482986 C16.2843018,142.069725 32.968614,165.341229 55.3355544,182.176453 C56.2581006,182.887547 57.2214887,183.542986 58.1648563,184.226453 C59.6880185,185.323123 61.8101951,184.985594 62.9185318,183.471316 C64.0268686,181.956639 63.7061396,179.831766 62.2001951,178.711873 C61.2980698,178.059236 60.3723203,177.434627 59.490616,176.757566 C38.2139938,160.763963 22.3437166,138.640779 14.0123717,113.361316 C9.91897331,100.756619 7.56616016,87.6522344 7.01799795,74.4113164 C6.46903491,62.327127 7.35554415,50.2205156 9.65910678,38.3449297 C61.1883573,50.3238164 87.3171561,21.8664531 95.7462012,9.90798633 C104.185657,21.8664531 130.358901,50.381873 181.970236,38.3108965 C185.988357,57.4956133 199.877803,152.229236 95.7498049,197.78368 C92.1585216,196.109646 88.5195893,194.5241 85.0139938,192.692713 C83.3582957,191.832674 81.3186037,192.468494 80.4457084,194.117703 C79.5660062,195.806551 80.2162731,197.889383 81.9012012,198.777449 C85.8784805,200.847869 90.0059138,202.614393 94.0584702,204.524656 C94.5489733,204.818143 95.106345,204.981502 95.6781314,204.999119 L95.8146715,204.999119 C96.4613347,205.001121 97.0947844,204.813338 97.6357392,204.459793 C217.819805,152.527127 188.134559,34.4807598 187.820236,33.2851934 C187.337741,31.463416 185.471027,30.3767559 183.648758,30.8560234 C125.380996,46.1865801 102.013029,7.88200977 99.0371766,2.45631641" id="Fill-12" fill="#116FFF"></path>
                    <path d="M95.7466817,182.80883 C88.7238789,179.489191 81.9437248,175.677473 75.4574723,171.404104 C73.8870616,170.400324 71.8017228,170.839953 70.7706653,172.393068 C69.7396078,173.946184 70.1436222,176.038625 71.6783963,177.096057 C78.8961992,181.851096 86.4591561,186.060002 94.3048029,189.68674 C94.7572669,189.892941 95.2489713,190.000646 95.7466817,190.001047 C96.2447926,190.001447 96.7368973,189.892541 97.1885606,189.683137 C179.722411,151.23843 180.446754,79.1472969 176.930747,49.9416035 C176.820634,49.0275117 176.346148,48.1963008 175.614598,47.6365547 C174.883047,47.0768086 173.956897,46.8361738 173.045563,46.9691035 C167.989177,47.7130293 162.886343,48.0934004 157.775901,48.1070137 C155.888766,48.1070137 154.359197,49.6369062 154.359197,51.5235469 C154.359197,53.4101875 155.888766,54.9400801 157.775901,54.9400801 C162.032667,54.9324727 166.28583,54.6818281 170.513766,54.1885469 C173.309033,83.5956367 169.762195,147.534816 95.7466817,182.80883" id="Fill-14" fill="#116FFF"></path>
                    <path d="M33.7205852,54.9364365 C56.7582136,55.4064951 79.0494764,46.7620615 95.7466016,30.8829697 C105.148244,39.9221885 116.507094,46.6731748 128.941047,50.6106162 C130.739292,51.1831748 132.661663,50.1898057 133.234251,48.3916514 C133.806838,46.5934971 132.813819,44.6712217 131.015175,44.0986631 C118.548388,40.1428037 107.270821,33.1267588 98.2135318,23.6907529 C96.8453285,22.3618564 94.6682957,22.3618564 93.3000924,23.6907529 C77.6964887,39.7524229 56.1123511,48.5970518 33.7241889,48.1029697 C28.6401745,48.0893564 23.5633676,47.7125889 18.5330082,46.9754697 C17.6176694,46.8345322 16.6851129,47.082374 15.9599692,47.6589365 C15.2288193,48.2226865 14.7567351,49.0583018 14.6514271,49.9755967 C12.8643943,65.5207627 13.5202669,81.2501084 16.5954209,96.5926768 C20.9358727,118.829972 31.3717762,139.423663 46.7387372,156.073507 C47.5687885,156.96878 48.8136653,157.353556 50.0040862,157.082091 C51.1945072,156.810626 52.1498871,155.925362 52.5102567,154.758624 C52.8706263,153.592286 52.5811294,152.321847 51.751078,151.426573 C37.2325873,135.690021 27.3744764,116.227433 23.2786756,95.2121299 C20.5747023,81.7225693 19.8323409,67.9134971 21.0748152,54.2121299 C25.2731211,54.6933994 29.4950513,54.9352354 33.7205852,54.9364365" id="Fill-16" fill="#116FFF"></path>
                    <path d="M13.810885,160.583627 C11.9237495,160.583627 10.3941807,162.113119 10.3941807,163.99976 L10.3941807,170.833627 L3.56037166,170.833627 C1.67323614,170.833627 0.143667351,172.363119 0.143667351,174.25016 C0.143667351,176.137201 1.67363655,177.666693 3.56037166,177.666693 L10.3941807,177.666693 L10.3941807,184.49976 C10.3941807,186.386801 11.9241499,187.916693 13.810885,187.916693 C15.6976201,187.916693 17.2275893,186.386801 17.2275893,184.49976 L17.2275893,177.666693 L24.0613984,177.666693 C25.9485339,177.666693 27.4781027,176.136801 27.4781027,174.25016 C27.4781027,172.36352 25.9481335,170.833627 24.0613984,170.833627 L17.2275893,170.833627 L17.2275893,163.99976 C17.2275893,162.112719 15.6976201,160.583627 13.810885,160.583627" id="Fill-18" fill="#116FFF"></path>
                    <g id="Group-22" transform="translate(167.371663, 177.373047)">
                        <mask id="mask-6" fill="white">
                            <use xlink:href="#path-5"></use>
                        </mask>
                        <g id="Clip-21"></g>
                        <path d="M27.5313973,13.9605 C27.5313973,12.073459 26.0018285,10.5439668 24.114693,10.5439668 L17.280884,10.5439668 L17.280884,3.71009961 C17.280884,1.82345898 15.7513152,0.293966797 13.8641797,0.293966797 C11.9770441,0.293966797 10.4474754,1.82345898 10.4474754,3.71009961 L10.4474754,10.5439668 L3.61406674,10.5439668 C1.7265308,10.5439668 0.196962012,12.0738594 0.196962012,13.9605 C0.196962012,15.8471406 1.7265308,17.3770332 3.61406674,17.3770332 L10.4474754,17.3770332 L10.4474754,24.2105 C10.4474754,26.0971406 11.9770441,27.6270332 13.8641797,27.6270332 C15.7513152,27.6270332 17.280884,26.0971406 17.280884,24.2105 L17.280884,17.3770332 L24.114693,17.3770332 C26.0018285,17.3770332 27.5313973,15.847541 27.5313973,13.9605" id="Fill-20" fill="#116FFF" mask="url(#mask-6)"></path>
                    </g>
                    <path d="M170.98557,0 C169.098034,0 167.568866,1.52989258 167.568866,3.4165332 L167.568866,6.83306641 L164.152161,6.83306641 C162.265026,6.83306641 160.735056,8.36295898 160.735056,10.2495996 C160.735056,12.1362402 162.265426,13.6661328 164.152161,13.6661328 L167.568866,13.6661328 L167.568866,17.082666 C167.568866,18.969707 169.098034,20.4991992 170.98557,20.4991992 C172.872705,20.4991992 174.401874,18.9693066 174.401874,17.082666 L174.401874,13.6661328 L177.818578,13.6661328 C179.705714,13.6661328 181.235683,12.1362402 181.235683,10.2495996 C181.235683,8.36295898 179.705714,6.83306641 177.818578,6.83306641 L174.401874,6.83306641 L174.401874,3.4165332 C174.401874,1.52989258 172.872705,0 170.98557,0" id="Fill-23" fill="#116FFF"></path>
                    <path d="M73.5369825,95.6665732 L128.206254,95.6665732 L128.206254,102.50004 L121.372445,102.50004 C119.485309,102.50004 117.95574,104.029933 117.95574,105.916573 C117.95574,107.803214 119.485709,109.333106 121.372445,109.333106 L128.206254,109.333106 L128.206254,116.166573 L121.372445,116.166573 C119.485309,116.166573 117.95574,117.696065 117.95574,119.583106 C117.95574,121.470147 119.485709,122.99964 121.372445,122.99964 L128.206254,122.99964 L128.206254,129.833106 L121.372445,129.833106 C119.485309,129.833106 117.95574,131.362599 117.95574,133.24964 C117.95574,135.136681 119.485709,136.666173 121.372445,136.666173 L127.864303,136.666173 C126.229426,144.614327 119.237054,150.322296 111.121931,150.332706 L83.7870955,150.332706 C75.6715719,150.321896 68.6792002,144.614327 67.0447238,136.666173 L73.5365821,136.666173 C75.4237177,136.666173 76.9532864,135.136681 76.9532864,133.24964 C76.9532864,131.362599 75.4233172,129.833106 73.5365821,129.833106 L66.7027731,129.833106 L66.7027731,123.00004 L73.5365821,123.00004 C75.4237177,123.00004 76.9532864,121.470548 76.9532864,119.583507 C76.9532864,117.696466 75.4233172,116.166974 73.5365821,116.166974 L66.7027731,116.166974 L66.7027731,109.333507 L73.5365821,109.333507 C75.4237177,109.333507 76.9532864,107.804015 76.9532864,105.916974 C76.9532864,104.029933 75.4241181,102.50004 73.5369825,102.50004 L66.7031735,102.50004 L66.7027731,95.6665732 L73.5369825,95.6665732 Z M76.9540873,78.5835068 C76.9540873,67.2616611 86.1327012,58.0835068 97.455114,58.0835068 C108.777527,58.0835068 117.956141,67.2616611 117.956141,78.5835068 L117.956141,88.8335068 L76.9540873,88.8335068 L76.9540873,78.5835068 Z M83.7874959,157.166573 L111.122332,157.166573 C124.324672,157.149757 135.023245,146.45172 135.040063,133.25004 L135.040063,95.6665732 C135.040063,91.8924912 131.980525,88.8331064 128.206254,88.8331064 L124.789549,88.8331064 L124.789549,78.5831064 C124.789549,63.4871787 112.551397,51.2496396 97.4547136,51.2496396 C82.3580298,51.2496396 70.1198778,63.4871787 70.1198778,78.5831064 L70.1198778,88.8331064 L66.7031735,88.8331064 C62.9289025,88.8331064 59.8693645,91.8924912 59.8693645,95.6665732 L59.8693645,133.25004 C59.8865821,146.45172 70.585155,157.149757 83.7874959,157.166573 Z" id="Fill-25" fill="#116FFF"></path>
                    <path d="M97.4550739,112.74984 C99.3422094,112.74984 100.871778,114.279732 100.871778,116.166373 C100.871778,118.053414 99.341809,119.582906 97.4550739,119.582906 C95.5679384,119.582906 94.0383696,118.053014 94.0383696,116.166373 C94.0379692,114.279732 95.5679384,112.74984 97.4550739,112.74984 M94.0379692,125.78776 L94.0379692,133.24984 C94.0379692,135.136881 95.567538,136.666373 97.4546735,136.666373 C99.341809,136.666373 100.871378,135.136881 100.871378,133.24984 L100.871378,125.78776 C105.578205,124.123736 108.401501,119.311441 107.557435,114.391041 C106.71337,109.470641 102.446994,105.873932 97.4546735,105.873932 C92.4623532,105.873932 88.1959774,109.470641 87.3519117,114.391041 C86.507846,119.311441 89.3311417,124.123736 94.0379692,125.78776" id="Fill-27" fill="#116FFF"></path>
                </g>
            </g>
        </g>
    </g>
</svg>