<?xml version="1.0" encoding="UTF-8"?>
<svg width="234px" height="185px" viewBox="0 0 234 185" version="1.1" xmlns="http://www.w3.org/2000/svg" xmlns:xlink="http://www.w3.org/1999/xlink">
    <!-- Generator: Sketch 51.2 (57519) - http://www.bohemiancoding.com/sketch -->
    <title>Group</title>
    <desc>Created with Sketch.</desc>
    <defs>
        <polygon id="path-1" points="234 0 234 156.005319 1.38851861e-14 156.005319 0 0"></polygon>
        <polygon id="path-3" points="0 185 159.904144 185 159.904144 0 0 0"></polygon>
    </defs>
    <g id="Web-App" stroke="none" stroke-width="1" fill="none" fill-rule="evenodd">
        <g id="404---Page-not-found" transform="translate(-603.000000, -272.000000)">
            <g id="Group" transform="translate(603.000000, 272.000000)">
                <g id="ic_Notification" transform="translate(0.000000, 15.000000)">
                    <g id="Page-1" transform="translate(0.000000, 0.914894)">
                        <mask id="mask-2" fill="white">
                            <use xlink:href="#path-1"></use>
                        </mask>
                        <g id="Clip-2"></g>
                        <path d="M7.79995122,109.203772 L27.3000732,109.203772 C22.9925136,109.203772 19.500122,112.696338 19.500122,117.003623 C19.500122,121.311397 22.9925136,124.80445 27.3000732,124.80445 L38.9997561,124.80445 C34.6921966,124.80445 31.1998049,128.297016 31.1998049,132.60479 C31.1998049,136.912563 38.5924161,140.404641 42.8999756,140.404641 L35.1000244,140.404641 C30.7924649,140.404641 27.3000732,143.897694 27.3000732,148.204492 C27.3000732,152.512266 30.7924649,156.005319 35.1000244,156.005319 L163.800439,156.005319 C168.107511,156.005319 171.60039,152.512266 171.60039,148.204492 C171.60039,143.897694 168.107511,140.404641 163.800439,140.404641 L218.400098,140.404641 C222.707657,140.404641 226.200537,136.912563 226.200537,132.60479 C226.200537,128.297016 222.707657,124.80445 218.400098,124.80445 L198.899976,124.80445 C203.207535,124.80445 206.699927,121.311397 206.699927,117.003623 C206.699927,112.69585 203.207535,109.203772 198.899976,109.203772 L175.500122,109.203772 C179.807681,109.203772 183.300073,105.711207 183.300073,101.403433 C183.300073,97.0956593 179.807681,93.6026061 175.500122,93.6026061 L226.200537,93.6026061 C230.507608,93.6026061 234,90.1105285 234,85.8032426 C234,81.4954689 230.507608,78.0029035 226.200537,78.0029035 L206.699927,78.0029035 C211.007486,78.0029035 214.49939,74.5103381 214.49939,70.2025644 C214.49939,65.8947906 211.007486,62.4022252 206.699927,62.4022252 L191.100024,62.4022252 C195.407584,62.4022252 198.899488,58.9096599 198.899488,54.6018861 C198.899488,50.2941123 195.407584,46.801547 191.100024,46.801547 L163.800439,46.801547 C168.107511,46.801547 171.60039,43.3089816 171.60039,39.0012078 C171.60039,34.6939219 168.107511,31.2013565 163.800439,31.2013565 L218.400098,31.2013565 C222.707657,31.2013565 226.200537,27.7087912 226.200537,23.4010174 C226.200537,19.0927558 222.707657,15.6006783 218.400098,15.6006783 L198.899976,15.6006783 C203.207535,15.6006783 206.699927,12.1081129 206.699927,7.80033914 C206.699927,3.49256538 203.207535,0 198.899976,0 L42.8999756,0 C38.5924161,0 35.1000244,3.49256538 35.1000244,7.80033914 C35.1000244,12.1081129 38.5924161,15.6006783 42.8999756,15.6006783 L23.3998537,15.6006783 C19.0922941,15.6006783 15.5999024,19.0927558 15.5999024,23.4010174 C15.5999024,27.7087912 19.0922941,31.2013565 23.3998537,31.2013565 L15.5999024,31.2013565 C11.2923429,31.2013565 7.79995122,34.6939219 7.79995122,39.0012078 C7.79995122,43.3089816 11.2923429,46.801547 15.5999024,46.801547 L35.1000244,46.801547 C30.7924649,46.801547 27.3000732,50.2941123 27.3000732,54.6018861 C27.3000732,58.9096599 30.7924649,62.4022252 35.1000244,62.4022252 L27.3000732,62.4022252 C22.9925136,62.4022252 19.500122,65.8947906 19.500122,70.2025644 C19.500122,74.5103381 22.9925136,78.0029035 27.3000732,78.0029035 L50.6999268,78.0029035 C46.3923673,78.0029035 42.8999756,81.4954689 42.8999756,85.8032426 C42.8999756,90.1105285 46.3923673,93.6026061 50.6999268,93.6026061 L7.79995122,93.6026061 C3.49239169,93.6026061 0,97.0956593 0,101.403433 C0,105.711207 3.49239169,109.203772 7.79995122,109.203772" id="Fill-1" fill="#D7E9FF" mask="url(#mask-2)"></path>
                    </g>
                </g>
                <g id="Group-29" transform="translate(40.000000, 0.000000)">
                    <path d="M126.07827,30.8328516 L126.07827,148.000723 L33.826018,148.000723 L33.826018,58.5832129 L64.5762883,27.7503613 L123.002595,27.7503613 C124.701694,27.7503613 126.07827,29.1306348 126.07827,30.8328516" id="Fill-5"></path>
                    <path d="M156.828541,104.833141 L156.828541,178.833502 C156.828541,180.535719 155.451964,181.915992 153.754306,181.915992 L6.14998198,181.915992 C4.45232432,181.915992 3.07574775,180.535719 3.07574775,178.833502 L3.07574775,104.833141 C3.07574775,103.130924 4.45232432,101.75065 6.14998198,101.75065 L39.9759279,101.75065 C41.6735856,101.75065 43.0505225,103.130924 43.0505225,104.833141 L43.0505225,110.999566 C43.0616937,114.401109 45.8094414,117.156236 49.2018739,117.166354 L110.702414,117.166354 C114.094847,117.156236 116.842595,114.401109 116.852324,110.999566 L116.852324,104.833141 C116.852324,103.130924 118.229261,101.75065 119.92836,101.75065 L153.754306,101.75065 C155.451964,101.75065 156.828541,103.130924 156.828541,104.833141" id="Fill-9"></path>
                    <path d="M9.2258018,101.750578 L6.15012613,101.750578 C4.45246847,101.750578 3.07589189,103.130852 3.07589189,104.833068 L3.07589189,178.83343 C3.07589189,180.535646 4.45246847,181.91592 6.15012613,181.91592 L15.3757117,181.91592 C13.676973,181.91592 12.300036,180.535646 12.300036,178.83343 L12.300036,104.833068 C12.300036,103.130852 13.676973,101.750578 15.3757117,101.750578 L18.4503063,101.750578 L18.4503063,33.9170039 L49.202018,3.08415234 L39.9760721,3.08415234 L9.2258018,33.9170039 L9.2258018,101.750578 Z" id="Fill-13" fill="#FFFFFF"></path>
                    <mask id="mask-4" fill="white">
                        <use xlink:href="#path-3"></use>
                    </mask>
                    <g id="Clip-16"></g>
                    <polygon id="Fill-15" fill="#FFFFFF" mask="url(#mask-4)" points="0 178.833574 6.14990991 178.833574 6.14990991 104.833213 0 104.833213"></polygon>
                    <path d="M113.778162,104.833141 L113.778162,110.999566 C113.778162,112.703229 112.401586,114.083863 110.702486,114.083863 L49.2019459,114.083863 C47.5028468,114.083863 46.1262703,112.703229 46.1262703,110.999566 L46.1262703,104.833141 C46.1262703,101.427262 43.3727568,98.6667148 39.976,98.6667148 L36.9003243,98.6667148 L36.9003243,61.6670762 L61.5021261,61.6670762 C64.8985225,61.6670762 67.652036,58.9065293 67.652036,55.5006504 L67.652036,30.8327793 L123.002667,30.8327793 L123.002667,98.6667148 L119.928072,98.6667148 C116.531676,98.6667148 113.778162,101.427262 113.778162,104.833141 Z M12.299964,36.9995664 L26.4019459,36.9995664 L19.3511351,44.0707578 C19.1032072,44.3262168 18.9035676,44.6239512 18.7583423,44.9487852 C18.7147387,45.0445371 18.690955,45.1406504 18.6570811,45.2378477 C18.5641081,45.5005332 18.5093333,45.7744199 18.490955,46.0522813 C18.490955,46.1202109 18.4531171,46.1765781 18.4531171,46.2445078 L18.4531171,98.6667148 L12.299964,98.6667148 L12.299964,36.9995664 Z M36.9003243,10.5265 L36.9003243,26.4729941 L32.5522162,30.8327793 L16.6484324,30.8327793 L36.9003243,10.5265 Z M98.4023063,12.3331406 L52.2761802,12.3331406 C52.2113153,12.3331406 52.1594234,12.3671055 52.0945586,12.3699961 C51.8131171,12.3866172 51.5341982,12.4433457 51.2682523,12.5365684 C51.1727568,12.5661973 51.0797838,12.5998008 50.9882523,12.6381016 C50.6617658,12.7833555 50.363027,12.9853379 50.1057297,13.2335703 L43.0502342,20.306207 L43.0502342,6.16671484 L98.4023063,6.16671484 L98.4023063,12.3331406 Z M48.2996036,48.4290977 L54.450955,42.2626719 L61.5021261,35.1929258 L61.5021261,55.5006504 L41.2484324,55.5006504 L48.2996036,48.4290977 Z M35.9994234,36.0962461 L42.1493333,29.929459 L49.2019459,22.8597129 L49.2019459,38.8076523 L44.8534775,43.1659922 L28.9486126,43.1659922 L35.9994234,36.0962461 Z M31.6513153,56.4039707 C31.4048288,56.6594297 31.2033874,56.9571641 31.0585225,57.2816367 C31.0149189,57.37775 30.9911351,57.4738633 30.9572613,57.5725059 C30.8642883,57.8351914 30.8095135,58.1090781 30.7911351,58.3854941 C30.7911351,58.4534238 30.7543784,58.509791 30.7543784,58.5773594 L30.7543784,98.6667148 L24.6001441,98.6667148 L24.6001441,49.3338633 L38.7035676,49.3338633 L31.6513153,56.4039707 Z M110.702486,24.6663535 L64.5763604,24.6663535 C64.5114955,24.6663535 64.4567207,24.7003184 64.388973,24.7028477 C64.1075315,24.7212754 63.8304144,24.7776426 63.5641081,24.8694199 C63.4725766,24.9033848 63.379964,24.9286777 63.2884324,24.9684238 C62.9615856,25.1165684 62.6632072,25.3185508 62.4055495,25.5667832 L55.3518559,32.6394199 L55.3518559,18.4995664 L110.702486,18.4995664 L110.702486,24.6663535 Z M0.000144144144,178.833502 C0.000144144144,182.239381 2.7532973,184.999928 6.15005405,184.999928 L153.754378,184.999928 C157.150775,184.999928 159.904288,182.239381 159.904288,178.833502 L159.904288,104.833141 C159.904288,101.427262 157.150775,98.6667148 153.754378,98.6667148 L129.152577,98.6667148 L129.152577,30.8327793 C129.152577,27.4269004 126.399063,24.6663535 123.002667,24.6663535 L116.852396,24.6663535 L116.852396,18.4995664 C116.852396,15.0940488 114.099243,12.3331406 110.702486,12.3331406 L104.552216,12.3331406 L104.552216,6.16671484 C104.552216,2.76083594 101.799063,-7.2265625e-05 98.4023063,-7.2265625e-05 L39.976,-7.2265625e-05 C39.9086126,-7.2265625e-05 39.8563604,0.0338925781 39.788973,0.0367832031 C39.5086126,0.0552109375 39.2329369,0.111578125 38.9666306,0.203355469 C38.8725766,0.232984375 38.7781622,0.268033203 38.6880721,0.307779297 C38.3615856,0.453033203 38.0617658,0.655015625 37.8055495,0.903248047 L7.05383784,31.7360996 C6.80735135,31.9930039 6.60627027,32.289293 6.46104505,32.6155723 C6.41744144,32.7113242 6.39365766,32.8059922 6.35978378,32.9049961 C6.26681081,33.1673203 6.21203604,33.441207 6.19365766,33.7194297 C6.19365766,33.786998 6.15581982,33.8419199 6.15581982,33.9098496 L6.15581982,98.6667148 C2.75906306,98.6667148 0.00554954955,101.427262 0.00554954955,104.833141 L0.00554954955,117.166354 C0.00554954955,118.870016 1.38248649,120.250289 3.08122523,120.250289 C4.77888288,120.250289 6.15581982,118.870016 6.15581982,117.166354 L6.15581982,104.833141 L39.976,104.833141 L39.976,110.999566 C39.976,116.109107 44.1060901,120.250289 49.2019459,120.250289 L110.702486,120.250289 C115.797982,120.250289 119.928072,116.109107 119.928072,110.999566 L119.928072,104.833141 L153.754378,104.833141 L153.754378,178.833502 L6.15005405,178.833502 L6.15005405,141.833863 C6.15005405,140.130562 4.77347748,138.749928 3.07581982,138.749928 C1.37672072,138.749928 0.000144144144,140.130562 0.000144144144,141.833863 L0.000144144144,178.833502 Z" id="Fill-17" fill="#116FFF" mask="url(#mask-4)"></path>
                    <path d="M3.07574775,132.58343 C4.3243964,132.590656 5.45340541,131.839455 5.93340541,130.682121 C6.41196396,129.524787 6.14601802,128.19257 5.25917117,127.310207 L4.79718919,126.940568 C4.62565766,126.823498 4.43971171,126.730275 4.24403604,126.663791 C4.06962162,126.574904 3.88223423,126.511311 3.68944144,126.478791 C3.48691892,126.443742 3.28115315,126.423869 3.07574775,126.417004 C2.26061261,126.428205 1.48079279,126.748703 0.892324324,127.310207 C0.613765766,127.605412 0.394306306,127.951203 0.246198198,128.328068 C-0.218306306,129.478176 0.035027027,130.793771 0.892324324,131.68842 C1.1852973,131.968088 1.53016216,132.188137 1.90601802,132.336281 C2.27610811,132.494543 2.67322523,132.577648 3.07574775,132.58343" id="Fill-18" fill="#428DFF" mask="url(#mask-4)"></path>
                    <path d="M79.9521441,129.499422 C69.7946667,129.499422 61.0206126,136.61867 58.9006126,146.577957 C56.7791712,156.538328 61.891964,166.628777 71.164036,170.786941 C80.4364685,174.94366 91.3442162,172.037498 97.3352072,163.812947 C103.324757,155.586951 102.766198,144.284246 95.9953874,136.693465 C94.8577297,135.442908 92.928,135.345711 91.6710631,136.474861 C90.4137658,137.602566 90.2984505,139.536033 91.4134054,140.806463 C96.2487207,146.229275 96.6469189,154.302791 92.3676396,160.176902 C88.0883604,166.051375 80.297009,168.126121 73.6739459,165.156727 C67.0508829,162.186971 63.4007928,154.978836 64.9153874,147.865008 C66.4303423,140.751541 72.697009,135.665848 79.9521441,135.665848 C81.6498018,135.665848 83.0263784,134.285574 83.0263784,132.583357 C83.0263784,130.879695 81.6498018,129.499422 79.9521441,129.499422" id="Fill-19" fill="#116FFF" mask="url(#mask-4)"></path>
                    <path d="M79.9521441,160.333719 C81.6498018,160.333719 83.0263784,158.953445 83.0263784,157.249783 L83.0263784,154.167293 L86.1020541,154.167293 C87.7997117,154.167293 89.1766486,152.786658 89.1766486,151.082996 C89.1766486,149.381141 87.7997117,148.000506 86.1020541,148.000506 L83.0263784,148.000506 L83.0263784,144.91657 C83.0263784,143.214354 81.6498018,141.83408 79.9521441,141.83408 C78.253045,141.83408 76.8764685,143.214354 76.8764685,144.91657 L76.8764685,148.000506 L73.8022342,148.000506 C72.1031351,148.000506 70.7261982,149.381141 70.7261982,151.082996 C70.7261982,152.786658 72.1031351,154.167293 73.8022342,154.167293 L76.8764685,154.167293 L76.8764685,157.249783 C76.8764685,158.953445 78.253045,160.333719 79.9521441,160.333719" id="Fill-20" fill="#116FFF" mask="url(#mask-4)" transform="translate(79.951423, 151.083899) rotate(-45.000000) translate(-79.951423, -151.083899) "></path>
                    <path d="M52.2761802,74.0002891 L58.4260901,74.0002891 C60.1251892,74.0002891 61.5021261,72.6200156 61.5021261,70.9163535 C61.5021261,69.2141367 60.1251892,67.8338633 58.4260901,67.8338633 L52.2761802,67.8338633 C50.5785225,67.8338633 49.2019459,69.2141367 49.2019459,70.9163535 C49.2019459,72.6200156 50.5785225,74.0002891 52.2761802,74.0002891" id="Fill-21" fill="#116FFF" mask="url(#mask-4)"></path>
                    <path d="M107.628108,67.8337187 L70.7264865,67.8337187 C69.0288288,67.8337187 67.6518919,69.2139922 67.6518919,70.916209 C67.6518919,72.6198711 69.0288288,74.0001445 70.7264865,74.0001445 L107.628108,74.0001445 C109.325766,74.0001445 110.702342,72.6198711 110.702342,70.916209 C110.702342,69.2139922 109.325766,67.8337187 107.628108,67.8337187" id="Fill-22" fill="#116FFF" mask="url(#mask-4)"></path>
                    <path d="M58.4262342,92.5 L52.2763243,92.5 C50.5786667,92.5 49.2017297,93.8802734 49.2017297,95.5839355 C49.2017297,97.2861523 50.5786667,98.6664258 52.2763243,98.6664258 L58.4262342,98.6664258 C60.1253333,98.6664258 61.5019099,97.2861523 61.5019099,95.5839355 C61.5019099,93.8802734 60.1253333,92.5 58.4262342,92.5" id="Fill-23" fill="#116FFF" mask="url(#mask-4)"></path>
                    <path d="M107.628108,92.5 L70.7264865,92.5 C69.0288288,92.5 67.6518919,93.8802734 67.6518919,95.5839355 C67.6518919,97.2861523 69.0288288,98.6664258 70.7264865,98.6664258 L107.628108,98.6664258 C109.325766,98.6664258 110.702342,97.2861523 110.702342,95.5839355 C110.702342,93.8802734 109.325766,92.5 107.628108,92.5" id="Fill-24" fill="#116FFF" mask="url(#mask-4)"></path>
                    <path d="M107.628108,80.1668594 L101.478198,80.1668594 C99.7790991,80.1668594 98.4021622,81.5471328 98.4021622,83.2493496 C98.4021622,84.9530117 99.7790991,86.3332852 101.478198,86.3332852 L107.628108,86.3332852 C109.325766,86.3332852 110.702342,84.9530117 110.702342,83.2493496 C110.702342,81.5471328 109.325766,80.1668594 107.628108,80.1668594" id="Fill-25" fill="#116FFF" mask="url(#mask-4)"></path>
                    <path d="M52.2761802,86.3334297 L89.1763604,86.3334297 C90.8754595,86.3334297 92.2523964,84.9531563 92.2523964,83.2494941 C92.2523964,81.5472773 90.8754595,80.1670039 89.1763604,80.1670039 L52.2761802,80.1670039 C50.5785225,80.1670039 49.2019459,81.5472773 49.2019459,83.2494941 C49.2019459,84.9531563 50.5785225,86.3334297 52.2761802,86.3334297" id="Fill-26" fill="#116FFF" mask="url(#mask-4)"></path>
                    <path d="M39.9760721,154.167148 C41.6737297,154.167148 43.0503063,152.786875 43.0503063,151.083213 C43.0503063,149.380996 41.6737297,148.000723 39.9760721,148.000723 L21.525982,148.000723 C19.8268829,148.000723 18.4503063,149.380996 18.4503063,151.083213 C18.4503063,152.786875 19.8268829,154.167148 21.525982,154.167148 L39.9760721,154.167148 Z" id="Fill-27" fill="#116FFF" mask="url(#mask-4)"></path>
                    <path d="M138.378378,154.167148 C140.076036,154.167148 141.454054,152.786875 141.454054,151.083213 C141.454054,149.380996 140.076036,148.000723 138.378378,148.000723 L119.928288,148.000723 C118.229189,148.000723 116.852613,149.380996 116.852613,151.083213 C116.852613,152.786875 118.229189,154.167148 119.928288,154.167148 L138.378378,154.167148 Z" id="Fill-28" fill="#116FFF" mask="url(#mask-4)"></path>
                </g>
            </g>
        </g>
    </g>
</svg>