<?xml version="1.0" encoding="UTF-8"?>
<svg width="234px" height="180px" viewBox="0 0 234 180" version="1.1" xmlns="http://www.w3.org/2000/svg" xmlns:xlink="http://www.w3.org/1999/xlink">
    <!-- Generator: Sketch 51.2 (57519) - http://www.bohemiancoding.com/sketch -->
    <title>Group</title>
    <desc>Created with Sketch.</desc>
    <defs>
        <polygon id="path-1" points="234 0 234 156.005319 1.38851861e-14 156.005319 0 0"></polygon>
        <polygon id="path-3" points="3.48623853e-05 0.306666667 151.727028 0.306666667 151.727028 179.999974 3.48623853e-05 179.999974"></polygon>
    </defs>
    <g id="Web-App" stroke="none" stroke-width="1" fill="none" fill-rule="evenodd">
        <g id="408---Request-Time-Error" transform="translate(-603.000000, -275.000000)">
            <g id="Group" transform="translate(603.000000, 275.000000)">
                <g id="ic_Notification" transform="translate(0.000000, 12.000000)">
                    <g id="Page-1" transform="translate(0.000000, 0.914894)">
                        <mask id="mask-2" fill="white">
                            <use xlink:href="#path-1"></use>
                        </mask>
                        <g id="Clip-2"></g>
                        <path d="M7.79995122,109.203772 L27.3000732,109.203772 C22.9925136,109.203772 19.500122,112.696338 19.500122,117.003623 C19.500122,121.311397 22.9925136,124.80445 27.3000732,124.80445 L38.9997561,124.80445 C34.6921966,124.80445 31.1998049,128.297016 31.1998049,132.60479 C31.1998049,136.912563 38.5924161,140.404641 42.8999756,140.404641 L35.1000244,140.404641 C30.7924649,140.404641 27.3000732,143.897694 27.3000732,148.204492 C27.3000732,152.512266 30.7924649,156.005319 35.1000244,156.005319 L163.800439,156.005319 C168.107511,156.005319 171.60039,152.512266 171.60039,148.204492 C171.60039,143.897694 168.107511,140.404641 163.800439,140.404641 L218.400098,140.404641 C222.707657,140.404641 226.200537,136.912563 226.200537,132.60479 C226.200537,128.297016 222.707657,124.80445 218.400098,124.80445 L198.899976,124.80445 C203.207535,124.80445 206.699927,121.311397 206.699927,117.003623 C206.699927,112.69585 203.207535,109.203772 198.899976,109.203772 L175.500122,109.203772 C179.807681,109.203772 183.300073,105.711207 183.300073,101.403433 C183.300073,97.0956593 179.807681,93.6026061 175.500122,93.6026061 L226.200537,93.6026061 C230.507608,93.6026061 234,90.1105285 234,85.8032426 C234,81.4954689 230.507608,78.0029035 226.200537,78.0029035 L206.699927,78.0029035 C211.007486,78.0029035 214.49939,74.5103381 214.49939,70.2025644 C214.49939,65.8947906 211.007486,62.4022252 206.699927,62.4022252 L191.100024,62.4022252 C195.407584,62.4022252 198.899488,58.9096599 198.899488,54.6018861 C198.899488,50.2941123 195.407584,46.801547 191.100024,46.801547 L163.800439,46.801547 C168.107511,46.801547 171.60039,43.3089816 171.60039,39.0012078 C171.60039,34.6939219 168.107511,31.2013565 163.800439,31.2013565 L218.400098,31.2013565 C222.707657,31.2013565 226.200537,27.7087912 226.200537,23.4010174 C226.200537,19.0927558 222.707657,15.6006783 218.400098,15.6006783 L198.899976,15.6006783 C203.207535,15.6006783 206.699927,12.1081129 206.699927,7.80033914 C206.699927,3.49256538 203.207535,0 198.899976,0 L42.8999756,0 C38.5924161,0 35.1000244,3.49256538 35.1000244,7.80033914 C35.1000244,12.1081129 38.5924161,15.6006783 42.8999756,15.6006783 L23.3998537,15.6006783 C19.0922941,15.6006783 15.5999024,19.0927558 15.5999024,23.4010174 C15.5999024,27.7087912 19.0922941,31.2013565 23.3998537,31.2013565 L15.5999024,31.2013565 C11.2923429,31.2013565 7.79995122,34.6939219 7.79995122,39.0012078 C7.79995122,43.3089816 11.2923429,46.801547 15.5999024,46.801547 L35.1000244,46.801547 C30.7924649,46.801547 27.3000732,50.2941123 27.3000732,54.6018861 C27.3000732,58.9096599 30.7924649,62.4022252 35.1000244,62.4022252 L27.3000732,62.4022252 C22.9925136,62.4022252 19.500122,65.8947906 19.500122,70.2025644 C19.500122,74.5103381 22.9925136,78.0029035 27.3000732,78.0029035 L50.6999268,78.0029035 C46.3923673,78.0029035 42.8999756,81.4954689 42.8999756,85.8032426 C42.8999756,90.1105285 46.3923673,93.6026061 50.6999268,93.6026061 L7.79995122,93.6026061 C3.49239169,93.6026061 0,97.0956593 0,101.403433 C0,105.711207 3.49239169,109.203772 7.79995122,109.203772" id="Fill-1" fill="#D7E9FF" mask="url(#mask-2)"></path>
                    </g>
                </g>
                <g id="Group-36" transform="translate(50.000000, 0.000000)">
                    <polygon id="Fill-1" fill="#FFFFFF" points="0 12 0 50.9696595 0 115 6 115 6 50.9696595 6 12"></polygon>
                    <g id="Group-35">
                        <path d="M2.97473761,39.1107719 C4.18341651,39.1177895 5.27600367,38.3883158 5.73967339,37.264807 C6.2029945,36.1412982 5.94536147,34.8472632 5.08704954,33.9907719 L4.64081101,33.6314737 C4.47521468,33.5170877 4.29497615,33.4255088 4.10532477,33.3588421 C3.9362422,33.2746316 3.75565505,33.2149825 3.56983853,33.1823509 C3.37321468,33.147614 3.17449908,33.127614 2.97473761,33.1223509 C2.18719633,33.1339298 1.43312294,33.4441053 0.862425688,33.9907719 C-0.260143119,35.1827018 -0.260143119,37.0504211 0.862425688,38.2423509 C1.1476,38.5118246 1.48053578,38.7251579 1.84415046,38.8711228 C2.20253578,39.0234035 2.58637064,39.104807 2.97473761,39.1107719" id="Fill-2" fill="#116FFF"></path>
                        <path d="M107.097352,130.809649 L107.097352,111.090351 C107.097352,109.436316 105.765261,108.096316 104.122545,108.096316 C102.479829,108.096316 101.147738,109.437018 101.147738,111.090351 L101.147738,132.048947 C101.147738,132.842982 101.461499,133.604737 102.019297,134.165789 L116.894031,149.136667 C118.060875,150.271754 119.9166,150.255263 121.06427,149.100175 C122.211591,147.945088 122.227628,146.07807 121.100527,144.902982 L107.097352,130.809649 Z" id="Fill-4" fill="#116FFF"></path>
                        <path d="M101.14725,102.107614 L107.097213,102.107614 C108.740277,102.107614 110.07202,100.766912 110.07202,99.1135789 C110.07202,97.4602456 108.739928,96.1198947 107.097213,96.1198947 L101.14725,96.1198947 C99.5041853,96.1198947 98.1724422,97.4598947 98.1724422,99.1135789 C98.1724422,100.767263 99.5045339,102.107614 101.14725,102.107614" id="Fill-6" fill="#116FFF"></path>
                        <path d="M107.097352,161.990772 L101.147389,161.990772 C99.5043248,161.990772 98.172233,163.331474 98.172233,164.984807 C98.172233,166.638491 99.5043248,167.978842 101.147389,167.978842 L107.097352,167.978842 C108.740417,167.978842 110.071811,166.63814 110.071811,164.984807 C110.071811,163.331474 108.740417,161.990772 107.097352,161.990772" id="Fill-8" fill="#116FFF"></path>
                        <path d="M78.8799119,113.87193 C79.6688477,113.87193 80.4257101,113.55614 80.9831596,112.994737 L85.1900037,108.761053 C86.3171046,107.586316 86.3010679,105.718596 85.1533982,104.56386 C84.0057284,103.408772 82.1503523,103.392632 80.9831596,104.527368 L76.7766642,108.761053 C75.926022,109.617193 75.6718752,110.904912 76.1320587,112.023158 C76.5925908,113.142105 77.6771596,113.871579 78.8799119,113.87193" id="Fill-10" fill="#116FFF"></path>
                        <path d="M127.261338,151.100912 L123.054842,155.337754 C121.893228,156.507579 121.893925,158.403719 123.055888,159.573193 C124.2182,160.742316 126.102512,160.741614 127.264127,159.571789 L131.470622,155.334596 C132.632237,154.164772 132.631539,152.268632 131.469228,151.099509 C130.306916,149.930386 128.422952,149.931088 127.261338,151.100912" id="Fill-12" fill="#116FFF"></path>
                        <path d="M71.3981303,126.061158 C69.7550661,126.061158 68.4233229,127.401158 68.4233229,129.054842 L68.4233229,135.043614 C68.4233229,136.696947 69.7554147,138.037649 71.3981303,138.037649 C73.0411945,138.037649 74.3729376,136.696947 74.3729376,135.043614 L74.3729376,129.054842 C74.3729376,127.401509 73.0411945,126.061158 71.3981303,126.061158" id="Fill-14" fill="#116FFF"></path>
                        <path d="M136.846472,138.037579 C138.489536,138.037579 139.821279,136.697228 139.821279,135.043544 L139.821279,129.054772 C139.821279,127.401439 138.489187,126.061088 136.846472,126.061088 C135.203407,126.061088 133.871664,127.401439 133.871664,129.054772 L133.871664,135.043544 C133.871664,136.697228 135.203756,138.037579 136.846472,138.037579" id="Fill-16" fill="#116FFF"></path>
                        <path d="M80.983578,151.100912 C79.8219633,149.931088 77.938,149.930386 76.7756881,151.099509 C75.6133761,152.268632 75.6126789,154.164772 76.7742936,155.334596 L80.980789,159.571789 C82.1424037,160.741614 84.026367,160.742316 85.1890275,159.573193 C86.3509908,158.403719 86.3516881,156.507579 85.1900734,155.337754 L80.983578,151.100912 Z" id="Fill-18" fill="#116FFF"></path>
                        <path d="M127.261338,112.994737 C128.42853,114.129123 130.284255,114.113333 131.431576,112.958246 C132.579246,111.803158 132.595283,109.935789 131.467484,108.761053 L127.261338,104.527368 C126.094145,103.392632 124.23842,103.408772 123.091099,104.56386 C121.943429,105.718947 121.927393,107.586316 123.054842,108.761053 L127.261338,112.994737 Z" id="Fill-20" fill="#116FFF"></path>
                        <path d="M56.5233963,84.142807 C56.5233963,80.8354386 59.1872312,78.154386 62.4733596,78.154386 C65.7594881,78.154386 68.4233229,80.8354386 68.4233229,84.142807 L56.5233963,84.142807 Z M74.3729376,87.137193 L74.3729376,84.1431579 C74.3729376,77.5287719 69.0452679,72.1666667 62.4733596,72.1666667 C55.9014514,72.1666667 50.5737817,77.5287719 50.5737817,84.1431579 L50.5737817,87.137193 C50.5737817,88.7908772 51.9058734,90.1312281 53.548589,90.1312281 L71.3981303,90.1312281 C73.0411945,90.1312281 74.3729376,88.7908772 74.3729376,87.137193 Z" id="Fill-22" fill="#116FFF"></path>
                        <path d="M50.5738165,57.1953333 C50.5738165,58.8490175 49.2420734,60.1893684 47.5990092,60.1893684 C45.955945,60.1893684 44.6242018,58.8486667 44.6242018,57.1953333 L44.6242018,48.2128772 C44.6242018,46.559193 45.9562936,45.2188421 47.5990092,45.2188421 C49.2417248,45.2188421 50.5738165,46.5595439 50.5738165,48.2128772 L50.5738165,57.1953333 Z M56.5234312,57.1953333 L56.5234312,48.2128772 C56.5234312,43.2521754 52.5275046,39.2304211 47.5986606,39.2304211 C42.6698165,39.2304211 38.6738899,43.2521754 38.6738899,48.2128772 L38.6738899,57.1953333 C38.6738899,62.1560351 42.6698165,66.1777895 47.5986606,66.1777895 C52.5275046,66.1777895 56.5234312,62.156386 56.5234312,57.1953333 Z" id="Fill-24" fill="#116FFF"></path>
                        <path d="M74.3730073,48.2130175 C74.3730073,46.5593333 75.7050991,45.2189825 77.3478147,45.2189825 C78.9905303,45.2189825 80.3222734,46.5596842 80.3222734,48.2130175 L80.3222734,57.1954737 C80.3222734,58.8491579 78.9908789,60.1895088 77.3478147,60.1895088 C75.7047505,60.1895088 74.3730073,58.848807 74.3730073,57.1954737 L74.3730073,48.2130175 Z M77.3481633,66.1779298 C82.2770073,66.1779298 86.2729339,62.1561754 86.2729339,57.1954737 L86.2729339,48.2130175 C86.2729339,43.2523158 82.2770073,39.2305614 77.3481633,39.2305614 C72.4189706,39.2305614 68.4233927,43.2523158 68.4233927,48.2130175 L68.4233927,57.1954737 C68.4233927,62.1565263 72.4189706,66.1779298 77.3481633,66.1779298 Z" id="Fill-26" fill="#116FFF"></path>
                        <g id="Group-30">
                            <mask id="mask-4" fill="white">
                                <use xlink:href="#path-3"></use>
                            </mask>
                            <g id="Clip-29"></g>
                            <path d="M104.122475,173.967193 C87.2769706,173.967193 72.0902183,163.754561 65.6438147,148.090351 C59.197411,132.426491 62.7606954,114.397368 74.6721266,102.408596 C86.5835578,90.4198246 104.497594,86.8335088 120.060861,93.3215789 C135.624127,99.8096491 145.771521,115.094912 145.771521,132.048947 C145.746769,155.189649 127.114218,173.942982 104.122475,173.967193 M26.7743468,63.1840351 C26.7729523,47.3461404 37.0754844,33.375614 52.1374294,28.7903509 C67.1993743,24.204386 83.4679064,30.0857895 92.1887321,43.2685965 C100.909558,56.4517544 100.025448,73.827193 90.0122734,86.0440351 C89.9526587,86.1405263 89.8993193,86.2405263 89.8512092,86.3433333 C82.5597413,88.6594737 75.9278697,92.7050877 70.5144385,98.1405263 C59.9134844,100.67 48.7456679,98.1664912 40.2137963,91.3475439 C31.6819248,84.5292982 26.7286771,74.1489474 26.7743468,63.1840351 M124.946824,89.0380702 L124.946824,11.3250877 C124.9402,5.2422807 120.042732,0.313157895 113.998989,0.306491228 L11.7807321,0.306491228 C5.27715413,0.313157895 0.0066587156,5.61807018 3.48623853e-05,12.1633333 L3.48623853e-05,24.1398246 C3.48623853e-05,25.7938596 1.33212661,27.1338596 2.9748422,27.1338596 C4.6175578,27.1338596 5.94964954,25.7935088 5.94964954,24.1398246 L5.94964954,12.1633333 C5.95278716,8.92368421 8.56153945,6.29842105 11.7803835,6.29491228 L113.99864,6.29491228 C116.75765,6.29842105 118.993374,8.54824561 118.996512,11.3250877 L118.996512,86.5710526 C112.332218,84.3061404 105.240163,83.612807 98.2673376,84.544386 C107.883429,68.1885965 105.355209,47.367193 92.1088972,33.8236842 C78.8625853,20.2801754 58.2174294,17.4082456 41.8174661,26.8268421 C25.4175028,36.2461404 17.3719615,55.5966667 22.2188789,73.9636842 C27.0657963,92.3310526 43.590567,105.114211 62.4727321,105.10193 C63.2878147,105.10193 64.0969706,104.997368 64.9120532,104.949649 C61.775833,109.549298 59.4668972,114.668246 58.0905303,120.072807 L10.9478697,120.072807 C8.18851193,120.068246 5.95313578,117.817368 5.94999817,115.039825 L5.94999817,48.0931579 C5.94999817,46.4394737 4.61790642,45.0994737 2.97519083,45.0994737 C1.33247523,45.0994737 0.000383486239,46.4394737 0.000383486239,48.0931579 L0.000383486239,115.042281 C0.00700733945,121.124737 4.90447523,126.054211 10.9482183,126.061228 L56.9376312,126.061228 C53.8735761,150.302982 69.4368422,172.978421 93.0484385,178.673509 C116.660035,184.369298 140.745062,171.257719 148.932494,148.251754 C157.119228,125.24614 146.782182,99.7257895 124.946824,89.0380702" id="Fill-28" fill="#116FFF" mask="url(#mask-4)"></path>
                        </g>
                        <path d="M10.7694092,65.9384912 C11.4896661,66.2577895 12.309978,66.2577895 13.0302349,65.9384912 C13.7776844,65.6662105 14.3661615,65.0739298 14.6366936,64.3216491 C14.9539413,63.5967368 14.9539413,62.7711228 14.6366936,62.0462105 C14.4864367,61.6830526 14.2751706,61.3490175 14.0119596,61.0581404 C13.8700697,60.9300702 13.7208587,60.8100702 13.5657211,60.6988421 C13.4001248,60.584807 13.2202349,60.4942807 13.0302349,60.4293684 C12.8517394,60.3388421 12.6596477,60.2770877 12.461978,60.2465614 C12.0809321,60.1595439 11.6855927,60.1595439 11.3048954,60.2465614 C11.1187303,60.2816491 10.9384917,60.3430526 10.7694092,60.4293684 C10.5787119,60.4942807 10.3974275,60.584807 10.2307853,60.6988421 C10.076345,60.8100702 9.92852844,60.9300702 9.7876844,61.0581404 C9.52447339,61.3490175 9.31320734,61.6830526 9.16295046,62.0462105 C8.99630826,62.4016491 8.91473028,62.7911228 8.92484037,63.1841053 C8.91926239,63.5732281 8.98898716,63.9595439 9.13017982,64.322 C9.30553761,64.6788421 9.52656514,65.0111228 9.7876844,65.3100702 C10.0770422,65.5739298 10.4089321,65.7865614 10.7694092,65.9384912" id="Fill-31" fill="#116FFF"></path>
                        <path d="M111.91645,65.9384912 C112.636706,66.2581404 113.457367,66.2581404 114.177275,65.9384912 C114.925073,65.6662105 115.513202,65.0739298 115.784083,64.3216491 C116.101679,63.5967368 116.101679,62.7711228 115.784083,62.0462105 C115.633477,61.6830526 115.42256,61.3490175 115.159349,61.0581404 C115.017459,60.9300702 114.868248,60.8100702 114.712761,60.6988421 C114.547514,60.584807 114.367275,60.4942807 114.177275,60.4293684 C113.999128,60.3388421 113.807037,60.2770877 113.609018,60.2465614 C113.228321,60.1595439 112.832982,60.1595439 112.451936,60.2465614 C112.266119,60.2816491 112.085532,60.3430526 111.91645,60.4293684 C111.725752,60.4942807 111.544817,60.584807 111.377826,60.6988421 C111.223734,60.8100702 111.075917,60.9300702 110.935073,61.0581404 C110.671862,61.3490175 110.460248,61.6830526 110.310339,62.0462105 C110.143349,62.4016491 110.062119,62.7911228 110.071881,63.1841053 C110.066303,63.5732281 110.136376,63.9595439 110.277569,64.322 C110.452927,64.6788421 110.673954,65.0111228 110.935073,65.3100702 C111.224431,65.5739298 111.556321,65.7865614 111.91645,65.9384912" id="Fill-33" fill="#116FFF"></path>
                    </g>
                </g>
            </g>
        </g>
    </g>
</svg>