<?xml version="1.0" encoding="UTF-8"?>
<svg width="234px" height="185px" viewBox="0 0 234 185" version="1.1" xmlns="http://www.w3.org/2000/svg" xmlns:xlink="http://www.w3.org/1999/xlink">
    <!-- Generator: Sketch 51.2 (57519) - http://www.bohemiancoding.com/sketch -->
    <title>Group</title>
    <desc>Created with Sketch.</desc>
    <defs>
        <polygon id="path-1" points="234 0 234 156.005319 1.38851861e-14 156.005319 0 0"></polygon>
        <polygon id="path-3" points="0 3.61328125e-05 184.639701 3.61328125e-05 184.639701 185 0 185"></polygon>
    </defs>
    <g id="Web-App" stroke="none" stroke-width="1" fill="none" fill-rule="evenodd">
        <g id="500---Server-Error" transform="translate(-603.000000, -273.000000)">
            <g id="Group" transform="translate(603.000000, 273.000000)">
                <g id="ic_Notification" transform="translate(0.000000, 14.000000)">
                    <g id="Page-1" transform="translate(0.000000, 0.914894)">
                        <mask id="mask-2" fill="white">
                            <use xlink:href="#path-1"></use>
                        </mask>
                        <g id="Clip-2"></g>
                        <path d="M7.79995122,109.203772 L27.3000732,109.203772 C22.9925136,109.203772 19.500122,112.696338 19.500122,117.003623 C19.500122,121.311397 22.9925136,124.80445 27.3000732,124.80445 L38.9997561,124.80445 C34.6921966,124.80445 31.1998049,128.297016 31.1998049,132.60479 C31.1998049,136.912563 38.5924161,140.404641 42.8999756,140.404641 L35.1000244,140.404641 C30.7924649,140.404641 27.3000732,143.897694 27.3000732,148.204492 C27.3000732,152.512266 30.7924649,156.005319 35.1000244,156.005319 L163.800439,156.005319 C168.107511,156.005319 171.60039,152.512266 171.60039,148.204492 C171.60039,143.897694 168.107511,140.404641 163.800439,140.404641 L218.400098,140.404641 C222.707657,140.404641 226.200537,136.912563 226.200537,132.60479 C226.200537,128.297016 222.707657,124.80445 218.400098,124.80445 L198.899976,124.80445 C203.207535,124.80445 206.699927,121.311397 206.699927,117.003623 C206.699927,112.69585 203.207535,109.203772 198.899976,109.203772 L175.500122,109.203772 C179.807681,109.203772 183.300073,105.711207 183.300073,101.403433 C183.300073,97.0956593 179.807681,93.6026061 175.500122,93.6026061 L226.200537,93.6026061 C230.507608,93.6026061 234,90.1105285 234,85.8032426 C234,81.4954689 230.507608,78.0029035 226.200537,78.0029035 L206.699927,78.0029035 C211.007486,78.0029035 214.49939,74.5103381 214.49939,70.2025644 C214.49939,65.8947906 211.007486,62.4022252 206.699927,62.4022252 L191.100024,62.4022252 C195.407584,62.4022252 198.899488,58.9096599 198.899488,54.6018861 C198.899488,50.2941123 195.407584,46.801547 191.100024,46.801547 L163.800439,46.801547 C168.107511,46.801547 171.60039,43.3089816 171.60039,39.0012078 C171.60039,34.6939219 168.107511,31.2013565 163.800439,31.2013565 L218.400098,31.2013565 C222.707657,31.2013565 226.200537,27.7087912 226.200537,23.4010174 C226.200537,19.0927558 222.707657,15.6006783 218.400098,15.6006783 L198.899976,15.6006783 C203.207535,15.6006783 206.699927,12.1081129 206.699927,7.80033914 C206.699927,3.49256538 203.207535,0 198.899976,0 L42.8999756,0 C38.5924161,0 35.1000244,3.49256538 35.1000244,7.80033914 C35.1000244,12.1081129 38.5924161,15.6006783 42.8999756,15.6006783 L23.3998537,15.6006783 C19.0922941,15.6006783 15.5999024,19.0927558 15.5999024,23.4010174 C15.5999024,27.7087912 19.0922941,31.2013565 23.3998537,31.2013565 L15.5999024,31.2013565 C11.2923429,31.2013565 7.79995122,34.6939219 7.79995122,39.0012078 C7.79995122,43.3089816 11.2923429,46.801547 15.5999024,46.801547 L35.1000244,46.801547 C30.7924649,46.801547 27.3000732,50.2941123 27.3000732,54.6018861 C27.3000732,58.9096599 30.7924649,62.4022252 35.1000244,62.4022252 L27.3000732,62.4022252 C22.9925136,62.4022252 19.500122,65.8947906 19.500122,70.2025644 C19.500122,74.5103381 22.9925136,78.0029035 27.3000732,78.0029035 L50.6999268,78.0029035 C46.3923673,78.0029035 42.8999756,81.4954689 42.8999756,85.8032426 C42.8999756,90.1105285 46.3923673,93.6026061 50.6999268,93.6026061 L7.79995122,93.6026061 C3.49239169,93.6026061 0,97.0956593 0,101.403433 C0,105.711207 3.49239169,109.203772 7.79995122,109.203772" id="Fill-1" fill="#D7E9FF" mask="url(#mask-2)"></path>
                    </g>
                </g>
                <g id="Group-66" transform="translate(29.000000, 0.000000)">
                    <polygon id="Fill-1" fill="#FFFFFF" points="0 15.4168232 0 129.500036 0 169.58361 6.15476608 169.58361 6.15476608 129.500036 6.15476608 15.4168232"></polygon>
                    <g id="Group-65">
                        <path d="M1.90806043,147.753574 C2.08260234,147.842822 2.26904483,147.904971 2.46197856,147.938574 C2.66537037,147.9729 2.87128655,147.993496 3.07756335,148.000361 C3.89221248,147.988437 4.67224172,147.669023 5.26258285,147.106074 C5.54062378,146.81123 5.76024366,146.465801 5.90882066,146.088574 C6.37294347,144.938467 6.1201462,143.62251 5.26258285,142.727861 C4.96831384,142.449277 4.6235575,142.229229 4.24706628,142.080361 C3.87706628,141.922461 3.47965887,141.838633 3.07756335,141.833574 C2.26291423,141.845498 1.48288499,142.164912 0.89254386,142.727861 C-0.29751462,143.94373 -0.29751462,145.890205 0.89254386,147.106074 L1.3541423,147.476074 C1.52579922,147.592783 1.71188109,147.686006 1.90806043,147.753574" id="Fill-2" fill="#116FFF"></path>
                        <g id="Group-6">
                            <mask id="mask-4" fill="white">
                                <use xlink:href="#path-3"></use>
                            </mask>
                            <g id="Clip-5"></g>
                            <path d="M6.15473002,24.6668232 L6.15473002,15.4168232 C6.15473002,10.3083662 10.2881998,6.16682324 15.3866988,6.16682324 L169.252966,6.16682324 C174.351465,6.16682324 178.484935,10.3083662 178.484935,15.4168232 L178.484935,24.6668232 L6.15473002,24.6668232 Z M169.252966,3.61328125e-05 L15.3866988,3.61328125e-05 C6.89328752,0.0101533203 0.0104220273,6.90646191 -3.60623782e-05,15.4168232 L-3.60623782e-05,132.58361 C-3.60623782e-05,134.28655 1.37790741,135.666823 3.07716667,135.666823 C4.77642593,135.666823 6.1543694,134.286188 6.1543694,132.58361 L6.1543694,30.8336104 L178.484574,30.8336104 L178.484574,169.58361 C178.484574,174.692067 174.351104,178.83361 169.252605,178.83361 L15.3866988,178.83361 C10.2881998,178.83361 6.15473002,174.692067 6.15473002,169.58361 L6.15473002,157.250036 C6.15473002,155.547097 4.77678655,154.166823 3.07752729,154.166823 C1.37826803,154.166823 -3.60623782e-05,155.547097 -3.60623782e-05,157.250036 L-3.60623782e-05,169.583249 C0.0104220273,178.09361 6.89328752,184.989919 15.3866988,185.000036 L169.252966,185.000036 C177.746377,184.989919 184.629243,178.09361 184.639701,169.583249 L184.639701,15.4168232 C184.629243,6.90646191 177.746377,0.0101533203 169.252966,3.61328125e-05 Z" id="Fill-4" fill="#116FFF" mask="url(#mask-4)"></path>
                        </g>
                        <path d="M21.5414649,12.333502 L18.4639016,12.333502 C16.7642817,12.333502 15.3866988,13.7141367 15.3866988,15.4167148 C15.3866988,17.119293 16.7646423,18.4999277 18.4639016,18.4999277 L21.5411043,18.4999277 C23.2407242,18.4999277 24.618307,17.119293 24.618307,15.4167148 C24.618307,13.7141367 23.2410848,12.333502 21.5414649,12.333502" id="Fill-7" fill="#116FFF"></path>
                        <path d="M36.0356199,13.2274639 C34.8015653,12.086751 32.8999961,12.086751 31.6659415,13.2274639 C31.3943918,13.5273662 31.1758538,13.8713506 31.0197037,14.2449639 C30.8473255,14.6109893 30.7629396,15.0120635 30.7733977,15.416751 C30.7629396,16.4483428 31.2732222,17.4152568 32.1297037,17.9876006 C32.9865458,18.5599443 34.0734659,18.6596709 35.0201033,18.2535381 C35.3926277,18.0963604 35.7359415,17.8773955 36.0356199,17.6060381 C36.9166238,16.7236748 37.1726667,15.392542 36.6818577,14.2453252 C36.5257076,13.8717119 36.3071696,13.5273662 36.0356199,13.2274639" id="Fill-9" fill="#116FFF"></path>
                        <path d="M44.9906296,12.5799639 C44.6141384,12.7288311 44.2693821,12.9488799 43.9751131,13.2274639 C43.4114581,13.8175127 43.0926667,14.5997881 43.0825692,15.416751 C43.0721111,15.8210771 43.1561365,16.2225127 43.3288752,16.5885381 C43.4857466,16.96179 43.7042846,17.3057744 43.9751131,17.6060381 C44.2693821,17.8846221 44.6141384,18.1046709 44.9906296,18.2535381 C45.7356784,18.582708 46.5842261,18.582708 47.3292749,18.2535381 C47.7017992,18.0963604 48.0451131,17.8773955 48.3447914,17.6060381 C48.6156199,17.3057744 48.8341579,16.96179 48.9910292,16.5885381 C49.1619649,16.2221514 49.2463509,15.8210771 49.2373353,15.416751 C49.2261559,14.6005107 48.9073645,13.8185967 48.3447914,13.2274639 C47.4598207,12.3526885 46.136692,12.0972295 44.9906296,12.5799639" id="Fill-11" fill="#116FFF"></path>
                        <path d="M166.175727,12.333502 L61.5465068,12.333502 C59.8468869,12.333502 58.4693041,13.7141367 58.4693041,15.4167148 C58.4693041,17.119293 59.8468869,18.4999277 61.5465068,18.4999277 L166.175366,18.4999277 C167.874986,18.4999277 169.252569,17.119293 169.252569,15.4167148 C169.252569,13.7141367 167.874986,12.333502 166.175727,12.333502" id="Fill-13" fill="#116FFF"></path>
                        <path d="M107.398991,89.4167148 L77.2411062,89.4167148 C78.6973051,82.2317051 85.0024513,77.0679648 92.3198684,77.0679648 C99.6376462,77.0679648 105.942792,82.2313437 107.398991,89.4167148 Z M107.706603,123.333502 C107.696866,130.6569 102.556174,136.967135 95.3974318,138.442076 L95.3974318,110.999928 C95.3974318,109.29735 94.0194883,107.916715 92.320229,107.916715 C90.6206092,107.916715 89.2426657,109.29735 89.2426657,110.999928 L89.2426657,138.442076 C82.083923,136.966773 76.9425097,130.656539 76.9338548,123.333502 L76.9338548,95.583502 L107.706964,95.583502 L107.706964,123.333502 L107.706603,123.333502 Z M53.7886598,138.87025 L55.4843129,145.653824 C55.822578,147.030123 57.0544688,147.998482 58.4691959,147.999928 C58.7216326,147.999205 58.9722661,147.968492 59.2174903,147.907428 C60.8655409,147.494791 61.8684357,145.822203 61.4573246,144.170572 L59.7616715,137.387359 C59.3815741,135.824977 60.2550049,134.230074 61.7743129,133.71193 L71.9576072,130.320143 C74.9222953,139.058502 83.1113402,144.935504 92.323114,144.935504 C101.534527,144.935504 109.723933,139.058502 112.689342,130.320143 L122.871915,133.71193 C124.393387,134.230074 125.267178,135.826783 124.884557,137.390611 L123.188904,144.173463 C122.778153,145.825094 123.781408,147.498043 125.429459,147.910318 C125.672159,147.969576 125.920989,147.999566 126.171262,147.999566 C127.582383,147.99776 128.81175,147.034459 129.1529,145.662496 L130.848553,138.879645 C131.997861,134.193219 129.375765,129.405982 124.814235,127.859859 L113.815931,124.18732 C113.815931,123.903678 113.858484,123.626178 113.858484,123.339283 L113.858484,117.166354 L120.01325,117.166354 C121.71287,117.166354 123.090814,115.78608 123.090814,114.083502 C123.090814,112.380562 121.71287,110.999928 120.01325,110.999928 L113.862091,110.999928 L113.862091,103.969928 L124.817481,100.312926 C129.37865,98.7678867 132.000746,93.981373 130.851798,89.2963926 L129.156506,82.5128184 C128.910921,81.4216074 128.095551,80.5486387 127.024859,80.2324766 C125.953806,79.9159531 124.795843,80.205377 123.998865,80.9887363 C123.201886,81.7720957 122.891389,82.9265391 123.186019,84.0051035 L124.881672,90.7883164 C125.26213,92.3506992 124.388699,93.9456016 122.86903,94.4641074 L113.862091,97.473248 L113.862091,92.4999277 C113.858124,86.3338633 111.21367,80.4662559 106.599128,76.3865 L109.882968,73.0966074 C111.048865,71.8868809 111.032276,69.9635312 109.845102,68.7744004 C108.657929,67.5849082 106.73905,67.5682871 105.531321,68.7368223 L101.346642,72.9300352 C95.6275097,70.2453672 89.0140302,70.2453672 83.2948977,72.9300352 L79.1098587,68.7368223 C77.9024903,67.5682871 75.9825292,67.5849082 74.7957164,68.7744004 C73.6085429,69.9638926 73.5919542,71.8868809 74.7582115,73.0966074 L78.0420517,76.3865 C73.4275097,80.4662559 70.7826949,86.3342246 70.7794493,92.4999277 L70.7794493,97.473248 L61.7721491,94.4673594 C60.2506774,93.9488535 59.376886,92.3521445 59.7591472,90.7886777 L61.4551608,84.0054648 C61.8222758,82.3711777 60.8193811,80.7423105 59.1972953,80.3369004 C57.5752096,79.9314902 55.9271589,80.8976816 55.4846735,82.5131797 L53.7890205,89.2963926 C52.6400731,93.982457 55.261808,98.7696934 59.8240595,100.316178 L70.7794493,103.969928 L70.7794493,110.999928 L64.623962,110.999928 C62.9239815,110.999928 61.5467593,112.380201 61.5467593,114.083502 C61.5467593,115.78608 62.9243421,117.166354 64.623962,117.166354 L70.7787281,117.166354 L70.7787281,123.333141 C70.7787281,123.620035 70.8093811,123.897535 70.8216423,124.181178 L59.8233382,127.853355 C55.2621686,129.398756 52.6404337,134.18527 53.7886598,138.87025 Z" id="Fill-15" fill="#116FFF"></path>
                        <path d="M30.7734698,55.5000361 C30.7734698,57.2029756 29.3955263,58.583249 27.6962671,58.583249 C25.9966472,58.583249 24.6190643,57.2026143 24.6190643,55.5000361 L24.6190643,49.333249 C24.6190643,47.6303096 25.9966472,46.2500361 27.6962671,46.2500361 C29.3958869,46.2500361 30.7734698,47.6306709 30.7734698,49.333249 L30.7734698,55.5000361 Z M27.6959064,40.0836104 C22.5974074,40.0836104 18.4639376,44.2251533 18.4639376,49.3336104 L18.4639376,55.5000361 C18.4639376,60.6084932 22.5974074,64.7500361 27.6959064,64.7500361 C32.7944055,64.7500361 36.9278752,60.6084932 36.9278752,55.5000361 L36.9278752,49.333249 C36.9278752,44.224792 32.7947661,40.0836104 27.6959064,40.0836104 Z" id="Fill-17" fill="#116FFF"></path>
                        <path d="M36.9278392,83.2499639 L36.9278392,89.416751 C36.9278392,94.5255693 41.061309,98.666751 46.159808,98.666751 C47.8594279,98.666751 49.2370107,97.2861162 49.2370107,95.5835381 C49.2370107,93.8805986 47.8590673,92.5003252 46.159808,92.5003252 C44.4601881,92.5003252 43.0826053,91.1200518 43.0826053,89.4171123 L43.0826053,83.2499639 C43.0826053,81.5470244 44.4605487,80.166751 46.159808,80.166751 C47.8594279,80.166751 49.2370107,78.7861162 49.2370107,77.0835381 C49.2370107,75.3805986 47.8590673,74.0003252 46.159808,74.0003252 C41.061309,73.9999639 36.9278392,78.1415068 36.9278392,83.2499639" id="Fill-19" fill="#116FFF"></path>
                        <path d="M61.5465789,49.3336465 C61.5465789,47.630707 62.9245224,46.2504336 64.6237817,46.2504336 C66.3234016,46.2504336 67.7009844,47.6310684 67.7009844,49.3336465 L67.7009844,55.5000723 C67.7009844,57.2030117 66.3230409,58.5832852 64.6237817,58.5832852 C62.9241618,58.5832852 61.5465789,57.2026504 61.5465789,55.5000723 L61.5465789,49.3336465 Z M64.6237817,64.7500723 C69.7222807,64.7500723 73.8557505,60.6085293 73.8557505,55.5000723 L73.8557505,49.3332852 C73.8557505,44.2248281 69.7222807,40.0832852 64.6237817,40.0832852 C59.524922,40.0832852 55.3918129,44.2248281 55.3918129,49.3332852 L55.3918129,55.5000723 C55.3918129,60.6088906 59.5252827,64.7500723 64.6237817,64.7500723 Z" id="Fill-21" fill="#116FFF"></path>
                        <path d="M144.634442,55.5000361 C144.634442,57.2029756 143.256499,58.583249 141.55724,58.583249 C139.85762,58.583249 138.480037,57.2026143 138.480037,55.5000361 L138.480037,49.333249 C138.480037,47.6303096 139.857981,46.2500361 141.55724,46.2500361 C143.25686,46.2500361 144.634442,47.6306709 144.634442,49.333249 L144.634442,55.5000361 Z M141.55724,40.0836104 C136.458741,40.0836104 132.32491,44.2251533 132.32491,49.3336104 L132.32491,55.5000361 C132.32491,60.6084932 136.458741,64.7500361 141.55724,64.7500361 C146.655378,64.7500361 150.788848,60.6084932 150.788848,55.5000361 L150.788848,49.333249 C150.788848,44.224792 146.655378,40.0836104 141.55724,40.0836104 Z" id="Fill-23" fill="#116FFF"></path>
                        <path d="M156.943903,83.2499639 C156.943903,81.5470244 158.321485,80.166751 160.021105,80.166751 C161.720725,80.166751 163.097947,81.5473857 163.097947,83.2499639 L163.097947,89.416751 C163.097947,91.1196904 161.720725,92.4999639 160.021105,92.4999639 C158.321485,92.4999639 156.943903,91.1196904 156.943903,89.416751 L156.943903,83.2499639 Z M150.789136,83.2499639 L150.789136,89.416751 C150.789136,94.5255693 154.922606,98.666751 160.021105,98.666751 C165.119604,98.666751 169.253074,94.5255693 169.253074,89.416751 L169.253074,83.2499639 C169.253074,78.1411455 165.119604,73.9999639 160.021105,73.9999639 C154.922606,73.9999639 150.789136,78.1415068 150.789136,83.2499639 Z" id="Fill-25" fill="#116FFF"></path>
                        <path d="M126.170433,58.583502 C127.870053,58.583502 129.247635,57.2028672 129.247635,55.5002891 L129.247635,49.333502 C129.247635,44.2250449 125.113805,40.083502 120.015667,40.083502 C114.917168,40.083502 110.783698,44.2250449 110.783698,49.333502 L110.783698,55.4999277 C110.783698,57.2028672 112.16092,58.5831406 113.860901,58.5831406 C115.56052,58.5831406 116.937743,57.2025059 116.937743,55.4999277 L116.937743,49.3331406 C116.937743,47.6302012 118.316047,46.2499277 120.015306,46.2499277 C121.714926,46.2499277 123.092509,47.6305625 123.092509,49.3331406 L123.092509,55.4999277 C123.09323,57.2028672 124.470813,58.583502 126.170433,58.583502" id="Fill-27" fill="#116FFF"></path>
                        <path d="M40.0054747,61.6667871 C40.0054747,63.3697266 41.3834181,64.75 43.0826774,64.75 L49.2374435,64.75 C50.9370634,64.75 52.3146462,63.3693652 52.3146462,61.6667871 C52.3146462,59.9638477 50.9370634,58.5835742 49.2374435,58.5835742 L49.2374435,43.1667871 C49.2370828,41.9198437 48.487346,40.795752 47.3376774,40.3187988 C46.1880088,39.8418457 44.8645195,40.1052539 43.9845975,40.9868945 L40.9073947,44.0701074 C40.0274727,44.951748 39.764578,46.2778223 40.2406014,47.4297363 C40.7166248,48.5816504 41.8385253,49.3328516 43.083038,49.3332129 L43.083038,58.5832129 C41.3830575,58.5835742 40.0054747,59.9638477 40.0054747,61.6667871" id="Fill-29" fill="#116FFF"></path>
                        <path d="M24.6187398,117.166643 C24.6187398,115.463703 25.9963226,114.083791 27.6959425,114.083791 C29.3955624,114.083791 30.7731452,115.464064 30.7731452,117.166643 L30.7731452,123.33343 C30.7731452,125.036369 29.3952018,126.417004 27.6959425,126.417004 C25.9963226,126.417004 24.6187398,125.036369 24.6187398,123.33343 L24.6187398,117.166643 Z M18.4639737,123.33343 C18.4639737,128.441887 22.5974435,132.58343 27.6959425,132.58343 C32.7944415,132.58343 36.9279113,128.441887 36.9279113,123.33343 L36.9279113,117.166643 C36.9279113,112.058186 32.7944415,107.916643 27.6959425,107.916643 C22.5974435,107.916643 18.4639737,112.058186 18.4639737,117.166643 L18.4639737,123.33343 Z" id="Fill-31" fill="#116FFF"></path>
                        <path d="M76.9333138,151.083502 C75.233694,151.083502 73.8561111,152.463775 73.8561111,154.166715 L73.8561111,157.249928 C73.8561111,162.358385 77.9895809,166.499928 83.0880799,166.499928 C88.1865789,166.499928 92.3200487,162.358385 92.3200487,157.249928 L92.3200487,154.166715 C92.3200487,152.463775 90.9421053,151.083502 89.242846,151.083502 C87.5435867,151.083502 86.1656433,152.463775 86.1656433,154.166715 L86.1656433,157.249928 C86.1656433,158.952867 84.7876998,160.333502 83.0884405,160.333502 C81.3891813,160.333502 80.0112378,158.952867 80.0112378,157.249928 L80.0112378,154.166715 C80.0105166,152.463775 78.6329337,151.083502 76.9333138,151.083502" id="Fill-33" fill="#116FFF"></path>
                        <path d="M98.4745984,151.083502 C96.7746179,151.083502 95.3973957,152.463775 95.3973957,154.166715 L95.3973957,157.249928 C95.3973957,162.358385 99.5308655,166.499928 104.629004,166.499928 C109.727864,166.499928 113.861333,162.358385 113.861333,157.249928 L113.861333,154.166715 C113.861333,152.463775 112.48339,151.083502 110.784131,151.083502 C109.084511,151.083502 107.706928,152.463775 107.706928,154.166715 L107.706928,157.249928 C107.706928,158.952867 106.328984,160.333502 104.629365,160.333502 C102.929745,160.333502 101.552162,158.952867 101.552162,157.249928 L101.552162,154.166715 C101.551441,152.463775 100.174218,151.083502 98.4745984,151.083502" id="Fill-35" fill="#116FFF"></path>
                        <path d="M40.0054747,129.500145 C40.0054747,131.203084 41.3834181,132.582996 43.0826774,132.582996 L49.2374435,132.582996 C50.9370634,132.582996 52.3146462,131.202723 52.3146462,129.500145 C52.3146462,127.796844 50.9370634,126.416932 49.2374435,126.416932 L49.2374435,111.000145 C49.2370828,109.753201 48.487346,108.628748 47.3376774,108.152156 C46.1880088,107.675203 44.8645195,107.93825 43.9845975,108.820252 L40.9073947,111.903465 C40.0274727,112.785105 39.764578,114.110818 40.2406014,115.263094 C40.7166248,116.414646 41.8385253,117.165848 43.083038,117.166209 L43.083038,126.41657 C41.3830575,126.416932 40.0054747,127.797205 40.0054747,129.500145" id="Fill-37" fill="#116FFF"></path>
                        <path d="M138.479532,117.166643 C138.479532,115.463703 139.857476,114.083791 141.556735,114.083791 C143.256355,114.083791 144.633938,115.464064 144.633938,117.166643 L144.633938,123.33343 C144.633938,125.036369 143.255994,126.417004 141.556735,126.417004 C139.857115,126.417004 138.479532,125.036369 138.479532,123.33343 L138.479532,117.166643 Z M132.325127,123.33343 C132.325127,128.441887 136.458596,132.58343 141.557096,132.58343 C146.655595,132.58343 150.789064,128.441887 150.789064,123.33343 L150.789064,117.166643 C150.789064,112.058186 146.655595,107.916643 141.557096,107.916643 C136.458596,107.916643 132.325127,112.058186 132.325127,117.166643 L132.325127,123.33343 Z" id="Fill-39" fill="#116FFF"></path>
                        <path d="M153.866267,129.500145 C153.866267,131.203084 155.24385,132.582996 156.94347,132.582996 L163.098236,132.582996 C164.797856,132.582996 166.175439,131.202723 166.175439,129.500145 C166.175439,127.796844 164.797495,126.416932 163.098236,126.416932 L163.098236,111.000145 C163.097875,109.753201 162.348138,108.628748 161.19847,108.152156 C160.048801,107.675203 158.725312,107.93825 157.84539,108.820252 L154.768187,111.903465 C153.888265,112.785105 153.62537,114.110818 154.101394,115.263094 C154.577778,116.414646 155.699318,117.165848 156.94383,117.166209 L156.94383,126.41657 C155.244211,126.416932 153.866267,127.797205 153.866267,129.500145" id="Fill-41" fill="#116FFF"></path>
                        <path d="M21.5414649,95.5836465 C21.5414649,97.2865859 22.9194084,98.6668594 24.6186676,98.6668594 L30.7734337,98.6668594 C32.4730536,98.6668594 33.8506365,97.2862246 33.8506365,95.5836465 C33.8506365,93.880707 32.472693,92.5004336 30.7734337,92.5004336 L30.7734337,77.0836465 C30.7730731,75.8367031 30.0233363,74.7126113 28.8736676,74.2356582 C27.723999,73.7587051 26.4005097,74.0221133 25.5205877,74.9037539 L22.443385,77.9869668 C21.563463,78.8686074 21.3005682,80.1946816 21.7765916,81.3465957 C22.252615,82.4985098 23.3745156,83.2497109 24.6190283,83.2500723 L24.6190283,92.5000723 C22.9190478,92.5000723 21.5414649,93.880707 21.5414649,95.5836465" id="Fill-43" fill="#116FFF"></path>
                        <path d="M135.402257,95.5836465 C135.402257,97.2865859 136.77984,98.6668594 138.47946,98.6668594 L144.634587,98.6668594 C146.333846,98.6668594 147.711429,97.2862246 147.711429,95.5836465 C147.711429,93.880707 146.333846,92.5004336 144.634587,92.5004336 L144.634587,77.0836465 C144.634226,75.8367031 143.884489,74.7126113 142.73446,74.2356582 C141.585152,73.7587051 140.261663,74.0221133 139.38138,74.9037539 L136.304177,77.9869668 C135.424616,78.8686074 135.161361,80.1946816 135.637384,81.3465957 C136.113768,82.4985098 137.235308,83.2497109 138.479821,83.2500723 L138.479821,92.5000723 C136.780201,92.5000723 135.402257,93.880707 135.402257,95.5836465" id="Fill-45" fill="#116FFF"></path>
                        <path d="M156.943903,151.083502 C156.943903,149.380562 158.321485,148.000289 160.021105,148.000289 C161.720725,148.000289 163.097947,149.380924 163.097947,151.083502 L163.097947,157.249928 C163.097947,158.952867 161.720725,160.333502 160.021105,160.333502 C158.321485,160.333502 156.943903,158.952867 156.943903,157.249928 L156.943903,151.083502 Z M150.789136,151.083502 L150.789136,157.249928 C150.789136,162.358385 154.922606,166.499928 160.021105,166.499928 C165.119604,166.499928 169.253074,162.358385 169.253074,157.249928 L169.253074,151.083141 C169.253074,145.974684 165.119604,141.833141 160.021105,141.833141 C154.922606,141.833141 150.789136,145.974684 150.789136,151.083502 Z" id="Fill-47" fill="#116FFF"></path>
                        <path d="M135.402257,163.416643 C135.402257,165.119943 136.77984,166.499855 138.47946,166.499855 L144.634587,166.499855 C146.333846,166.499855 147.711429,165.119943 147.711429,163.416643 C147.711429,161.713703 146.333846,160.333791 144.634587,160.333791 L144.634587,144.917004 C144.634226,143.670061 143.884489,142.545607 142.73446,142.068654 C141.585152,141.592063 140.261663,141.855109 139.38138,142.737111 L136.304177,145.820324 C135.424616,146.701965 135.161361,148.027678 135.637384,149.179953 C136.113768,150.331506 137.235308,151.082707 138.479821,151.083068 L138.479821,160.33343 C136.780201,160.333791 135.402257,161.713703 135.402257,163.416643" id="Fill-49" fill="#116FFF"></path>
                        <path d="M49.2374795,157.250072 C49.2374795,158.953012 47.8595361,160.333285 46.1602768,160.333285 C44.4606569,160.333285 43.0830741,158.953012 43.0830741,157.250072 L43.0830741,151.083285 C43.0830741,149.380346 44.4610175,147.999711 46.1602768,147.999711 C47.8598967,147.999711 49.2374795,146.619799 49.2374795,144.916859 C49.2374795,143.21392 47.8595361,141.833646 46.1602768,141.833646 C41.0617778,141.833646 36.928308,145.975189 36.928308,151.083646 L36.928308,157.250072 C36.928308,162.358529 41.0617778,166.500072 46.1602768,166.500072 C51.2591365,166.500072 55.3922456,162.358529 55.3922456,157.250072 C55.3922456,155.547133 54.0143021,154.166859 52.3150429,154.166859 C50.6150624,154.166859 49.2374795,155.547133 49.2374795,157.250072" id="Fill-51" fill="#116FFF"></path>
                        <path d="M21.5414649,163.416643 C21.5414649,165.119943 22.9194084,166.499855 24.6186676,166.499855 L30.7734337,166.499855 C32.4730536,166.499855 33.8506365,165.119943 33.8506365,163.416643 C33.8506365,161.713703 32.472693,160.333791 30.7734337,160.333791 L30.7734337,144.917004 C30.7730731,143.670061 30.0233363,142.545607 28.8736676,142.068654 C27.723999,141.592063 26.4005097,141.855109 25.5205877,142.737111 L22.443385,145.820324 C21.563463,146.701965 21.3005682,148.027678 21.7765916,149.179953 C22.252615,150.331506 23.3745156,151.082707 24.6190283,151.083068 L24.6190283,160.33343 C22.9190478,160.333791 21.5414649,161.713703 21.5414649,163.416643" id="Fill-53" fill="#116FFF"></path>
                        <path d="M64.6238538,154.166787 C62.9242339,154.166787 61.5466511,155.547061 61.5466511,157.25 L61.5466511,160.333213 C59.8470312,160.333213 58.4694483,161.713848 58.4694483,163.416426 C58.4694483,165.119004 59.8470312,166.499639 61.5466511,166.499639 L67.7014172,166.499639 C69.401037,166.499639 70.7786199,165.119365 70.7786199,163.416426 C70.7786199,161.713486 69.4006764,160.333213 67.7014172,160.333213 L67.7014172,157.25 C67.7014172,155.547061 66.3234737,154.166787 64.6238538,154.166787" id="Fill-55" fill="#116FFF"></path>
                        <path d="M123.093158,154.166787 C121.393538,154.166787 120.015955,155.547061 120.015955,157.25 L120.015955,160.333213 C118.316335,160.333213 116.938752,161.713848 116.938752,163.416426 C116.938752,165.119004 118.316696,166.499639 120.015955,166.499639 L126.170721,166.499639 C127.870341,166.499639 129.247924,165.119365 129.247924,163.416426 C129.247924,161.713486 127.870341,160.333213 126.170721,160.333213 L126.170721,157.25 C126.170361,155.547061 124.792778,154.166787 123.093158,154.166787" id="Fill-57" fill="#116FFF"></path>
                        <path d="M153.866267,61.6667871 C153.866267,63.3697266 155.24385,64.75 156.94347,64.75 L163.098236,64.75 C164.797856,64.75 166.175439,63.3693652 166.175439,61.6667871 C166.175439,59.9638477 164.797495,58.5835742 163.098236,58.5835742 L163.098236,43.1667871 C163.097875,41.9198437 162.348138,40.795752 161.19847,40.3187988 C160.048801,39.8418457 158.725312,40.1052539 157.84539,40.9868945 L154.768187,44.0701074 C153.888265,44.951748 153.62537,46.2778223 154.101394,47.4297363 C154.577778,48.5816504 155.699318,49.3328516 156.94383,49.3332129 L156.94383,58.5832129 C155.244211,58.5835742 153.866267,59.9638477 153.866267,61.6667871" id="Fill-59" fill="#116FFF"></path>
                        <path d="M95.3973236,61.6667871 C95.3973236,63.3697266 96.7752671,64.75 98.4745263,64.75 L104.629292,64.75 C106.328552,64.75 107.706495,63.3693652 107.706495,61.6667871 C107.706495,59.9638477 106.328552,58.5835742 104.629292,58.5835742 L104.629292,43.1667871 C104.628932,41.9198437 103.879195,40.795752 102.729526,40.3187988 C101.579858,39.8418457 100.256368,40.1052539 99.3764464,40.9868945 L96.2992437,44.0701074 C95.4193216,44.951748 95.1564269,46.2778223 95.6320897,47.4297363 C96.1084737,48.5816504 97.2303743,49.3328516 98.4748869,49.3332129 L98.4748869,58.5832129 C96.7745458,58.5835742 95.3973236,59.9638477 95.3973236,61.6667871" id="Fill-61" fill="#116FFF"></path>
                        <path d="M86.1653187,58.583502 C87.8649386,58.583502 89.2425214,57.2028672 89.2425214,55.5002891 L89.2425214,43.1670762 C89.2421608,41.9201328 88.492424,40.796041 87.3427554,40.3190879 C86.1930867,39.8421348 84.8695975,40.105543 83.9896754,40.9871836 L80.9124727,44.0703965 C80.0325507,44.9520371 79.7696559,46.2781113 80.2456793,47.4300254 C80.7217027,48.5819395 81.8436033,49.3331406 83.088116,49.333502 L83.088116,55.4999277 C83.0877554,57.2028672 84.4656988,58.583502 86.1653187,58.583502" id="Fill-63" fill="#116FFF"></path>
                    </g>
                </g>
            </g>
        </g>
    </g>
</svg>